<svg xmlns="http://www.w3.org/2000/svg" width="100%" height="100%" viewBox="0 0 60 60">
    <g>
      <path d="M32.06478356663761 61.16502933855531 L32.96582111852522 62.92072034947921 L38.67949565119004 57.7422611026807 L38.95596590840203 60.19395490557456 L40.876388979782554 57.300757291336865 L42.24382452201692 56.49314031222863 L46.238392490812764 55.97122510344095 L50.56496845933978 53.08576078827935 L52.44855289828622 52.346210608343206 L51.769470018796035 51.939709424236035 L53.784681541063165 46.1429210500618 L58.33696944938708 41.926802037289725 L56.867770012229094 43.30436040345223 L61.67481751030776 37.75500281073746 L59.005421566936676 38.11279215050417 L60.91540611123932 31.308966528341713 L59.957851651639295 29.346820311663205 L59.53049491530545 24.637540997449726 L59.51097929685247 22.60008034392476 L56.043766721405795 19.331782689248197 L57.75182787149019 19.094263225902612 L58.68012667216275 19.792728646720754 L56.91217899394997 14.289124485974707 L51.53931900038879 10.392785269900862 L53.07399649451654 5.81810144121393 L52.467296796539244 9.329116194852718 L44.118414542369116 6.734254703328876 L45.36281067165098 5.347981000603258 L42.92371470537205 0.5614272977403738 L37.28148793368829 3.611621648926408 L32.91443649551204 -1.0698089243506113 L30.35815646794786 2.7472960890230933 L29.799839034057122 1.923725865407268 L27.327824989362053 0.3331326533356227 L24.791956234001916 3.311302724787385 L21.562687237244276 -0.3011951994781661 L18.476170213710297 0.4853442318130614 L16.8677430280974 5.143658723471273 L11.601817900026079 3.3955606980319417 L11.907773906707405 4.78570680158591 L6.925174255283662 9.296958689666925 L7.645107051516176 8.89438737738229 L3.5169206980969125 14.303883815735349 L5.138742316716492 17.962139693682506 L-0.41392943727315723 20.011168813325853 L0.8953649992560488 21.398569623399133 L-2.052773172222467 25.32696415074578 L1.78364340970657 27.152985623042927 L1.0503560368036675 31.039976189245714 L2.3030379813152626 34.892017312405635 L2.9614939678836385 34.472543425568475 L3.9704761563279227 40.832708460244234 L1.4791534326296158 42.40652437759162 L5.919980113398872 43.23959788134901 L4.108942468898303 45.319974268463554 L7.990006602592412 45.59613686166849 L11.801875477194002 52.59313811810528 L12.312232372414925 50.73347712539138 L12.633694664268841 53.76614274945587 L13.932015178027939 59.14597258890787 L19.369649428271575 55.44348462458413 L23.229019330478128 57.29936558565693 L21.44948941376008 61.87077148409581 L25.412005400649004 62.479261632601094 L27.71060873440638 59.55873726750153"></path>
      <path d="M30 60 C30.34710098903234 59.77482746213225, 31.121726540980088 60.24214091247236, 32.1362964527027 59.92767333984375 M30 60 C30.451903106694473 60.04191640861562, 31.009502498356763 59.84521672924601, 32.1362964527027 59.92767333984375 M32.1362964527027 59.92767333984375 C32.42929126336349 60.15908334425746, 34.30851610255961 59.65217478507238, 36.244193412162154 59.36553955078125 M32.1362964527027 59.92767333984375 C33.05943320698271 60.10728129630462, 33.91858224897296 59.833965984398034, 36.244193412162154 59.36553955078125 M36.244193412162154 59.36553955078125 C36.560999185661714 59.09774794840582, 37.13328605930575 58.9276988989379, 38.20945945945945 58.88671875 M36.244193412162154 59.36553955078125 C37.14397590722254 59.22889054385128, 37.73390249955492 58.85396748990225, 38.20945945945945 58.88671875 M38.20945945945945 58.88671875 C39.58726622084123 57.97815399028522, 39.80094458195051 57.67141405290879, 41.94679054054054 57.56103515625 M38.20945945945945 58.88671875 C39.79145630596561 58.371232352350006, 41.084711604382086 57.73054512423155, 41.94679054054054 57.56103515625 M41.94679054054054 57.56103515625 C42.56061131350383 57.55423881543142, 42.75624942967682 57.210255932757526, 43.71252111486486 56.72515869140625 M41.94679054054054 57.56103515625 C42.58331714779403 57.25788780592375, 43.17565546493015 56.99612507376771, 43.71252111486486 56.72515869140625 M43.71252111486486 56.72515869140625 C45.371619126053126 56.54247379091589, 45.50316596682325 55.097083554249316, 47.02227618243243 54.73480224609375 M43.71252111486486 56.72515869140625 C44.59795990916477 55.8954511987132, 46.0836293714936 55.52823835349157, 47.02227618243243 54.73480224609375 M47.02227618243243 54.73480224609375 C47.12769307349498 54.44770634198007, 47.92484461594568 54.46712401426314, 48.55996621621621 53.59130859375 M47.02227618243243 54.73480224609375 C47.59570639170829 54.39213520586005, 48.248908583768944 53.779617266259784, 48.55996621621621 53.59130859375 M48.55996621621621 53.59130859375 C49.46268580939912 53.449026358836704, 50.47388098225808 51.94062817841918, 51.38513513513513 51.03515625 M48.55996621621621 53.59130859375 C49.74372219573855 52.6175512240384, 50.75415948141819 51.65118464334664, 51.38513513513513 51.03515625 M51.38513513513513 51.03515625 C51.645288164231445 50.50192772609569, 52.03476086666573 50.00443084081017, 52.66627956081081 49.63348388671875 M51.38513513513513 51.03515625 C51.838014454414086 50.66530826856616, 52.17492572761517 50.029539584730266, 52.66627956081081 49.63348388671875 M52.66627956081081 49.63348388671875 C52.973002041718544 48.876286189821826, 54.40582935576241 47.66135819303613, 54.94985219594595 46.61041259765625 M52.66627956081081 49.63348388671875 C53.81178274611356 48.74022298282039, 54.66434181915322 47.39425161583489, 54.94985219594595 46.61041259765625 M54.94985219594595 46.61041259765625 C56.10289496675802 45.68223623271756, 56.45376538249262 44.07447969867569, 56.84068834459458 43.33099365234375 M54.94985219594595 46.61041259765625 C55.43741730751106 45.54705525839879, 56.20699844962963 44.25991117336884, 56.84068834459458 43.33099365234375 M56.84068834459458 43.33099365234375 C56.84165632073939 42.869913529952505, 57.44371322300348 42.24677006964289, 57.63091216216216 41.60888671875 M56.84068834459458 43.33099365234375 C57.057278759572434 42.67878569307611, 57.36114277487785 42.1969786590289, 57.63091216216216 41.60888671875 M57.63091216216216 41.60888671875 C58.23676046897613 40.94523536305832, 58.96753064661539 38.956908542385754, 58.88513513513513 38.02734375 M57.63091216216216 41.60888671875 C57.81072422496885 40.51907633451665, 58.7475112968459 38.96425446671908, 58.88513513513513 38.02734375 M58.88513513513513 38.02734375 C59.24400102037478 37.694614720472096, 59.2043813802496 37.05067595201913, 59.342799831081074 36.17889404296875 M58.88513513513513 38.02734375 C59.00934893021231 37.54690453748257, 59.14700494072817 36.998764638850204, 59.342799831081074 36.17889404296875 M59.342799831081074 36.17889404296875 C59.65884793478192 35.19634906482281, 59.11030926022088 34.982853626535785, 59.903399493243235 32.39410400390625 M59.342799831081074 36.17889404296875 C59.312673560874295 35.094740800631136, 59.67657889511423 33.95343663728067, 59.903399493243235 32.39410400390625 M59.903399493243235 32.39410400390625 C59.656764117287764 31.790484324263332, 60.16348154944649 30.786058192662466, 60 30.46875 M59.903399493243235 32.39410400390625 C60.04077387212272 31.910843918703666, 59.82555028856615 31.50801837058461, 60 30.46875 M60 30.46875 C59.374267158554524 29.68023904952702, 59.646396980460516 28.247837607452208, 59.809966216216225 26.579589843750004 M60 30.46875 C59.699841246291385 29.23398766848006, 59.74327400803613 28.220542643982167, 59.809966216216225 26.579589843750004 M59.809966216216225 26.579589843750004 C59.775949630159005 26.302701351330406, 59.5740262373198 25.401586686175968, 59.516997466216225 24.626770019531257 M59.809966216216225 26.579589843750004 C59.68149919596513 26.154692434028078, 59.60871149449427 25.628766299698377, 59.516997466216225 24.626770019531257 M59.516997466216225 24.626770019531257 C59.83478269334933 24.241171484893087, 59.64052534961921 22.612601582001094, 58.519320101351354 20.732116699218757 M59.516997466216225 24.626770019531257 C59.13716252316264 23.784897695519792, 58.79427471241613 22.748266147553455, 58.519320101351354 20.732116699218757 M58.519320101351354 20.732116699218757 C58.217970859208364 20.237504660797196, 58.085943445636694 19.940230109540124, 57.80827702702703 18.801269531250007 M58.519320101351354 20.732116699218757 C58.20399218122394 19.896412398377592, 57.99381895585868 19.209221456666967, 57.80827702702703 18.801269531250007 M57.80827702702703 18.801269531250007 C57.59956198266662 18.28380528460557, 57.5537721779431 17.82404113607534, 56.951541385135144 16.888732910156257 M57.80827702702703 18.801269531250007 C57.38799584686352 18.078622558733443, 57.22238048450798 17.769063246788225, 56.951541385135144 16.888732910156257 M56.951541385135144 16.888732910156257 C56.38907360744082 15.710556570490821, 56.20434328457861 15.276638976321662, 54.89020426560928 13.301911180576255 M56.951541385135144 16.888732910156257 C56.43287386259634 15.969202688525476, 55.689370674892196 14.858916469211811, 54.89020426560928 13.301911180576255 M54.89020426560928 13.301911180576255 C54.79347406457723 12.658268750375719, 54.04948090117932 12.414615168311524, 53.73354347771478 11.69051025682618 M54.89020426560928 13.301911180576255 C54.57547287531057 12.719174225982279, 54.251229479672276 12.565465951133426, 53.73354347771478 11.69051025682618 M53.73354347771478 11.69051025682618 C52.76033050730002 10.55051796348075, 51.93282778224512 8.94795849030098, 51.139294678155004 8.740392622275202 M53.73354347771478 11.69051025682618 C52.9020280232792 10.680617533829132, 52.20088963966391 9.976833656364153, 51.139294678155004 8.740392622275202 M51.139294678155004 8.740392622275202 C50.74491769965779 8.392944576174687, 50.029067849043685 7.995309309230157, 49.71262171594108 7.407986174438362 M51.139294678155004 8.740392622275202 C50.778776066557434 8.330477235465654, 50.28700273781973 8.042266502413819, 49.71262171594108 7.407986174438362 M49.71262171594108 7.407986174438362 C48.99831986312023 6.279230494337759, 48.7108624375674 6.017358831613372, 46.627466290273595 5.044253675052149 M49.71262171594108 7.407986174438362 C48.34857551986354 6.64807140016685, 47.293970698600965 5.76114552432491, 46.627466290273595 5.044253675052149 M46.627466290273595 5.044253675052149 C45.69736068959486 4.3268570862889435, 44.186632671325 3.3253649363459123, 43.269615027791076 3.1029959139294494 M46.627466290273595 5.044253675052149 C45.54705399582402 4.373130750708034, 44.36410863969907 4.024733832649174, 43.269615027791076 3.1029959139294494 M43.269615027791076 3.1029959139294494 C42.266344757275164 2.7987614501455265, 41.727067378761184 2.5520786531299295, 41.5020722695584 2.2986828889220003 M43.269615027791076 3.1029959139294494 C42.70492519346752 2.7989510393757566, 41.90761000812737 2.6205430939411634, 41.5020722695584 2.2986828889220003 M41.5020722695584 2.2986828889220003 C39.922254012380925 1.7639127985661471, 39.1004786755194 0.8015556730073183, 37.81704012273855 1.038464207425065 M41.5020722695584 2.2986828889220003 C40.80463023434108 1.9528224947561483, 39.47031545031657 1.7526824857299887, 37.81704012273855 1.038464207425065 M37.81704012273855 1.038464207425065 C37.07516727764727 0.7949119915226924, 36.21946536689364 0.8476540886599493, 35.910465783602746 0.588868813899649 M37.81704012273855 1.038464207425065 C37.2336095325316 0.8852251778339099, 36.54496158604592 0.7792919008249252, 35.910465783602746 0.588868813899649 M35.910465783602746 0.588868813899649 C34.828669251879354 0.09769367222044284, 34.1480374795927 0.4708324789550535, 31.9964881975078 0.0664815787050832 M35.910465783602746 0.588868813899649 C35.15144070177543 0.47210666729083794, 33.85940210145326 0.09506835474496306, 31.9964881975078 0.0664815787050832 M31.9964881975078 0.0664815787050832 C31.1244487865996 0.2015149635185382, 30.571680153126195 0.05968182557181593, 30 0 M31.9964881975078 0.0664815787050832 C31.251466006329334 0.059886104783038116, 30.86693157195687 -0.10401330442769988, 30 0 M30 0 C29.293228133000888 -0.11005681605491871, 28.266879450942657 -0.021317307488192022, 27.863703547297295 0.07232666015625 M30 0 C29.10674100049662 0.017910352554707215, 28.268269332587266 0.08689047022419397, 27.863703547297295 0.07232666015625 M27.863703547297295 0.07232666015625 C26.17988018281859 0.28211247313013, 24.84784545467372 0.28151363107917576, 23.755806587837842 0.63446044921875 M27.863703547297295 0.07232666015625 C26.68578827608661 0.45758078292004906, 25.821075662298192 0.35470064921283495, 23.755806587837842 0.63446044921875 M23.755806587837842 0.63446044921875 C23.309421997853974 0.90173054268147, 22.372969772431023 1.1378131233230286, 21.790540540540544 1.11328125 M23.755806587837842 0.63446044921875 C23.16185588391592 0.8487016147281211, 22.252630200537855 0.9515197831779532, 21.790540540540544 1.11328125 M21.790540540540544 1.11328125 C20.46627579689591 1.781115604992144, 19.376315078800157 2.2222913920211655, 18.05320945945946 2.43896484375 M21.790540540540544 1.11328125 C20.77982110134963 1.5534093897195618, 20.090306003155845 1.49790727606004, 18.05320945945946 2.43896484375 M18.05320945945946 2.43896484375 C17.522567895499062 3.0297301181416274, 16.700859389607725 2.937778241250105, 16.287478885135137 3.27484130859375 M18.05320945945946 2.43896484375 C17.370611792527736 2.620119208556113, 16.79542255192909 2.8424112723176043, 16.287478885135137 3.27484130859375 M16.287478885135137 3.27484130859375 C15.335545841862906 3.585332337540884, 14.039090866923331 4.906207771902338, 12.977723817567568 5.26519775390625 M16.287478885135137 3.27484130859375 C15.478813027463667 3.7836763215982194, 14.903949241865693 4.16183605718045, 12.977723817567568 5.26519775390625 M12.977723817567568 5.26519775390625 C12.685596768056888 5.69460885074155, 12.192264852505536 5.936769828960122, 11.440033783783786 6.4086914062500036 M12.977723817567568 5.26519775390625 C12.47312310238393 5.536617117157487, 11.893455894856833 6.0876486290133665, 11.440033783783786 6.4086914062500036 M11.440033783783786 6.4086914062500036 C10.930623833441015 7.302391460751433, 9.037238629827193 7.615252859924944, 8.614864864864863 8.964843750000004 M11.440033783783786 6.4086914062500036 C10.501941631004117 7.3704740884210675, 9.961977355291527 7.765188786664311, 8.614864864864863 8.964843750000004 M8.614864864864863 8.964843750000004 C8.118625401330492 9.389985017905914, 8.03479424442191 9.423575650292936, 7.333720439189191 10.366516113281254 M8.614864864864863 8.964843750000004 C8.163437502391242 9.4744692971544, 7.785198107566967 9.792887271765922, 7.333720439189191 10.366516113281254 M7.333720439189191 10.366516113281254 C6.293985724377992 10.90769275145421, 5.82187677749766 11.536935643206586, 5.050147804054054 13.389587402343754 M7.333720439189191 10.366516113281254 C6.726797913242498 11.23993085379355, 5.852006228706022 12.340944324985161, 5.050147804054054 13.389587402343754 M5.050147804054054 13.389587402343754 C4.418788970486342 14.31442375924682, 4.290071629618496 15.004599661879896, 3.159311655405406 16.66900634765625 M5.050147804054054 13.389587402343754 C4.3941255708936025 14.134164818061143, 4.106576022257753 15.068970922544118, 3.159311655405406 16.66900634765625 M3.159311655405406 16.66900634765625 C2.781257471838392 17.29448260734176, 2.823970274529114 17.350983294686657, 2.369087837837838 18.39111328125 M3.159311655405406 16.66900634765625 C2.9010903997512085 17.181813919932296, 2.406192131683327 17.88060555677464, 2.369087837837838 18.39111328125 M2.369087837837838 18.39111328125 C1.7736971695785748 19.366196565580736, 1.5956279757139966 19.522104635508992, 1.1148648648648638 21.97265625 M2.369087837837838 18.39111328125 C2.136876732366664 19.255658372336136, 1.6800787684878271 20.368441648015637, 1.1148648648648638 21.97265625 M1.1148648648648638 21.97265625 C0.8220495785317126 22.658164492349968, 0.9105696718686538 23.29483567447837, 0.6572001689189153 23.82110595703125 M1.1148648648648638 21.97265625 C1.0271367236267825 22.43063973402674, 0.8876008101233201 22.763248831248244, 0.6572001689189153 23.82110595703125 M0.6572001689189153 23.82110595703125 C-0.043947583147867064 25.27902325586062, 0.8286998678113813 25.651542860739546, 0.0966005067567532 27.60589599609375 M0.6572001689189153 23.82110595703125 C0.3249600037326512 25.56171320880177, 0.5032489757033776 26.720339757234754, 0.0966005067567532 27.60589599609375 M0.0966005067567532 27.60589599609375 C-0.18148588793076825 28.24542938821536, 0.2071323460225819 28.833370085658128, 0 29.53125 M0.0966005067567532 27.60589599609375 C0.10169371028068151 28.100504750284724, -0.11208841853480908 28.792018480292892, 0 29.53125 M0 29.53125 C-0.20899569770313825 30.553738693983355, 0.07312123140824373 31.18299309207242, 0.19003378378378133 33.42041015625 M0 29.53125 C0.31982849761041765 31.130593512436942, 0.38974940439365235 32.0038676061696, 0.19003378378378133 33.42041015625 M0.19003378378378133 33.42041015625 C0.5937756568973709 33.78635177351735, 0.3429144379537841 34.79536108171791, 0.48300253378377933 35.37322998046875 M0.19003378378378133 33.42041015625 C0.30619006739114124 34.17585794878789, 0.42960143575133236 34.989394658613215, 0.48300253378377933 35.37322998046875 M0.48300253378377933 35.37322998046875 C0.12637124436038005 36.33426178714543, 0.5664767094734673 36.97411337565476, 1.4806798986486454 39.26788330078125 M0.48300253378377933 35.37322998046875 C0.8493216873150317 36.55860582013113, 1.1212853641366116 38.259517892748526, 1.4806798986486454 39.26788330078125 M1.4806798986486454 39.26788330078125 C1.6623547979627535 39.62608366597289, 1.5302002779332713 40.23427597583796, 2.191722972972967 41.19873046875 M1.4806798986486454 39.26788330078125 C1.772596311296364 39.884370926259365, 1.9407979059384783 40.087608319582806, 2.191722972972967 41.19873046875 M2.191722972972967 41.19873046875 C2.5235558531427373 41.757181954890605, 2.566849991738429 42.3896543352279, 3.0484586148648587 43.11126708984375 M2.191722972972967 41.19873046875 C2.2983084241559206 41.82172640138241, 2.6826510880746968 42.24830947545486, 3.0484586148648587 43.11126708984375 M3.0484586148648587 43.11126708984375 C3.6805630825917532 44.25135181337013, 4.622286838276654 44.96353624012754, 5.1097957343907225 46.698088819423745 M3.0484586148648587 43.11126708984375 C3.8381992544400907 44.43016016868932, 4.331255261918921 45.53837995552215, 5.1097957343907225 46.698088819423745 M5.1097957343907225 46.698088819423745 C5.33206186095634 47.01010792313503, 5.63964402196054 48.081378405218814, 6.266456522285226 48.30948974317382 M5.1097957343907225 46.698088819423745 C5.37802718149348 46.98440237672048, 5.617128110703536 47.42663120166719, 6.266456522285226 48.30948974317382 M6.266456522285226 48.30948974317382 C6.907760659299613 48.923420181193464, 8.715857495566702 50.83185892279916, 8.860705321845005 51.259607377724805 M6.266456522285226 48.30948974317382 C6.695772425412331 49.2258557838787, 7.291715439481839 49.68737925652574, 8.860705321845005 51.259607377724805 M8.860705321845005 51.259607377724805 C9.492380360465765 51.775616018476924, 10.022863775438907 52.12335661616699, 10.287378284058924 52.592013825561644 M8.860705321845005 51.259607377724805 C9.33153718216442 51.871696063760936, 9.927756462647373 52.260627540849754, 10.287378284058924 52.592013825561644 M10.287378284058924 52.592013825561644 C10.936616903316658 53.484831451061126, 11.935776844363748 54.3457813513658, 13.372533709726412 54.95574632494785 M10.287378284058924 52.592013825561644 C10.813877383522668 53.20374680251401, 11.869205937853913 53.9427604320379, 13.372533709726412 54.95574632494785 M13.372533709726412 54.95574632494785 C14.517650953080476 55.63123044578408, 16.248983619035034 56.838556655712225, 16.73038497220892 56.89700408607055 M13.372533709726412 54.95574632494785 C14.467418523183161 55.7744458527882, 15.256109554639247 56.0788011607029, 16.73038497220892 56.89700408607055 M16.73038497220892 56.89700408607055 C17.377778838933118 57.10254020775747, 17.67621900332877 57.33119167160463, 18.497927730441603 57.701317111078005 M16.73038497220892 56.89700408607055 C17.259493360716217 57.24177942122199, 17.85831218269258 57.35905556247968, 18.497927730441603 57.701317111078005 M18.497927730441603 57.701317111078005 C20.293607134585404 58.21589907699568, 21.90587953394144 58.9663863174188, 22.18295987726145 58.961535792574935 M18.497927730441603 57.701317111078005 C19.831964779433232 58.104170954845635, 20.4193461750437 58.56668253243718, 22.18295987726145 58.961535792574935 M22.18295987726145 58.961535792574935 C22.78738021537355 59.28516137098083, 23.596530608693996 59.205411856955344, 24.089534216397247 59.411131186100356 M22.18295987726145 58.961535792574935 C22.941504275094974 59.167779770830606, 23.445156402141585 59.18299334292768, 24.089534216397247 59.411131186100356 M24.089534216397247 59.411131186100356 C26.11254515844881 59.56331940891725, 27.04425485375487 59.600143159628956, 28.003511802492206 59.93351842129492 M24.089534216397247 59.411131186100356 C24.840906004749037 59.671530401278766, 25.76535470663429 59.978142803832895, 28.003511802492206 59.93351842129492 M28.003511802492206 59.93351842129492 C28.63123878312087 59.887162180285806, 29.118876536654582 59.90016907640401, 30 60 M28.003511802492206 59.93351842129492 C28.38326540197113 60.012417154511155, 28.817659309261874 59.84025014116112, 30 60 M30 60 C30 60, 30 60, 30 60 M30 60 C30 60, 30 60, 30 60" stroke="#000000" stroke-linecap="round" stroke-linejoin="round"></path>
    </g>
  </svg>