<svg xmlns="http://www.w3.org/2000/svg" width="100%" height="100%" viewBox="0 0 60 60">
    <g>
      <path d="M32.80682988303448 0.4657547659136021 L34.47361132975841 21.56712131410609 L58.608202818175634 21.711161040817807 L42.72012176729384 38.26219308915407 L46.71583076798428 61.96950831758851 L27.907576047299383 43.18423150182259 L11.704128388014178 61.202913980002776 L19.95004561767635 39.64221996716589 L-1.4200991994504568 23.14657949079866 L25.210562732245815 23.518693020172194 L29.845304481142406 -2.8756990638567794"></path>
      <path d="M30 0 C30.43478425350604 8.172869360057366, 33.59910767168465 16.253987071977033, 37.08193590460221 22.917945473260744 M30 0 C32.40557109050614 6.6167353989034945, 34.17380593176813 10.636330359558535, 37.08193590460221 22.917945473260744 M37.08193590460221 22.917945473260744 C45.52754928648286 21.882103789209822, 51.64758239474142 21.322997177031493, 60 22.917945473260744 M37.08193590460221 22.917945473260744 C44.165396038177676 22.726825612543706, 51.3754991556717 23.894444496625198, 60 22.917945473260744 M60 22.917945473260744 C54.739329977212186 24.495482272118576, 46.4912747313591 33.337340217202595, 41.45891559530465 37.082054526739256 M60 22.917945473260744 C54.567634558729424 27.73778474035602, 46.366044835276874 32.355279799917184, 41.45891559530465 37.082054526739256 M41.45891559530465 37.082054526739256 C45.482919620478 40.43056429980061, 46.404101670291276 45.14868576692639, 48.54108440469535 60 M41.45891559530465 37.082054526739256 C44.03413843092459 46.01596168879399, 47.98264172444243 55.896021497686924, 48.54108440469535 60 M48.54108440469535 60 C46.055011344306926 53.86570086675876, 40.37087683850154 49.453737366838496, 30 45.83589094652149 M48.54108440469535 60 C41.2784734632021 55.3958461462397, 36.20831876715357 52.273086590443114, 30 45.83589094652149 M30 45.83589094652149 C25.783194257556612 50.92383879536573, 21.11208276748778 53.81489106691369, 11.458915595304651 60 M30 45.83589094652149 C24.644595093794905 48.88844165132488, 19.737334414383596 54.66127291665921, 11.458915595304651 60 M11.458915595304651 60 C13.097427438539867 52.593830529081714, 16.715600216279057 45.15507388031602, 18.54108440469535 37.082054526739256 M11.458915595304651 60 C14.774796616054967 52.84912100339683, 18.04416718579457 44.181419481922596, 18.54108440469535 37.082054526739256 M18.54108440469535 37.082054526739256 C10.647984464576457 30.62563526398304, 2.843403410163142 29.467958796991006, 0 22.917945473260744 M18.54108440469535 37.082054526739256 C12.452318206345657 31.497753875861193, 6.095253291690561 27.61356942927806, 0 22.917945473260744 M0 22.917945473260744 C5.174914458592314 24.944712483813436, 13.079175036720532 26.032437909185617, 22.917831190609274 22.917945473260744 M0 22.917945473260744 C5.451171915285053 22.73229909658614, 11.213002748458804 22.622008278039345, 22.917831190609274 22.917945473260744 M22.917831190609274 22.917945473260744 C27.74366186861948 11.207831579663505, 27.86101921428194 6.4663755549892015, 30 0 M22.917831190609274 22.917945473260744 C26.50618002458224 15.265726046321625, 26.879797518572182 7.530593913955101, 30 0 M30 0 C30 0, 30 0, 30 0 M30 0 C30 0, 30 0, 30 0" stroke="#000000" stroke-linecap="round" stroke-linejoin="round"></path>
    </g>
  </svg>