<?xml version="1.0" encoding="UTF-8"?>
<svg viewBox="0 0 646.18 5217.8" >
  <defs>
    <style>
      .cls-1 {
        /* reflection 1 */
        filter: brightness(2);
      }

      .dark-wax .cls-1 {
        /* reflection 1 */
        filter: invert(30%) brightness(2) !important;
      }

      .bright-wax .cls-1 {
        filter: brightness(1.2) !important;
      }

      .cls-2 {
        fill: #fff;
        mix-blend-mode: soft-light;
        opacity: .25;
      }

      .cls-3 {
        isolation: isolate;
      }

      .cls-4 {
        /* reflection 2 */
        filter: brightness(1.5);
      }

      .dark-wax .cls-4 {
        /* reflection 2 */
        filter: invert(10%) brightness(1.5) !important;
      }

      .bright-wax .cls-4 {
        /* reflection 2 */
        filter: brightness(1.2) !important;
      }


      .cls-5 {
        /* wrapper */
        filter: saturate(20%) brightness(1.5);
      }

      .dark-wax .cls-5 {
        filter: invert(25%) grayscale(80%) !important;
      }

      .bright-wax .cls-5 {
        filter: saturate(30%) brightness(0.75) !important;
      }


      .cls-6 {
        /* wax */
      }

      .bright-wax .cls-6 {
        /* wax */
        filter: grayscale(0.2) brightness(0.85);
      }

      .cls-7 {
        /* stripes */
        filter: brightness(0.2);
      }
    </style>
  </defs>
  <g class="cls-3">
    <g id="Vectors">
      <g>
        <path class="cls-6" d="M392.49,26.61C388.47,10.95,374.37,0,358.2,0h-35.13s-35.13,0-35.13,0c-16.16,0-30.27,10.95-34.28,26.61L42.91,812.43v11.78s0,50.48,0,50.48h280.17s280.17,0,280.17,0v-50.48s0-11.78,0-11.78L392.49,26.61Z"/>
        <path class="cls-4" d="M599.41,798.13L392.49,26.61C388.47,10.95,374.37,0,358.2,0h0l96.13,798.13h145.08Z"/>
        <path class="cls-6" d="M629.35,5217.79H16.84c-9.29,0-16.83-7.53-16.83-16.82l-.02-4371.71c0-9.29,7.53-16.83,16.83-16.83h612.5c9.29,0,16.83,7.53,16.83,16.82l.02,4371.71c0,9.29-7.53,16.83-16.83,16.83Z"/>
        <path class="cls-4" d="M.36,5204.33c1.56,7.68,8.35,13.46,16.49,13.46h612.5c8.14,0,14.93-5.78,16.49-13.46H.36Z"/>
        <path class="cls-4" d="M629.33,812.43H16.83C7.53,812.43,0,819.96,0,829.26h646.16c0-9.3-7.53-16.83-16.83-16.83Z"/>
        <path class="cls-4" d="M505.44,829.26l.02,4371.71c0,9.29-7.53,16.83-16.83,16.83h140.72c9.29,0,16.83-7.53,16.83-16.83l-.02-4371.71c0-9.29-7.53-16.83-16.82-16.83h-140.72c9.29,0,16.83,7.53,16.83,16.83Z"/>
        <path class="cls-1" d="M600.39,812.43h-57.1c9.29,0,16.83,7.53,16.83,16.83v2662s.01,13.98.01,13.98v1695.73c0,9.29-7.53,16.83-16.82,16.83h57.1c9.29,0,16.83-7.53,16.83-16.83v-1695.73s0-13.98,0-13.98V829.26c-.01-9.29-7.54-16.83-16.84-16.83Z"/>
        <rect class="cls-5" x="0" y="1023.9" width="646.16" height="3982.43"/>
        <g>
          <g>
            <rect class="cls-7" x="0" y="1247.23" width="646.16" height="108.53"/>
            <rect class="cls-7" x="0" y="1439.06" width="646.16" height="108.53"/>
          </g>
          <g>
            <rect class="cls-7" x=".01" y="4482.63" width="646.16" height="108.53"/>
            <rect class="cls-7" x=".02" y="4674.46" width="646.16" height="108.53"/>
          </g>
        </g>
        <path class="cls-6" d="M323.09,4129.14h0c-98.97,0-179.21-80.23-179.21-179.21v-1772.08c0-98.97,80.23-179.21,179.2-179.21h0c98.97,0,179.21,80.23,179.21,179.21v1772.08c0,98.97-80.23,179.21-179.2,179.21Z"/>
        <path class="cls-1" d="M387.58,36.66c-.11-.7-1.15-.59-1.11.12l128.93,761.35h58.4S387.58,36.66,387.58,36.66Z"/>
        <rect class="cls-2" x="505.45" y="1023.9" width="140.72" height="3982.43"/>
        <polygon class="cls-2" points="560.12 1023.9 560.13 3491.25 560.13 3505.23 560.13 5006.33 617.23 5006.33 617.22 3505.23 617.22 3491.25 617.21 1023.9 560.12 1023.9"/>
      </g>
    </g>
  </g>
</svg>