<?xml version="1.0" encoding="UTF-8"?>
<svg id="Layer_1" xmlns="http://www.w3.org/2000/svg" viewBox="0 0 20.56 24">
  <defs>
    <style>
      .cls-1 {
        fill: none;
        stroke-linecap: round;
        stroke-linejoin: round;
        stroke-width: 1.26px;
        stroke:currentColor;
      }
    </style>
  </defs>
  <path class="cls-1" d="M4.47,11.39v3.18M4.47,11.39V3.81c0-1.06.86-1.92,1.92-1.92s1.92.86,1.92,1.92M4.47,11.39c0-1.06-.86-1.87-1.92-1.87s-1.92.86-1.92,1.87v2.53c0,5.25,4.35,9.45,9.65,9.45s9.65-4.24,9.65-9.45v-6.32c0-1.06-.86-1.92-1.92-1.92s-1.92.86-1.92,1.92M8.36,3.81v6.97M8.36,3.81v-1.26c0-1.06.86-1.92,1.92-1.92s1.92.86,1.92,1.92v1.26M12.2,3.81v6.97M12.2,3.81c0-1.06.86-1.92,1.92-1.92s1.92.86,1.92,1.92v3.79M16.09,7.6v3.18"/>
</svg>
