<?xml version="1.0" encoding="UTF-8" standalone="no"?>
<!DOCTYPE svg PUBLIC "-//W3C//DTD SVG 1.1//EN" "http://www.w3.org/Graphics/SVG/1.1/DTD/svg11.dtd">
<svg width="100%" height="100%" viewBox="0 0 451 650" version="1.1" xmlns="http://www.w3.org/2000/svg" xmlns:xlink="http://www.w3.org/1999/xlink" xml:space="preserve" xmlns:serif="http://www.serif.com/" style="fill-rule:evenodd;clip-rule:evenodd;stroke-linejoin:round;stroke-miterlimit:2;">
    <g transform="matrix(1,0,0,1,-280.065,-22.2072)">
        <g id="react-group-82">
            <g transform="matrix(0.208569,0.978008,-0.978008,0.208569,676.786,-233.911)">
                <path d="M311.288,287.209L278.361,224.249L283.064,167.803L327.932,108.461L406.089,61.784C437.239,56.191 468.248,55.089 499.081,59.613C515.004,66.327 531.511,75.614 549.015,89.284C564.99,119.396 575.905,140.473 583.027,154.776C581.939,161.189 580.24,167.051 569.278,164.546C559.899,162.239 553.86,153.53 548.291,143.921C534.435,143.62 528.979,151.327 528.719,163.99C527.873,201.471 530.049,214.671 519.706,224.611L451.948,226.058L464.345,278.163C466.656,290.522 462.917,299.624 448.786,303.13L427.274,301.77L395.573,296.398L359.05,310.728L337.027,313.244L311.288,287.209Z" style="fill:rgb(106,88,242);"/>
            </g>
            <g id="react-group-83" transform="matrix(0.208569,0.978008,-0.978008,0.208569,676.786,-233.911)">
                <path id="react-path-86" d="M532.63,152.72C533.818,150.211 545.472,145.911 545.818,143.66C550.649,148.722 562.102,162.989 566.392,168.488C570.507,173.764 574.212,179.977 577.772,185.523C579.544,188.285 639.526,271.099 639.526,271.099C639.526,271.099 666.68,332.581 673.313,345.612L682.291,355.352C699.794,392.768 717.128,420.167 740.139,454.485C745.567,462.58 747.124,472.243 752.143,480.569C757.186,488.938 763.471,496.355 769.049,504.356C774.787,512.588 780.039,521.156 785.823,529.35C790.436,535.885 796.074,542.841 796,551.268C795.965,555.013 795.761,561.141 792.151,563.154C789.733,563.164 788.659,563.414 788.102,563.793C785.69,565.434 783.117,564.038 780.517,563.465C776.299,562.534 777.311,562.92 773.409,560.522C765.132,555.437 756.975,550.209 748.549,545.356C730.339,534.869 712.31,524.131 695.417,511.597C665.886,489.686 633.068,467.73 600.583,450.339C562.175,429.776 582.347,438.646 550.166,420.431C548.008,419.21 505.064,396.826 505.633,393.913C506.133,391.362 447.529,372.924 439.042,362.714C432.982,355.423 391.026,339.436 382.746,334.823C379.094,332.788 359.418,318.468 355.653,316.64C352.147,314.937 390.59,303.383 387,301.892C400.183,297.962 414.069,303.111 426.546,307.195C433.022,309.314 439.795,311.521 446.709,310.951C452.689,310.459 458.116,307.257 462.846,303.76C471.396,297.438 472.068,287.943 469.279,278.346C466.071,267.3 461.164,256.677 457.456,245.782C455.77,240.826 454.608,235.563 458.447,231.281C461.882,227.449 466.327,226.978 471.015,228.486C482.383,232.144 492.467,235.579 504.653,235.231C514.18,234.96 526.298,232.256 532.717,224.514C536.235,220.27 536.369,214.435 536.383,209.171C536.401,202.932 536.007,196.658 535.134,190.482C533.576,179.462 527.561,163.42 532.63,152.72ZM245.972,231.043C250.165,225.64 268.113,218.477 271.904,221.942C274.086,224.964 275.497,233.621 276.751,237.333C277.994,241.011 281.329,244.578 283.296,247.952C284.818,250.561 288.248,257.527 287.986,260.79L287.986,269.119C287.676,272.356 281.625,278.147 279.497,280.336C274.213,285.775 269.688,289.203 261.858,288.509C255.224,287.921 244.584,284.951 240.093,279.678C235.783,274.619 235.806,266.514 233.675,260.624C230.36,251.467 239.724,239.095 245.972,231.043ZM267.52,236.294C266.306,234.038 263.649,233.481 261.314,233.748C258.98,234.015 256.302,234.211 254.162,235.252C252.186,236.214 251.186,237.899 248.722,237.333C249.698,239.015 247.95,239.986 247.698,241.501C247.374,243.447 248.002,245.191 249.288,246.669C251.949,249.727 255.925,249.668 259.624,249.966C262.751,250.218 266.598,250.736 268.436,253.666C269.621,255.556 268.546,256.917 269.101,258.815C269.51,260.214 271.218,261.017 271.965,262.218C274.468,258.533 274.381,250.641 272.854,246.701C272.133,244.84 270.769,242.417 269.689,240.783C269.335,240.247 268.5,239.609 268.278,239.167C267.894,238.404 267.94,237.073 267.52,236.294Z" style="fill:rgb(255,97,97);"/>
                <g id="react-group-84" transform="matrix(1,0,0,1,195,47.4761)">
                    <path id="react-path-87" d="M360.272,101.647C362.602,104.798 365.235,107.706 368.021,110.459C370.897,113.3 372.121,112.672 375.561,111.194C382.401,108.255 382.27,104.855 378.451,98.961C369.595,85.291 366.235,69.012 356.864,55.621C347.63,42.428 334.2,31.768 320.1,24.161C304.969,15.997 288.572,13.399 271.517,13.643C262.801,13.768 254.03,14.369 245.369,15.346C236.943,16.295 229.449,19.06 221.293,21.147C217.187,22.198 212.953,23.07 208.961,24.513C205.459,25.779 202.31,27.735 198.772,28.918C191.026,31.506 183.23,34.399 176.242,38.632C169.409,42.771 163.253,47.186 157.047,52.267C150.62,57.53 145.038,63.646 138.088,68.266C131.761,72.474 126.729,78.142 120.992,83.072C114.998,88.224 109.47,94.536 104.973,101.045C100.576,107.411 98.903,115.647 96.247,122.825C93.155,131.179 90.088,140.111 88.923,148.969C86.753,165.475 91.624,184.768 97.818,200.043C103.945,215.151 111.312,229.559 123.16,240.621C128.935,246.015 135.469,258.283 142.529,261.89C148.569,264.976 158.775,261.35 165.349,257.473C168.011,255.903 170.172,254.078 173.249,253.371C176.613,252.599 186.035,245.823 189.065,244.558C192.658,243.057 196.907,242.784 200.754,242.796C209.393,242.825 218.037,244.987 226.282,247.385C233.838,249.582 240.161,252.895 248.188,250.888C254.153,249.396 263.72,245.429 265.006,238.591C266.155,232.479 261.72,224.578 259.487,219.108C256.4,211.551 253.604,204.115 251.665,196.17C250.128,189.874 247.715,179.801 252.053,174.046C256.315,168.392 266.171,168.46 272.294,169.882C276.307,170.814 279.996,172.691 284.011,173.637C288.101,174.601 292.333,175.085 296.505,175.558C310.964,177.193 331.534,173.496 330.764,155.02C330.079,138.553 321.005,122.046 326.319,105.559C328.484,98.838 332.908,91.067 340.275,89.293C346.118,87.885 354.015,89.361 359.169,92.417C363.306,94.87 367.405,100.007 360.272,101.647M69.917,175.198C55.343,178.042 45.704,193.405 43.033,207.028C41.822,213.201 41.395,220.553 43.736,226.526C46.434,233.412 54.061,236.286 60.791,237.73C68.484,239.381 75.301,238.736 81.4,233.402C84.081,231.057 86.352,228.325 88.279,225.34C90.249,222.287 92.989,220.063 91.008,216.651C86.097,208.197 81.907,199.892 78.673,190.592C77.23,186.442 75.947,182.387 74.989,178.113C74.229,174.719 73.861,172.647 69.917,175.198M443.634,233.694C440.107,224.888 398.297,170.047 394.961,161.172C393.986,158.577 377.642,132.778 375.115,130.138C368.728,123.465 363.729,115.656 357.74,108.654C356.306,106.979 354.841,105.308 353.735,103.387C353.034,102.168 352.62,100.07 350.993,99.725C348.193,99.13 344.285,103.971 342.877,105.735C332.567,118.639 339.943,136.214 341.199,150.761C341.838,158.169 343.275,167.05 339.989,174.026C336.894,180.599 329.058,183.88 322.455,185.71C313.548,188.178 303.982,188.069 294.919,186.571C290.172,185.786 285.616,184.445 281.122,182.747C276.525,181.01 271.743,178.021 267.057,181.174C261.009,185.245 262.878,193.411 264.206,199.363C266.376,209.087 270.165,218.156 273.517,227.496C276.332,235.342 278.611,245.184 272.693,252.204C266.782,259.215 256.979,263.603 247.855,263.239C228.939,262.485 220.212,251.121 200.882,256.89C196.502,258.197 173.648,266.159 174.309,270.046C175.019,274.219 194.031,281.231 198.19,283.538C206.173,287.967 227.364,299.426 235.166,304.171C242.216,308.458 282.008,327.006 306.86,340.471C332.231,354.218 365.773,371.643 377.356,381.757C388.688,391.652 420.464,405.209 432.396,414.411C444.656,423.864 457.501,432.592 470.099,441.587C482.709,450.591 494.979,460.064 507.574,469.08C519.883,477.89 533.096,485.443 546.043,493.265C552.815,497.358 559.623,501.391 566.427,505.431C571.929,508.698 577.9,513.775 584.423,514.188C590.3,514.56 595.874,516.723 599.387,510.333C602.053,505.482 600.949,498.809 598.614,494.096C595.765,488.345 591.307,483.057 587.725,477.734C583.607,471.614 579.785,465.316 575.72,459.165C571.823,453.266 567.491,447.821 563.143,442.263C558.735,436.627 555.39,430.275 551.461,424.308C543.064,411.551 534.43,399.025 526.469,385.983C508.211,356.071 491.859,325.192 476.233,293.849C474.856,291.087 442.735,234.185 443.634,233.694M162.288,276.829C157.666,277.159 146.094,279.671 139.826,276.183C133.557,272.694 125.903,266.676 122.877,261.115C120.968,257.607 114.128,244.71 111.257,241.936C109.153,239.905 107.016,235.484 104.139,234.415C101.259,233.346 99.341,236.562 97.335,238.286C94.207,240.973 91.211,244.065 87.803,246.394C81.691,250.572 74.113,249.79 67.21,248.456C60,247.061 53.313,244.606 47.165,240.555C44.723,238.945 41.87,235.676 38.863,235.414C35.651,235.135 32.161,238.328 29.865,240.245C23.872,245.25 22.073,253.024 18.582,259.748C14.684,267.257 13.028,275.05 14.089,283.492C15.043,291.086 17.968,296.824 22.319,302.958C23.219,304.227 25.326,306.624 23.786,308.027C21.902,309.744 18.042,306.301 16.777,305.189C4.212,294.138 -2.929,277.487 1.149,260.818C3.339,251.867 7.622,243.587 12.596,235.886C14.711,232.61 16.774,229.334 20.452,227.664C24.639,225.763 29.383,225.989 33.855,225.533C30.762,210.391 29.794,193.914 39.299,180.717C46.593,170.59 61.531,161.729 73.369,169.941C72.884,158.777 71.293,148.177 74.264,137.185C75.595,132.26 77.419,127.466 79.661,122.882C81.857,118.39 84.89,114.58 86.664,109.904C93.664,91.458 107.094,74.981 121.44,61.742C135.941,48.36 150.17,32.034 168.435,23.662C187.492,14.926 206.899,7.076 227.561,3.107C249.006,-1.013 271.049,-1.859 292.653,2.042C311.591,5.461 329.118,16.96 343.448,29.356C359.8,43.501 370.357,60.553 378.707,80.306C380.542,84.645 382.311,89.021 384.561,93.168C387.057,97.769 390.263,102.048 392.099,106.985C393.736,111.388 394.011,116.165 391.096,120.099C389.046,122.865 384.84,123.489 383.048,126.019C382.142,127.295 407.012,163.476 409.001,163.857C411.056,164.249 438.489,205.23 441.092,208.612C447.214,216.565 452.702,224.315 457.021,233.309C466.375,252.785 476.791,271.692 486.798,290.831C507.177,329.806 529.448,367.284 552.808,404.538C564.382,422.995 576.314,441.137 588.686,459.07C594.146,466.983 599.622,474.901 604.962,482.895C609.501,489.687 613.98,497.252 612.812,505.73C611.743,513.493 607.131,519.728 599.673,522.267C595.677,523.628 590.932,525.196 586.655,524.778C581.978,524.321 577.851,521.192 573.953,518.843C556.037,508.046 538.119,497.26 520.192,486.483C500.143,474.43 481.807,460.119 462.679,446.718C452.946,439.9 442.91,433.755 432.769,427.583"/>
                    <path id="react-path-95" d="M395.828,324.459C402.137,325.095 408.467,325.417 414.801,325.612C420.148,325.776 422.344,324.765 423.027,319.208C423.836,312.62 424.112,305.973 424.921,299.382C425.288,296.388 428.192,290.404 424.694,288.802C421.762,287.459 417.188,289.383 414.118,289.609C410.697,289.861 405.535,288.818 402.511,290.846C399.278,293.014 399.982,300.606 399.431,304.169C398.381,310.962 397.115,317.709 395.828,324.459M392.818,292.462C387.1,292.894 381.363,293.234 375.661,293.844C373.123,294.115 367.987,295.371 365.848,293.524C360.826,289.191 379.592,287.67 381.721,287.328C385.309,286.752 391.449,287.517 393.749,284.13C396.024,280.78 395.449,275.151 396.037,271.262C396.922,265.409 397.934,259.564 398.525,253.673C398.723,251.693 398.44,245.152 400.531,244.18C405.337,241.946 403.827,264.967 403.748,266.695C403.613,269.666 403.464,272.651 403.05,275.597C402.817,277.258 401.996,279.504 402.502,281.172C403.951,285.955 412.183,283.196 415.933,282.815C420.135,282.387 426.624,284.015 428.015,278.83C429.763,272.314 429.509,264.914 430.157,258.21C430.336,256.356 430.804,242.51 434.221,243.583C438.036,244.782 436.547,256.352 436.512,259.331C436.473,262.693 436.486,266.057 436.258,269.413C436.054,272.427 435.204,276.123 435.833,279.11C436.936,284.347 443.145,281.562 444.947,285.728C446.659,289.687 437.325,286.583 435.582,287.943C432.979,289.974 433.605,298.46 433.233,301.431C432.417,307.957 430.85,314.735 430.34,321.242C429.938,326.379 434.068,325.697 438.27,325.325C441.874,325.006 445.833,324.15 449.445,324.631C452.347,325.016 456.402,327.69 452.176,329.469C445.571,332.252 432.12,326.567 428.801,335.018C428.175,336.612 425.262,355.1 421.602,345.973C420.072,342.159 423.818,336.174 419.823,333.251C418.438,332.237 416.375,332.416 414.768,332.303C410.811,332.028 406.829,331.933 402.864,331.851C398.911,331.77 395.359,330.974 393.832,335.304C392.643,338.678 392.775,342.453 391.825,345.905C391.112,348.494 388.772,353.024 386.345,348.79C384.751,346.009 385.971,341.149 386.286,338.126C386.443,336.612 387.346,333.478 386.197,332.207C384.964,330.842 381.664,331.58 380.104,331.704C375.601,332.06 367.215,334.228 363.768,330.144C360.885,326.727 366.879,326.662 369.236,326.431C371.664,326.193 374.093,325.973 376.519,325.718C379.19,325.436 382.726,325.812 385.24,324.975C389.462,323.569 389.161,317.829 389.438,314.106C389.981,306.833 391.617,299.649 392.818,292.462"/>
                </g>
            </g>
            <g transform="matrix(0.208569,0.978008,-0.978008,0.208569,676.786,-233.911)">
                <path d="M311.288,287.209L339.873,303.853L359.05,310.728L395.573,296.398L427.274,301.77L448.786,303.13C462.917,299.624 466.656,290.522 464.345,278.163L451.948,226.058L519.706,224.611C530.049,214.671 527.873,201.471 528.719,163.99C528.979,151.327 534.435,143.62 548.291,143.921C553.86,153.53 559.899,162.239 569.278,164.546C580.24,167.051 581.939,161.189 583.027,154.776C575.905,140.473 564.99,119.396 549.015,89.284C531.511,75.614 515.004,66.327 499.081,59.613C468.248,55.089 437.239,56.191 406.089,61.784L327.932,108.461L283.064,167.803L278.361,224.249L311.288,287.209Z" style="fill:none;"/>
            </g>
        </g>
    </g>
</svg>
