<svg xmlns="http://www.w3.org/2000/svg" width="686.019" height="694.921" viewBox="0 0 686.019 694.921"><g transform="translate(0.001 -1.079)"><g transform="translate(23 99)"><path d="M289.786,596.9h0a16.965,16.965,0,0,1-5.015-.813c-3.008-2.406-3.876-5.3-2.654-8.836,1.07-3.1,3.512-6.193,5.873-9.186a46.317,46.317,0,0,0,3.774-5.228c2.179-3.913,5.468-7.615,8.648-11.195,3.383-3.808,6.88-7.746,9.1-11.98A20.607,20.607,0,0,0,311.75,543a17.68,17.68,0,0,0-.529-7.449c-1.042-6.028-2.272-12.162-3.462-18.1l0-.01c-1.989-9.918-4.045-20.174-5.31-30.332-.681-5.471-1.083-10.47-1.23-15.283a117.929,117.929,0,0,1,.486-15.393,7.366,7.366,0,0,0-1.542-4.75,9.676,9.676,0,0,0-4.023-2.811c-3.321-1.371-7.788-1.885-12.107-2.383-5.152-.593-10.48-1.207-13.675-3.3-13.964-3.569-28.389-9.191-44.1-17.187-14.052-7.152-27.325-15.223-40.816-23.556-2.443.977-2.105,3.043-1.807,4.865.05.3.1.616.136.912.938,7.886,1.412,15.935,1.87,23.72v.01c.5,8.444,1.011,17.175,2.119,25.739,2.077,4.756,1.4,15.169.688,26.193-.89,13.733-1.81,27.933,2.521,32.554a4.7,4.7,0,0,0,3.56,1.536c.113,0,.226,0,.343-.01a4.414,4.414,0,0,1,1.214-.148c2.4,0,6.346,1.27,11.416,3.673a123.344,123.344,0,0,1,15.523,8.963,97.16,97.16,0,0,1,13.956,11.168c4.079,4.065,6.337,7.525,6.713,10.286.4,2.955-1.4,5.009-5.359,6.107a7.2,7.2,0,0,1-2.066.289c-5.172,0-11.844-4.707-18.8-9.952l-1.15-.869-.133-.1c-6.109-4.619-11.88-8.982-15.695-8.982-1.784,0-3.019.939-3.776,2.872-.935,4.032-.547,8.919-.136,14.093.741,9.338,1.507,18.994-6.07,23.291a11.189,11.189,0,0,1-5.459-3.058,13.093,13.093,0,0,1-2.938-5.123c-1.306-3.951-1.493-8.894-1.675-13.674a80.308,80.308,0,0,0-.777-9.905,17.114,17.114,0,0,0-3.1-7.962,27.442,27.442,0,0,0-8.432,4.449c-2.8,2.032-5.639,4.527-8.389,6.94a97.048,97.048,0,0,1-10.749,8.588c-4.1,2.645-7.767,3.931-11.221,3.932a14.575,14.575,0,0,1-6.495-1.571,8.83,8.83,0,0,1-5.394-6.592,10.132,10.132,0,0,1,3.017-9.16c4.726-5.759,12.328-9.8,19.679-13.716,5.41-2.879,11-5.856,15.354-9.477a27.249,27.249,0,0,0,5.531-6.045,19.526,19.526,0,0,0,2.976-7.623c.064-16.729-1.217-33.685-2.456-50.083-.829-10.972-1.686-22.312-2.133-33.482a315.678,315.678,0,0,1,.248-33.556c-.093-13.553-8.979-24.3-17.572-34.691-3.22-3.894-6.55-7.921-9.276-11.964-14.69-16.506-23.66-37.254-27.421-63.429a238.424,238.424,0,0,1-2.145-35.267c.065-12.164.763-24.084,1.509-35.154-1.032-3.354.945-9.327,2.857-15.1a85.87,85.87,0,0,0,2.673-9.14c.625-3.079.524-5.205-.309-6.5a3.605,3.605,0,0,0-2.852-1.572,123.385,123.385,0,0,1-24.335,2.2c-12.379,0-25.147-1.39-37.495-2.734l-.024,0c-12.363-1.345-25.145-2.736-37.57-2.736-1.153,0-2.3.012-3.419.036-.76-.081-1.535-.131-2.355-.184a23.733,23.733,0,0,1-5.747-.836,6.792,6.792,0,0,1-4.233-3.53,16.118,16.118,0,0,1,.441-8.525,22.864,22.864,0,0,1,4.63-7.779,46.145,46.145,0,0,1,8.017-7.073,91.691,91.691,0,0,1,10.6-6.409c15.5-8.121,35.835-14.611,52.175-19.825,9.874-3.151,18.4-5.872,23.653-8.241,5.9-3.694,9.712-9.311,13.748-15.257,5.327-7.848,10.835-15.962,21.634-19.791,4.108-1.455,6.412-3.265,7.045-5.533.525-1.882-.056-4.12-1.83-7.042a86.033,86.033,0,0,0-6.705-8.869A131.144,131.144,0,0,1,124.5,44.271a45.172,45.172,0,0,1-6.467-14.849,16.418,16.418,0,0,1,2.423-6.2,4.118,4.118,0,0,1,3.339-1.886c2.144,0,4.788,1.773,7.861,5.271a84.991,84.991,0,0,1,8.5,12.179c5.5,9.214,10.323,19.441,12.136,23.291l.234.5c.162,1.189,2.159,2.335,5.622,3.227a47.366,47.366,0,0,0,11.124,1.322,30.22,30.22,0,0,0,6.748-.665,7.579,7.579,0,0,0,4.268-2.188,2.879,2.879,0,0,0,.531-2.563c.468-4.313.784-8.7,1.118-13.352v-.011A220.87,220.87,0,0,1,184.7,23.314a79.208,79.208,0,0,1,3.13-11.864A52.211,52.211,0,0,1,193.039.644,9.177,9.177,0,0,1,196.2,0a5.117,5.117,0,0,1,3.987,1.8c2.366,2.679,3.4,8.32,3.165,17.245-.2,7.721-1.319,16.654-2.3,24.535v.006c-1.047,8.392-1.952,15.64-1.425,18.858-.163,2.283-.375,4.086-.545,5.534-.7,5.931-.7,5.931,6.15,8.7,1.111.449,2.367.956,3.837,1.575a11.511,11.511,0,0,0,3.954,1.212c1.393,0,2.222-.919,3.861-3.507a73.6,73.6,0,0,1,14.462-15.719,63.339,63.339,0,0,1,8.793-5.962,52.677,52.677,0,0,1,9.508-4.174,20.22,20.22,0,0,1-1.556,10.156,34.956,34.956,0,0,1-5.824,9.119c-4.707,5.508-10.792,10.248-16.666,14.551a1.749,1.749,0,0,0-1.277,1.051c-1.519,3.592,5.3,15.071,11.309,25.2,3.936,6.63,7.652,12.89,8.2,15.64l-.329-.38c1.069,4.562-.035,11.234-1.1,17.687a84.944,84.944,0,0,0-1.447,11.96,15.188,15.188,0,0,0,.51,4.549,5.183,5.183,0,0,0,1.974,2.931c14.184,9.4,29.415,17.58,44.145,25.49,15.131,8.125,30.778,16.527,45.332,26.274,42.228,21.933,81.456,48.772,117.556,74.508a69.585,69.585,0,0,1,9.327,7.943,62.256,62.256,0,0,0,9.375,7.9,23.587,23.587,0,0,0,5.4,2.593,20.52,20.52,0,0,0,6.3,1.01c6.734.906,9.73,3.751,10.686,10.147a21.786,21.786,0,0,1,1.579,8.731,23.81,23.81,0,0,1-1.71,7.989c-1.991,5.132-5.494,10-8.882,14.716-2.1,2.921-4.271,5.941-6.049,8.981a265.929,265.929,0,0,1-14.842,22.26,198.087,198.087,0,0,1-17.131,20.111,157.96,157.96,0,0,1-19.856,17.213,138.765,138.765,0,0,1-23.017,13.565,147.547,147.547,0,0,1-31.977,12.792,267.45,267.45,0,0,1-33.788,6.824,22.6,22.6,0,0,1-4.84.459c-3.3.1-6.719.2-8.247,2.115a4.879,4.879,0,0,0-.636,4.158c2.167,4.669,3.929,18.722,5.793,33.6,1.378,11,2.8,22.373,4.513,31.09a64.171,64.171,0,0,0,2.8,10.616c1.067,2.708,2.2,4.081,3.366,4.081a1.69,1.69,0,0,0,.63-.127,15.137,15.137,0,0,1,6.076-.93,81.968,81.968,0,0,1,17,2.328,154.977,154.977,0,0,1,20.134,6.03,90.522,90.522,0,0,1,17.181,8.3c4.9,3.212,7.643,6.289,8.146,9.146.679,3.856-2.762,7.187-10.229,9.9a11.3,11.3,0,0,1-2.136.186c-5.578,0-13.888-3.129-21.924-6.156l-.265-.1c-7.9-2.977-16.078-6.056-21.309-6.056-2.455,0-4.111.652-5.063,1.994a6.381,6.381,0,0,0-.925,4.017,24.29,24.29,0,0,0,1.51,6.692,47.814,47.814,0,0,1,1.332,10.676c.048,3.414-.282,7.989-2.121,10.4a3.758,3.758,0,0,1-3.094,1.6,8.018,8.018,0,0,1-4.034-1.4c-4.4-4.39-6.2-10.434-7.947-16.278a76.239,76.239,0,0,0-2.775-8.17,21.9,21.9,0,0,0-4.411-6.887,21.8,21.8,0,0,0-7.845,6.57,98.916,98.916,0,0,0-6.592,9.738c-2.7,4.346-5.5,8.838-8.707,12.159a19.983,19.983,0,0,1-5.221,4.015A13.428,13.428,0,0,1,289.786,596.9ZM132.034,230.529h0a157.358,157.358,0,0,0,1.585,36.589,171.27,171.27,0,0,0,9.6,35.066,188.972,188.972,0,0,0,16.566,32.57,203.019,203.019,0,0,0,22.486,29.1,207.13,207.13,0,0,0,28.693,25.66,198.733,198.733,0,0,0,32.821,19.7,181.334,181.334,0,0,0,35.753,12.635,162.772,162.772,0,0,0,37.489,4.46h.007a150.838,150.838,0,0,0,48.483-7.952c2.78-1.226,6.011-2.456,9.432-3.757,9.363-3.562,19.043-7.246,18.7-10.773-.248-2.579-5.824-4.782-17.047-6.733-18.929-8.232-39.03-17.445-57.775-29.022a190.113,190.113,0,0,1-45.648-30.857A170.225,170.225,0,0,1,240.562,296.4a172.311,172.311,0,0,1-18.676-48.87,195.4,195.4,0,0,1-3.8-55.014c.282-1.98.528-5.563-.995-7.318a3.02,3.02,0,0,0-2.394-1.022,6.523,6.523,0,0,0-1.988.357,120.389,120.389,0,0,1-22.943,7.691,86.808,86.808,0,0,1-18.48,2.073,84.334,84.334,0,0,1-20.724-2.7c-1.363-.336-2.625-.668-3.845-.988-3.645-.958-6.522-1.713-8.807-1.713a5.4,5.4,0,0,0-4.194,1.569c-1.731,1.817-2.659,5.427-3.007,11.7-.324,5.844-.172,14.328.509,28.37l.433-.006ZM240.85,183.773h0a2.274,2.274,0,0,0-1.7.718c-.815.848-1.3,2.435-1.481,4.852a59,59,0,0,0,.016,6.49c.036.907.07,1.764.077,2.506a197.794,197.794,0,0,0,7.861,47.455,187.771,187.771,0,0,0,18.932,43.314,176.879,176.879,0,0,0,29.317,36.853,171.775,171.775,0,0,0,39.018,28.071c4.913,2.912,10.164,6.448,15.724,10.191,9.093,6.122,18.5,12.453,28.305,17.405,11.2,5.654,20.9,8.4,29.652,8.4a38.032,38.032,0,0,0,11.478-1.729,39.009,39.009,0,0,0,11.11-5.667,274.206,274.206,0,0,0,19.032-19.911,102.65,102.65,0,0,0,14.992-22.991,11.731,11.731,0,0,0,1.517-7.2,12.332,12.332,0,0,0-2.831-6.051c-2.991-3.721-7.821-6.873-12.492-9.921-3.839-2.5-7.463-4.87-9.854-7.4-38.9-28.1-81.7-55.505-130.856-83.788-6.127-3.737-12.426-7.433-18.517-11.006l0,0c-14.939-8.764-30.386-17.827-44.618-28.278-1.9-1.538-3.475-2.317-4.678-2.317ZM193.012,95.238h0a6.638,6.638,0,0,0-5.178,2.284,13.932,13.932,0,0,0-2.868,7.273,50.554,50.554,0,0,0,.17,13.053,72.723,72.723,0,0,1-.032,17.287c-.608,5.8-1.662,11.613-2.592,16.745v.006a135.572,135.572,0,0,0-2.1,14.159c-.282,4.4.24,7.229,1.644,8.91a5.668,5.668,0,0,0,4.652,1.856c2.658,0,6.184-.985,10.78-3.013a154.23,154.23,0,0,0,17.928-9.8,25.76,25.76,0,0,0,9.735-16.694,34.864,34.864,0,0,0,.058-9.729,49.01,49.01,0,0,0-2.384-9.9,64.3,64.3,0,0,0-5.862-12.289,65.876,65.876,0,0,0-7.782-10.347c-5.78-6.227-11.672-9.8-16.164-9.8Zm-40.379-5.163a2.114,2.114,0,0,0-.406.039A40.34,40.34,0,0,0,137.4,98a45.88,45.88,0,0,0-10.327,12.666c-5.136,9.1-8.2,20.763-8.855,33.732-1.255,3.387-.266,7.551,2.859,12.043a47.8,47.8,0,0,0,14.165,12.666c5.892,3.561,11.776,5.6,16.144,5.6a8.931,8.931,0,0,0,5.07-1.324c2.244-3.623.09-5.866-2.19-8.24-1.625-1.692-3.306-3.442-3.569-5.819-.233-2.47-.5-5.02-.755-7.486-1.025-9.848-2.084-20.03-1.725-30a79.926,79.926,0,0,1,1.789-14.709,55.6,55.6,0,0,1,5.02-13.892,1.885,1.885,0,0,0-.159-1.874A2.756,2.756,0,0,0,152.633,90.075Zm-52.077,39.462h0c-2.493,1.466-9.666,4.167-17.971,7.3-18.086,6.812-42.855,16.14-41.992,21.123.179,1.033,1.471,1.848,3.842,2.422a57.29,57.29,0,0,0,11.515,1.064,251.709,251.709,0,0,1,34.288,2.937,67.509,67.509,0,0,0,8.408.939c1.8,0,2.907-.34,3.589-1.1,1.5-1.675,1.065-5.5.207-13.118-.582-5.165-1.379-12.237-1.885-21.558Z" transform="translate(1.194 0.103)"/></g><path d="M103.928,13.807c.01,4.836-1.146,6.9-6.252,6.849-20.306.542-11.94,43.516-39.724,29.03C40.494,38.341,34.179,28.778,23.757,53.5c-5.772,7.336-6.3,23.846-17.748,23.494-3.8-.234-7.29-4.514-5.547-7.693C8.478,40.506,22.7-3.5,58.516,26.7c5.554,4.132,8.569-1.665,10.16-6.636.667-17.982,37.157-31.317,35.251-6.253" transform="translate(35 469)"/><path d="M103.914,32C82.933,44.795,65.661,54.589,55.545,24.36c-.738-3.639-3.69-4.692-7.579-3.269C34.956,25.81,22.011,34.505,7.644,32.1c-6.478-1.748-12.32-13.7-2.1-15.106,19.117-4.9,49.923-30.655,64.553-7.434,6.034,18.094,11.227,15.112,25.861,7.395C134.362-2.591,124.33,89.1,103.914,32" transform="translate(520 472)"/><path d="M30.493,8c16.981-5.23,27.832,22.372,34.946,7.871C74.081-8.009,104.826-3.926,110,21.311,108.275,42.52,89.763,9.629,83.016,19.929c-4.724,8.138-9.531,21.194-20.536,21.508C29.012,35.836,40.4,8.9,16.424,51.337-17.38,71.951,7.923-1.59,30.493,8" transform="translate(422 259)"/><g transform="translate(0 73)"><path d="M61.9,46.927c24.12-6.278,32.9,27.782,21.632,42.929-20.942,12.291-5.4-24.683-17.971-25.848-9.555.825-19.13,2.6-28.741,2.326-25.413-.919,8.726-44.544-10.163-47.4-6.636-.3-24.47,12.9-26.652,4.718C5.594,2.526,45.726-13.38,49.571,16.393,52.72,29.922,38.477,51.562,61.9,46.927" transform="translate(-0.001 1.027)"/></g><path d="M121,31.144c-8.473,32.028-7.608-7.768-21.662.714-8.878,3.52-17.1,9.189-26.145,12.222C47.822,51,62.609,16.405,43.8,22.1c-12.268,1.586-24.428,4.526-36.795,5.1C-3.88,29.735-.788,14.261,7.494,12.792c19.027-4.7,63.755-29.34,64.659,5.73C76.513,35.964,116.31-5.761,121,31.144" transform="translate(460 540)"/><g transform="translate(28 1)"><path d="M64.249,46.675c28.228-8.612,32.7,54.779,11.735,39.874-7.843-25.828,4.7-31.568-28.714-21.592C6.446,62.737,64.586-.694,7.794,17.173c-9.574,1.686-9.877-6.757-3.37-9.521C21.521-4.726,53.511-3.681,54.452,22.685c.3,10.137-8.077,28.243,9.8,23.99" transform="translate(0.036 0.079)"/></g><path d="M30.738,67.942c-8.093-.283-12.162-3.322-17.385,3.031C4.568,79.109-2.955,60.6,1.154,53.515,9.139,34.08,29.7,58.8,38.465,50.227,38.75,36.48,7.643,21.395,31.081,7.774,37.434,5.552,85.051-6.79,80.722,5.089c-4.483,10.026-17.033,11.853-25.46,17.56-11.8,4.09-2.912,11.889-2.157,20.23,1.866,15.3-6.9,27.288-22.368,25.063" transform="translate(362 201)"/><path d="M58.482,13.528c21.277-37.844,58.541,16.661,25.231,7.847C73.6,19.265,75.867,40.046,62.294,35.668c-11.966.96-27.65-21.692-33.687-5.034C24.821,41.38,15.154,60.656,1.5,51.688-4.824,42.061,10.79,28.913,12.884,18.4c12.772-21.271,27.6-15.515,45.6-4.872" transform="translate(18 395)"/><path d="M104.938,34.52c.6,4.55-3.2,13.5-8.769,7.446-4.283-6.959-6.229-17.44-17.484-9.468C48.5,47.238,43.913,17.058,35.34,24.17,25.552,30.63,15.28,39.837,2.955,34.04-10.918,22.318,28.168,9.654,35.342,2.6c10.748-6.736,20.8.592,25.063,10.868C72.15,34.545,101.075-19.282,104.938,34.52" transform="translate(489 341)"/><path d="M60.685,35.136c-9.259-.84-24.346-18.794-32.805-12.528-6.034,5.874-8.8,23.337-19.266,19.964C5.176,41.26-.377,41.681.02,36.363,2.811,15.2,25.832-11.506,46.414,7.581c4.99,2.962,11.552,15.565,17.156,7.713,18.031-36.926,39.76,4.24,28.183,7.161-16.009-15.286-13.129,17.3-31.068,12.68" transform="translate(9 333)"/><path d="M22.928,18.176c-7.1.631-32.3-3.107-19.222-12.914,15.509-.831,40.73-13.813,49.108,4.384,2.4,3.833,1.088,13.965,8.564,10.964C79.46,11.327,100.86,4.665,113.64,25.423c2.869,3.378.939,6.964-3.366,6.607C72.289,10.3,59.9,63.97,38.082,23.24c-2.1-7.569-9.273-5.144-15.135-5.489-.007.141-.013.283-.019.424" transform="translate(453 613)"/><path d="M71,7.7C58.945,58.467,34.9,17.857,23.964,25.86,16.891,32.564,13.2,44.185,4.084,48-10.757,46.562,17.524-21.365,45.939,8.323,53.324,18.757,67.958-14.234,71,7.7" transform="translate(84 545)"/><path d="M58,9.415c-6.916,47-30.606,13.937-38.792,28.961-3.081,7.06-3.866,20.09-13.925,19.611-10.275-7.05-2.906-28.161.007-38.737C10.457,6.861,24.683,8.915,34.384,13.972,43.078,16.76,43.255,2.424,51.175.618,61-2.231,56.419,5.477,58,9.415" transform="translate(288 37)"/><g transform="translate(616 538)"><path d="M38.613,44.435c-6.833-.167-12.288-5.576-13.406-12.7-.688-9.825-10.158-5.348-16.8-5.654-23.241-7.45,8.12-20.223,17.356-23.987C43.1-7.084,40.438,16.337,45.854,25.4c13.014-5.4,22.857-6.475,23.737,10.45.693,3.764-26.468,8.272-30.978,8.58" transform="translate(0.415 0.539)"/></g><path d="M15.2,60.312c-1.436,54.8-33.27-35.345-.305-33.964,6.252-1.75,17.873,4.469,17.227-6.307C27.777,7.645,46.915-10.538,50,7.764c-5.878,9.925-1.935,21.985-7.769,31.661C31.227,55.85,8.74,24.647,15.2,60.312" transform="translate(175 10)"/><path d="M35.939,31C25.633,27.39,18.46,16.845,6.582,20.1c-22.654-5.779,19.571-35.537,30.388-9.7,7.683,5.747,17.649-6.175,26.764-5.326,2.2-.386,4.513,2.179,4.245,4.364C67.569,24.891,47.59,25.8,35.939,31" transform="translate(610 609)"/><path d="M.331,17.383C1.26,5.464,1.239,5.371,12.828,3c9.249-1.4,19.1-5.588,27.949-.67C49.58,15.555,8.26,22.742,0,17.01Z" transform="translate(267 207)"/></g></svg>