<?xml version="1.0" encoding="UTF-8"?><svg id="Layer_1" xmlns="http://www.w3.org/2000/svg" viewBox="0 0 4.35 4.75" width="20" height="20"><defs><style>.cls-1{stroke-miterlimit:10;stroke-width:.25px;stroke:currentColor;}</style></defs><path class="cls-1" d="M2.39,2.88s-.04.01-.05.02c-.01,0-.02.01-.03.02,0,.01-.02.02-.03.05l-.77,1.44c-.07.13-.1.19-.14.2-.03.01-.07,0-.1-.01-.03-.02-.05-.09-.09-.23L.16.41c-.03-.13-.05-.19-.03-.23.02-.03.04-.05.08-.06.04,0,.1.02.21.08l3.59,1.94c.13.07.19.1.2.14.01.03,0,.07-.01.1-.02.03-.09.05-.23.09l-1.58.4Z"/></svg>
