<svg xmlns="http://www.w3.org/2000/svg" width="100%" height="100%" viewBox="0 0 60 60">
    <g>
      <path d="M59.58158393911562 -1.7617560342767644 L55.63624046547769 1.1820765436205969 L49.75878257472171 3.5535692760802338 L44.04759535470562 7.348882384102909 L36.151377678182676 11.883827129348756 L31.538953655070376 18.633015818429293 L30.72860375569747 21.11087458487421 L25.921361241784094 27.92141584375101 L26.33321699711186 30.398892943122807 L27.71699153217328 33.21557438056826 L28.51491326652869 37.210935528380084 L30.951592135219336 44.33682254252474 L35.21695520641782 46.72491896754308 L41.483407592679896 52.03806249085255 L49.41147649959977 57.82194701579697 L55.32719478328777 60.77668991321333 L58.63472690791357 62.88989736489843 L48.481107909892 60.07366105498756 L35.49815959516458 54.730905695637304 L25.110066316691935 55.13575547167438 L17.593253910118676 51.650744259744684 L9.728833598440971 48.71056718324782 L6.121478682546811 43.64084129023036 L2.1025884350584527 35.70640194353475 L3.320283157894736 35.02578900139782 L-2.4477797050615813 29.668626978607023 L-1.9302689631591035 29.89442331691503 L1.7736265945001566 23.807292290861934 L2.5417801326226988 19.521816446669796 L4.588809659260649 15.768394103226912 L14.482877949266623 8.80088559490314 L19.475540090248863 4.477280887145017 L23.96875186108373 5.734455395225227 L43.77773852997447 1.5984928937053493 L62.848393671686225 -2.799381232248299"></path>
      <path d="M60 0 C58.78810714208091 0.6263381722409902, 56.944476458368456 2.0395533007256694, 53.3719667771853 2.180040474397572 M60 0 C58.6088372461781 0.4732413741422361, 56.3101767463259 1.1210330148312413, 53.3719667771853 2.180040474397572 M53.3719667771853 2.180040474397572 C51.80737377446857 3.7618345481584954, 49.57983048173813 2.818207442568893, 47.19695509498016 4.9296696081847635 M53.3719667771853 2.180040474397572 C51.61022330970291 2.8828006232119106, 50.75808287017124 3.6965320669546005, 47.19695509498016 4.9296696081847635 M47.19695509498016 4.9296696081847635 C44.94534649226697 5.737800015836188, 44.729113750590116 6.2471728217915, 41.60771995344933 8.188373003895741 M47.19695509498016 4.9296696081847635 C44.85293326562472 6.116288352450471, 43.402094673595556 7.387321406084154, 41.60771995344933 8.188373003895741 M41.60771995344933 8.188373003895741 C40.68384032266653 9.980909276543931, 39.2483920362499 9.44452617286496, 36.73701635265762 11.895636264064501 M41.60771995344933 8.188373003895741 C40.04777295166923 9.161720539141834, 38.24699171906065 10.290397526628025, 36.73701635265762 11.895636264064501 M36.73701635265762 11.895636264064501 C36.187665073671525 14.017867787280618, 33.61858084169602 14.92193769227594, 32.717599292669775 15.99094499122521 M36.73701635265762 11.895636264064501 C35.999997239282564 12.569189361015766, 34.8694139455243 13.49746581041499, 32.717599292669775 15.99094499122521 M32.717599292669775 15.99094499122521 C32.6642680139939 16.70093290254068, 32.01695295926739 18.03124536754737, 29.68222377355068 20.41378478791196 M32.717599292669775 15.99094499122521 C31.5140298560318 17.024685676003898, 30.988312803280618 18.85239788564067, 29.68222377355068 20.41378478791196 M29.68222377355068 20.41378478791196 C29.700631322242497 21.259454541947523, 28.36210280217375 22.816939159592444, 27.763644795365053 25.10364125665886 M29.68222377355068 20.41378478791196 C28.812081592962972 21.36983318547017, 28.651662238771905 22.421207868992813, 27.763644795365053 25.10364125665886 M27.763644795365053 25.10364125665886 C27.582486304428674 26.241545742343884, 26.890250813407345 28.24290008754372, 27.09461735817765 30 M27.763644795365053 25.10364125665886 C27.586016014300583 26.887216320002, 27.074071967814756 28.153802142024226, 27.09461735817765 30 M27.09461735817765 30 C27.607548063043637 30.8281903537223, 27.418852036501065 32.548108254115654, 27.763644795365053 34.896456759372214 M27.09461735817765 30 C27.236056012340146 31.120730214204638, 27.71623037575918 31.91162500511736, 27.763644795365053 34.896456759372214 M27.763644795365053 34.896456759372214 C28.41177080552627 36.29811483621741, 28.067550527575165 37.253526225541606, 29.68222377355068 39.586383239569834 M27.763644795365053 34.896456759372214 C28.197260701185954 36.11049477818659, 28.663003419059105 37.18733696446556, 29.68222377355068 39.586383239569834 M29.68222377355068 39.586383239569834 C30.50638593883622 41.54278676685904, 30.77482621588293 42.40066324281689, 32.717599292669775 44.009265043127044 M29.68222377355068 39.586383239569834 C30.21797503793419 40.7706613272879, 31.040393586148934 41.49304166628298, 32.717599292669775 44.009265043127044 M32.717599292669775 44.009265043127044 C33.3330900758002 44.88565363025888, 35.796874306876404 46.653110480170874, 36.73701635265762 48.10458777257792 M32.717599292669775 44.009265043127044 C34.030942275354946 45.53957667588402, 35.32700128737194 46.64893724000299, 36.73701635265762 48.10458777257792 M36.73701635265762 48.10458777257792 C38.54801284857531 49.88821788242489, 38.8476238319119 49.64919905137997, 41.60771995344933 51.811837030456545 M36.73701635265762 48.10458777257792 C37.91082489481768 49.15632157249064, 39.19840707639969 50.10325139268973, 41.60771995344933 51.811837030456545 M41.60771995344933 51.811837030456545 C43.10933738023075 52.690480485283175, 46.17851603159918 54.7933777479951, 47.19695509498016 55.07049841929704 M41.60771995344933 51.811837030456545 C42.60337334718617 52.838599362956295, 44.363234398728615 52.888055544983, 47.19695509498016 55.07049841929704 M47.19695509498016 55.07049841929704 C50.35330590940559 55.53899356870841, 52.28249303125555 57.4486635961318, 53.3719667771853 57.820057541633474 M47.19695509498016 55.07049841929704 C48.6128926370308 56.23067674321374, 50.21587976416156 55.97691236501373, 53.3719667771853 57.820057541633474 M53.3719667771853 57.820057541633474 C55.54521242484321 58.38061282616926, 58.42339640321105 58.43590473873402, 60 60 M53.3719667771853 57.820057541633474 C54.9825028788488 58.37734562170575, 56.343378108959584 58.281886387927216, 60 60 M60 60 C54.77328034116414 61.41324462680615, 49.29124409376249 59.033066046048354, 47.91427412608191 59.11287673939562 M60 60 C56.62163470917256 59.600454120419144, 52.15502623242168 60.243394259498494, 47.91427412608191 59.11287673939562 M47.91427412608191 59.11287673939562 C44.03282012628897 59.40372490716652, 42.148617387840154 58.40208266844054, 36.65464769546737 57.18709860101565 M47.91427412608191 59.11287673939562 C44.131475392831554 57.858022966290804, 41.73697169924957 57.39152985537757, 36.65464769546737 57.18709860101565 M36.65464769546737 57.18709860101565 C32.6953970542397 55.04428377687259, 31.020177060784643 53.99082328385265, 26.463174682778472 54.333010632405696 M36.65464769546737 57.18709860101565 C33.35539720477247 56.71913193234038, 30.654156679456932 55.87967649931626, 26.463174682778472 54.333010632405696 M26.463174682778472 54.333010632405696 C22.998862119026743 52.74175467802097, 19.12245754458583 50.438565135365984, 17.581909062637642 50.660957881111216 M26.463174682778472 54.333010632405696 C24.452092695679376 54.1244869321371, 22.994917895282192 53.15109733210258, 17.581909062637642 50.660957881111216 M17.581909062637642 50.660957881111216 C16.38276277385584 48.83719730383361, 13.753787108426623 48.049498423294985, 10.252904809667115 46.28128539467787 M17.581909062637642 50.660957881111216 C15.617103255197366 49.33891030806288, 12.929710346115087 47.68083263764328, 10.252904809667115 46.28128539467787 M10.252904809667115 46.28128539467787 C9.02087077654899 45.83778402312228, 8.526604979739824 45.42750944373703, 7.2461425629401335 43.86057457814209 M10.252904809667115 46.28128539467787 C9.154424259179935 45.85418375789895, 8.437166002395765 45.08348455281905, 7.2461425629401335 43.86057457814209 M7.2461425629401335 43.86057457814209 C5.690705621613715 41.767579985953645, 4.583348621630938 40.73964802254652, 2.6993815631417366 38.62636945314836 M7.2461425629401335 43.86057457814209 C5.511847833720962 41.840120828734165, 3.782820540099049 40.7881063990297, 2.6993815631417366 38.62636945314836 M2.6993815631417366 38.62636945314836 C2.713846426413387 37.675646419519076, 2.4189814564267897 37.30275249386428, 1.21989630372599 35.84046140657676 M2.6993815631417366 38.62636945314836 C2.3953428169247855 38.18490654466649, 2.0241906740455056 37.118925182927036, 1.21989630372599 35.84046140657676 M1.21989630372599 35.84046140657676 C1.6547098378783907 35.058169193111176, 0.494642645615637 32.5716771978838, 0 30 M1.21989630372599 35.84046140657676 C0.5867416055526842 34.884522288871764, 0.5709452390904626 32.94467015388661, 0 30 M0 30 C0.460765063777669 29.240936935893586, 0.5267838944341042 28.790206123202204, 0.31001686706945153 27.039645296708546 M0 30 C0.22227904942080656 29.16150960222137, 0.3304055310180345 28.133372189106904, 0.31001686706945153 27.039645296708546 M0.31001686706945153 27.039645296708546 C0.8745753667719028 26.069310313673764, 0.9314361862911702 24.987261673052885, 1.21989630372599 24.159636609454353 M0.31001686706945153 27.039645296708546 C0.6207856278639852 25.732902796187943, 1.1184718549438983 24.554321176785592, 1.21989630372599 24.159636609454353 M1.21989630372599 24.159636609454353 C1.8532682103379101 22.36357691092447, 1.892680406922948 21.3359082530925, 4.718215898489078 18.695829806830663 M1.21989630372599 24.159636609454353 C2.2941639407037457 22.475563436360627, 4.092320444066334 20.20175496883558, 4.718215898489078 18.695829806830663 M4.718215898489078 18.695829806830663 C6.135206357786432 17.8863842653669, 6.8457763373765586 16.780026377803036, 7.2461425629401335 16.139617953347518 M4.718215898489078 18.695829806830663 C5.246597056303709 18.02455297366852, 6.292667515706146 17.434306315724623, 7.2461425629401335 16.139617953347518 M7.2461425629401335 16.139617953347518 C9.771462607805814 16.298580546331074, 9.499983852509812 13.115960404248794, 13.708245891842228 11.447542996754576 M7.2461425629401335 16.139617953347518 C8.694225647287231 15.373866787427751, 11.13681083643208 13.904682852885966, 13.708245891842228 11.447542996754576 M13.708245891842228 11.447542996754576 C16.644926386613225 10.085365417010165, 19.720789905883898 9.424032539249971, 21.843637575225653 7.407887246947459 M13.708245891842228 11.447542996754576 C16.95434288440867 10.031185488698586, 19.101290358005876 8.371029857702457, 21.843637575225653 7.407887246947459 M21.843637575225653 7.407887246947459 C23.675718157021315 6.538524400281078, 25.55576653118619 6.625031502586062, 26.463174682778472 5.6671994019466245 M21.843637575225653 7.407887246947459 C23.26089947398543 7.161258751281954, 24.694042376313117 6.396848008015626, 26.463174682778472 5.6671994019466245 M26.463174682778472 5.6671994019466245 C29.847530716811768 4.620726406747299, 34.71701451102783 2.600616693726371, 42.166070106947856 1.7272135578730001 M26.463174682778472 5.6671994019466245 C31.411823115444722 4.488983632988987, 37.30167813111657 2.4993006843161276, 42.166070106947856 1.7272135578730001 M42.166070106947856 1.7272135578730001 C48.40777292696003 0.2741487998956931, 48.67355668314618 -0.44443061661800043, 60 0 M42.166070106947856 1.7272135578730001 C48.16873328261857 2.242504369095199, 54.0278438051284 1.7799547448165705, 60 0 M60 0 C60 0, 60 0, 60 0 M60 0 C60 0, 60 0, 60 0" stroke="#000000" stroke-linecap="round" stroke-linejoin="round"></path>
    </g>
  </svg>