<svg xmlns="http://www.w3.org/2000/svg" width="100%" height="100%" viewBox="0 0 60 60">
    <g>
      <path d="M27.126095016555478 -0.8457337625079748 L59.91266301788615 30.743420613477124 L32.02073543629212 61.10567409323347 L1.26413932648158 27.782795940203037 L28.59490075896667 -2.076806267378362"></path>
      <path d="M29.999932548042654 0 C36.47488473095106 4.499969378904553, 40.410866810182966 10.227158078035139, 59.99999999999999 30.000000000000014 M29.999932548042654 0 C36.64531780128852 7.496568253106743, 46.56701749589885 15.264953471920933, 59.99999999999999 30.000000000000014 M59.99999999999999 30.000000000000014 C55.330622210602385 39.0745914853743, 42.676169256570816 47.10748276776295, 29.999932548042654 60 M59.99999999999999 30.000000000000014 C50.30049710749093 38.888065603354136, 43.88040571881035 46.007190418823974, 29.999932548042654 60 M29.999932548042654 60 C20.616429836206805 49.81587902270322, 12.508609999456246 43.589279904279806, 0 30.000000000000014 M29.999932548042654 60 C19.105050745229157 48.4998691416844, 8.041287759828537 38.029936008915385, 0 30.000000000000014 M0 30.000000000000014 C7.432732051115436 18.524871011743265, 19.584565093846336 10.760567919784528, 29.999932548042654 0 M0 30.000000000000014 C8.126985875503019 21.84825446646481, 16.658045203385676 12.851468773932556, 29.999932548042654 0 M29.999932548042654 0 C29.999932548042654 0, 29.999932548042654 0, 29.999932548042654 0 M29.999932548042654 0 C29.999932548042654 0, 29.999932548042654 0, 29.999932548042654 0" stroke="#000000" stroke-linecap="round" stroke-linejoin="round"></path>
    </g>
  </svg>