<svg xmlns="http://www.w3.org/2000/svg" width="100%" height="100%" viewBox="0 0 60 60">
    <g>
      <path d="M28.16052882110916 1.2513089020805548 L33.20431557810968 17.057412238255072 L42.51897968674547 13.722874644863309 L40.57621333996075 23.34686974064437 L61.882212481252644 23.481094466540842 L48.228319747602775 30.367454312587405 L54.54167507236717 44.45577707805798 L45.70263295559816 43.37738939092495 L47.16755023738743 59.69948304687913 L34.3767383498444 52.0106196078443 L27.404778039535127 59.81130942640455 L25.007614202412547 47.16202684423128 L12.476640861576355 60.789449698459975 L13.665401900546245 42.05974300913037 L5.751822789714168 40.89453748694094 L15.967287830295888 33.85243103517162 L1.687711454984273 24.498445506836863 L16.28905320616543 24.44133052299626 L14.963645013837873 12.865481071650617 L27.628826168548642 17.539800567851447 L29.436674510837953 2.5308569275997033"></path>
      <path d="M30.00014276808278 0 C30.120692652379383 7.463831980500913, 35.419930907904046 11.712849584000145, 35.124803099019196 16.583690223914882 M30.00014276808278 0 C31.083582278048507 6.931596919386, 35.14902312572118 10.97164976364195, 35.124803099019196 16.583690223914882 M35.124803099019196 16.583690223914882 C38.31257213547042 13.616252094055863, 41.51171265735736 12.29480114326406, 45.00078522445522 11.459047731954184 M35.124803099019196 16.583690223914882 C38.0814519152672 14.79829618662166, 42.046757536582504 13.17793311810167, 45.00078522445522 11.459047731954184 M45.00078522445522 11.459047731954184 C42.50680799640794 14.823767574109814, 44.280655856736644 21.953858159286064, 43.41605950573691 22.917917636075344 M45.00078522445522 11.459047731954184 C45.09940715872754 16.219838840593933, 43.042089607649615 19.588474281779774, 43.41605950573691 22.917917636075344 M43.41605950573691 22.917917636075344 C47.984250560659056 23.582771994896717, 51.537887864271575 22.915761546754545, 60 22.917917636075344 M43.41605950573691 22.917917636075344 C50.72395247784621 23.617853805091762, 55.19096325828041 22.28176697362334, 60 22.917917636075344 M60 22.917917636075344 C55.609607687933696 23.569926678897744, 51.77520111135831 26.19581686859423, 46.584083262345864 33.16720261999675 M60 22.917917636075344 C56.4486882969407 25.727754932608807, 55.29311911358168 26.110314064120164, 46.584083262345864 33.16720261999675 M46.584083262345864 33.16720261999675 C49.64640331218931 35.26210060455585, 50.174500266621536 39.59553143178466, 54.27071683854359 41.45895881803768 M46.584083262345864 33.16720261999675 C49.909165915397615 36.529754507018005, 52.22630347837964 38.30394479051952, 54.27071683854359 41.45895881803768 M54.27071683854359 41.45895881803768 C49.92094473145521 43.463584751423866, 47.42561574080783 42.52079441887433, 43.41605950573691 43.41630977608513 M54.27071683854359 41.45895881803768 C51.340365075075496 42.623750825475994, 47.89937996438609 41.90260465795537, 43.41605950573691 43.41630977608513 M43.41605950573691 43.41630977608513 C45.24187367158088 49.05219218265912, 47.435265395361135 55.3896777463832, 48.54143367708715 60 M43.41605950573691 43.41630977608513 C44.217926760617516 48.0599915885341, 45.01456569870539 51.73472429177323, 48.54143367708715 60 M48.54143367708715 60 C42.56788856729261 56.764454343536556, 39.44948649562162 55.84011927314074, 35.124803099019196 49.75071501607861 M48.54143367708715 60 C45.319013562458295 59.04659650028391, 42.504840586383445 57.02426829073465, 35.124803099019196 49.75071501607861 M35.124803099019196 49.75071501607861 C34.325830494996424 53.00773659260462, 32.62024850866785 55.46928602613605, 30.00014276808278 60 M35.124803099019196 49.75071501607861 C33.90745126565315 53.20531797798186, 32.17148677600794 57.847267847342586, 30.00014276808278 60 M30.00014276808278 60 C27.41963359080019 58.16141902924338, 25.198900788821515 52.089719147459434, 24.875482437146367 49.75071501607861 M30.00014276808278 60 C28.69336642725941 57.9056717942411, 27.474556660480584 55.326758576613514, 24.875482437146367 49.75071501607861 M24.875482437146367 49.75071501607861 C20.95159693919883 52.84007503508167, 14.60494802152109 54.51618474871233, 11.458994627161157 60 M24.875482437146367 49.75071501607861 C21.138080936730706 51.698820397545575, 17.62788832875477 57.0903736041767, 11.458994627161157 60 M11.458994627161157 60 C15.25497156002223 53.06484003762975, 13.111822584175036 49.460643947782344, 16.583654958097572 43.41630977608513 M11.458994627161157 60 C13.436377285265142 53.90811174715652, 15.898982889846607 48.40856349678581, 16.583654958097572 43.41630977608513 M16.583654958097572 43.41630977608513 C13.911811661676513 42.661449230800415, 8.702252771891942 41.00788977822416, 5.729425929539189 41.45895881803768 M16.583654958097572 43.41630977608513 C12.413829648858954 42.03895652539231, 9.495017367606714 42.87614838483873, 5.729425929539189 41.45895881803768 M5.729425929539189 41.45895881803768 C6.532204056496871 38.619312047253615, 10.713721750413805 38.84881352790289, 13.416487809985208 33.16720261999675 M5.729425929539189 41.45895881803768 C7.229457818838012 39.38512733523802, 9.31333497033704 38.04392803812597, 13.416487809985208 33.16720261999675 M13.416487809985208 33.16720261999675 C11.30834728609788 31.498934920186546, 4.587536768003084 27.665355635393766, 0 22.917917636075344 M13.416487809985208 33.16720261999675 C9.057079779742557 29.096090550122433, 6.496159020940764 26.709973672439883, 0 22.917917636075344 M0 22.917917636075344 C8.107476625258629 20.990320658188203, 15.028722072039269 24.79264751495065, 16.583654958097572 22.917917636075344 M0 22.917917636075344 C7.100953619961757 22.768327576904397, 10.988091369013135 24.27042950493479, 16.583654958097572 22.917917636075344 M16.583654958097572 22.917917636075344 C16.523083977857496 17.467692701445095, 15.74820506542743 15.734508297957243, 15.00007138404139 11.459047731954184 M16.583654958097572 22.917917636075344 C16.064354539243826 21.069054115016705, 16.46410962675598 18.55382574409702, 15.00007138404139 11.459047731954184 M15.00007138404139 11.459047731954184 C17.855412262327885 14.261991370321653, 21.464125342294498 14.329862644593335, 24.875482437146367 16.583690223914882 M15.00007138404139 11.459047731954184 C17.552831653801775 11.887987443032449, 19.734798685919383 14.167918049253334, 24.875482437146367 16.583690223914882 M24.875482437146367 16.583690223914882 C26.42500802182503 10.837959056673116, 27.194046932404266 10.426501835650251, 30.00014276808278 0 M24.875482437146367 16.583690223914882 C26.802891458825627 11.290267154819814, 29.054451110821436 3.5975709904207163, 30.00014276808278 0 M30.00014276808278 0 C30.00014276808278 0, 30.00014276808278 0, 30.00014276808278 0 M30.00014276808278 0 C30.00014276808278 0, 30.00014276808278 0, 30.00014276808278 0" stroke="#000000" stroke-linecap="round" stroke-linejoin="round"></path>
    </g>
  </svg>