<svg xmlns="http://www.w3.org/2000/svg" width="100%" height="100%" viewBox="0 0 60 60">
    <g>
      <path d="M38.020019033541544 35.1922235531792 L42.08549591174325 32.600872251559494 L49.34602972629393 35.926433335872034 L51.78984536462779 35.354039723522575 L62.47993485680092 28.582764705091233 L54.66869709485492 27.59175972116387 L44.581110649044604 23.6981511362326 L42.41460538708559 25.014155505815918 L32.83032305257582 30.834226821784533 L42.40199128694425 24.53144162140446 L44.35979600756673 22.03388705313794 L50.249518272350144 14.624599609288737 L51.50878896219431 11.174453327493234 L46.235058368048364 11.84093806581717 L39.386842582853795 15.84797976418907 L33.9999272001786 19.555264867016803 L30.76037489791205 26.370594341100016 L33.60922336966584 18.131314217975547 L33.673982934105055 13.193465336961907 L33.38613951258005 3.979385465028902 L29.549563883044414 0.34286518018955126 L26.583427779426717 8.286865224200383 L26.26280282978287 11.994927223946512 L28.356454878781662 17.49566592976115 L30.49899648720225 23.16654242924728 L25.371307878074983 20.870852469266786 L20.87906242308581 17.475521753361896 L16.761594845115738 7.926438782287441 L8.903554186479747 10.001211843859757 L8.809311672689036 14.87953978036743 L13.529973298924558 17.81414927576874 L20.411357281972542 23.792281917854552 L27.206354870645445 30.670458043230912 L16.958589327284034 26.32260190103137 L13.623195111777207 25.102452072879643 L5.486263513604095 25.611437811372106 L-0.9637414471113042 30.467643760927608 L4.4965637807894625 33.38852294954553 L11.237769922797881 34.343822896611435 L18.89618139166635 33.497283652070735 L28.60072528653254 32.20202319989013 L18.01473154152979 35.4083949916062 L13.087584426216385 39.76593621699916 L11.865306557724272 46.67351809284502 L11.435879800837876 52.420812664877026 L12.549663723148457 47.44176944137959 L18.49301832772257 45.7082138734375 L24.865230278694643 38.63516691786042 L31.02286778550908 33.840040678466664 L23.918745872565193 41.83526644435656 L27.051483598389083 49.68581682824408 L24.696361849461834 53.60491982197935 L29.456561747988363 58.618245805249565 L31.274952323183054 54.41811832557169 L36.09044669579891 47.51112197438752 L31.237858444950962 42.87176185813938 L33.553771451260744 34.07485531918928 L36.02008729681514 38.4439682805092 L38.08410775596617 42.900853099024644 L47.41171171650419 49.56126866634804 L51.264421936317156 48.39704622684993 L49.56075242492176 44.515477810250275 L43.397676767722736 38.492295209254344 L37.89145525683959 35.71885713815314 L33.85889208915033 33.7070526395879 L38.58613961502437 34.601025801044244"></path>
      <path d="M38.1699 33.092234538827306 C39.2788683024185 32.92765417876423, 41.82488259367584 33.27459787054758, 42.649654687499996 34.21337112064439 M38.1699 33.092234538827306 C39.40432061495947 33.23788457546987, 39.927407366619136 33.483299714769885, 42.649654687499996 34.21337112064439 M42.649654687499996 34.21337112064439 C43.73545121089513 33.930433400370106, 46.62478016525625 33.76184455013203, 49.7718169921875 34.18595465616422 M42.649654687499996 34.21337112064439 C44.126546255779935 34.741095669784734, 46.58331488225817 34.6808934524381, 49.7718169921875 34.18595465616422 M49.7718169921875 34.18595465616422 C50.77978780198339 33.43031538058987, 52.50414759170907 33.293396949243075, 54.15044472656251 33.060952078052104 M49.7718169921875 34.18595465616422 C51.534120332712405 34.12457339852527, 52.85391986776437 33.33913375009894, 54.15044472656251 33.060952078052104 M54.15044472656251 33.060952078052104 C56.77118860677992 31.290548477340387, 58.15810632598948 31.671013715623843, 60 29.999850000749994 M54.15044472656251 33.060952078052104 C55.650223542813336 31.844356061833246, 56.67018240629615 31.558365656334434, 60 29.999850000749994 M60 29.999850000749994 C57.336798782779354 29.716977444477003, 55.60154835292188 27.516870466738744, 54.15045703125001 26.938760228073864 M60 29.999850000749994 C58.13861230022649 28.589064360512246, 56.31997573311778 27.789711881129637, 54.15045703125001 26.938760228073864 M54.15045703125001 26.938760228073864 C53.576493204132795 27.082939364556392, 51.12647073749205 27.312102646750052, 47.417100000000005 25.580572097139516 M54.15045703125001 26.938760228073864 C53.037186839962544 26.881135898365237, 50.77523151921339 26.60934612521504, 47.417100000000005 25.580572097139516 M47.417100000000005 25.580572097139516 C45.42082626942246 26.295723999755662, 44.03656060936061 24.9098410117396, 40.346580468750005 26.231173922255387 M47.417100000000005 25.580572097139516 C44.82747389475094 26.20449467929533, 41.94347064634511 25.68458879940336, 40.346580468750005 26.231173922255387 M40.346580468750005 26.231173922255387 C38.315234754994364 27.369061216128205, 34.54882375784036 26.991505130317634, 33.9801 28.493257533712328 M40.346580468750005 26.231173922255387 C38.25754332118688 26.686642266542975, 35.73257758068059 27.384967052920956, 33.9801 28.493257533712328 M33.9801 28.493257533712328 C36.04767454013553 27.31437120505955, 38.37895925084165 26.875744725185953, 39.98118515625 25.348606460092697 M33.9801 28.493257533712328 C36.12090193907691 27.56546964570285, 38.40924643234352 26.84827512509878, 39.98118515625 25.348606460092697 M39.98118515625 25.348606460092697 C42.24433070026847 23.97480519013729, 43.922690084039445 23.056003700837707, 45.440775 20.80909595452023 M39.98118515625 25.348606460092697 C41.07180802808872 24.53392580827231, 43.044679758909126 22.233109711055754, 45.440775 20.80909595452023 M45.440775 20.80909595452023 C45.82687892904344 20.24668229935454, 46.69650771279155 18.431740009961505, 49.241636718749994 15.087497609386952 M45.440775 20.80909595452023 C47.1473000251516 18.504202127534775, 47.813377577502784 16.720976873408336, 49.241636718749994 15.087497609386952 M49.241636718749994 15.087497609386952 C49.867282770767666 12.365887833114124, 51.56264850153486 11.419576533649787, 51.213300000000004 8.786656066719665 M49.241636718749994 15.087497609386952 C50.124127520161224 12.931719178605936, 49.775675040887855 11.749592802168664, 51.213300000000004 8.786656066719665 M51.213300000000004 8.786656066719665 C48.71129976497731 9.039904863022159, 47.452278933343585 9.036292668091958, 44.9124263671875 10.758223357320711 M51.213300000000004 8.786656066719665 C49.42226912961271 8.992623468241932, 48.59065584468591 9.539198724339228, 44.9124263671875 10.758223357320711 M44.9124263671875 10.758223357320711 C43.336518675052915 10.859642598703138, 40.86211248313112 12.235854477887566, 39.1907625 14.559039704801474 M44.9124263671875 10.758223357320711 C44.07354211725455 11.158871733625043, 43.00218342255169 12.71188812850058, 39.1907625 14.559039704801474 M39.1907625 14.559039704801474 C38.50183067926944 15.951170370165517, 37.04822603177225 17.45057566101964, 34.6510658203125 20.018702445550275 M39.1907625 14.559039704801474 C37.472240497091654 16.12646909149779, 35.52966419670047 18.87191098762892, 34.6510658203125 20.018702445550275 M34.6510658203125 20.018702445550275 C34.154804142302815 22.22218992368813, 32.56418135153032 23.153235512595998, 31.8171 25.969070154649224 M34.6510658203125 20.018702445550275 C34.29221586069379 21.817251462794278, 33.06656232800875 23.074835663893577, 31.8171 25.969070154649224 M31.8171 25.969070154649224 C32.05410949915464 24.426150589224687, 32.436389920973355 22.95655298499588, 33.76868261718751 19.65310739852551 M31.8171 25.969070154649224 C32.139466505010915 24.588149933847685, 32.50159229411831 22.13906660548755, 33.76868261718751 19.65310739852551 M33.76868261718751 19.65310739852551 C34.60161856221496 17.41698023777982, 33.50911277970367 16.475408245360867, 34.4191875 12.582649586752066 M33.76868261718751 19.65310739852551 C33.81891423407585 17.670187297324137, 34.60931902964045 15.358217838757467, 34.4191875 12.582649586752066 M34.4191875 12.582649586752066 C34.3475601909074 10.409069977964547, 34.45336818782509 8.649748061272343, 33.061018945312505 5.849226027307362 M34.4191875 12.582649586752066 C33.57312754510672 11.07192290836675, 33.592196138266694 9.80680817354797, 33.061018945312505 5.849226027307362 M33.061018945312505 5.849226027307362 C32.50011253402829 3.78090563524922, 30.429061260356356 2.624144232900609, 30 0 M33.061018945312505 5.849226027307362 C31.701525713434567 3.831590149512011, 30.906425017184972 1.8123938916356268, 30 0 M30 0 C28.507263426630434 2.5881366666023267, 28.05698006415905 4.305904021417737, 26.938894921875008 5.849513721181395 M30 0 C28.675083904223193 1.9315250204040917, 27.9060330271489 4.0073976210476046, 26.938894921875008 5.849513721181395 M26.938894921875008 5.849513721181395 C27.108223715524954 6.554270501006043, 27.1216967924822 8.726520478890816, 25.5807 12.58283708581457 M26.938894921875008 5.849513721181395 C26.13616547635816 7.902870528588752, 26.09422349476748 10.134689674501127, 25.5807 12.58283708581457 M25.5807 12.58283708581457 C25.69871033402286 13.43429703614002, 25.84411484630433 17.181661940394306, 26.231305078124997 19.653321264643676 M25.5807 12.58283708581457 C26.099690368100372 15.521163214982375, 25.745013700689963 17.576320357187083, 26.231305078124997 19.653321264643676 M26.231305078124997 19.653321264643676 C26.105139024319705 20.823060273517076, 27.970890567743478 24.040935888871278, 28.1829 25.96937015314923 M26.231305078124997 19.653321264643676 C27.03295510845072 21.217072932519017, 27.325429566668223 22.295021008573688, 28.1829 25.96937015314923 M28.1829 25.96937015314923 C26.686668232086994 23.105577591598617, 26.027980319036228 21.236829324153724, 25.348835156250004 20.018702445550275 M28.1829 25.96937015314923 C27.258261405479942 24.52652058645691, 27.13207054908442 22.947010234506514, 25.348835156250004 20.018702445550275 M25.348835156250004 20.018702445550275 C23.652246965644352 17.717633784682086, 22.082106787208932 15.816001822032034, 20.808975 14.559039704801474 M25.348835156250004 20.018702445550275 C23.543013279786837 17.991535283869645, 22.37665864988041 16.165847695763865, 20.808975 14.559039704801474 M20.808975 14.559039704801474 C18.440207106942683 13.740863978018368, 16.705003593350757 12.59772972825585, 15.087274218749997 10.758223357320711 M20.808975 14.559039704801474 C18.716283394881383 13.055565644188862, 17.178451599179645 12.583028428793254, 15.087274218749997 10.758223357320711 M15.087274218749997 10.758223357320711 C11.930205952360705 9.163337424230503, 10.29853180797832 8.798847752580901, 8.786700000000002 8.786956065219677 M15.087274218749997 10.758223357320711 C13.268426463137018 9.705070870605477, 10.643206494573155 9.50674623437736, 8.786700000000002 8.786956065219677 M8.786700000000002 8.786956065219677 C8.889689553488953 11.487576345032682, 10.777961513071523 13.122952853313661, 10.758277148437498 15.087699170879146 M8.786700000000002 8.786956065219677 C9.142517010219757 11.011502148673015, 9.58394901880654 12.262648328701484, 10.758277148437498 15.087699170879146 M10.758277148437498 15.087699170879146 C10.944844194604787 15.859465996111332, 13.751285995257092 18.82746015440478, 14.559112499999998 20.80917095414523 M10.758277148437498 15.087699170879146 C12.044914648301326 16.20844786843962, 12.332115484170398 17.662630723590276, 14.559112499999998 20.80917095414523 M14.559112499999998 20.80917095414523 C16.942978260213902 22.090491410091754, 18.312393878474843 23.54126424109246, 20.018802539062502 25.34880802158489 M14.559112499999998 20.80917095414523 C15.924711541708973 22.599601015959458, 17.744855437159615 24.344764952698412, 20.018802539062502 25.34880802158489 M20.018802539062502 25.34880802158489 C22.448618374404436 26.677960558963743, 23.170605270333287 26.90209417516013, 26.0199 28.493557532212336 M20.018802539062502 25.34880802158489 C21.446057345177056 26.659357615208776, 23.52529132086825 27.484039218237722, 26.0199 28.493557532212336 M26.0199 28.493557532212336 C24.167640820991913 27.31609413258907, 22.234785218105735 26.263941985237125, 19.653205664062504 26.231100094499524 M26.0199 28.493557532212336 C25.065992476812053 27.579164500930805, 23.025336244481093 28.022070242135822, 19.653205664062504 26.231100094499524 M19.653205664062504 26.231100094499524 C17.90245979393351 25.076429898008563, 17.112100364430678 25.13118207090968, 12.5827125 25.580572097139516 M19.653205664062504 26.231100094499524 C16.796775682325094 26.34337805549929, 14.329465835946232 25.466586526408637, 12.5827125 25.580572097139516 M12.5827125 25.580572097139516 C11.170311882273879 26.781275194810547, 9.370732764890139 27.044421749843778, 5.8492552734375 26.93883405582972 M12.5827125 25.580572097139516 C11.248859813790686 26.2348861445767, 9.422592207434008 25.85256140050612, 5.8492552734375 26.93883405582972 M5.8492552734375 26.93883405582972 C3.3510745425095365 27.748627370518765, 2.29769613310048 29.79792643762821, 0 29.999850000749994 M5.8492552734375 26.93883405582972 C4.758774984971669 27.88852289794774, 2.7854775009511936 28.76506570270273, 0 29.999850000749994 M0 29.999850000749994 C2.542659989126971 30.70382987779171, 3.1712234569003477 31.215225704511987, 5.849542968750001 33.060952078052104 M0 29.999850000749994 C1.747148418621831 31.279553572650133, 4.090603486088506 31.938476273265152, 5.849542968750001 33.060952078052104 M5.849542968750001 33.060952078052104 C7.842038642079134 33.516979740284256, 9.701406684352657 34.767851253100545, 12.582899999999999 34.41924040379797 M5.849542968750001 33.060952078052104 C8.019926590734151 33.845303112889006, 9.813943500216798 33.86226987809079, 12.582899999999999 34.41924040379797 M12.582899999999999 34.41924040379797 C15.347222641822285 33.45155625815245, 18.866599250067082 33.62859661745393, 19.653419531249998 33.76861221162644 M12.582899999999999 34.41924040379797 C14.783554476059605 34.47783746332759, 17.16200923857032 33.920109939828215, 19.653419531249998 33.76861221162644 M19.653419531249998 33.76861221162644 C22.0137155048578 32.590687377019044, 22.261366811911987 33.2356465510215, 26.324099999999998 31.657041714791426 M19.653419531249998 33.76861221162644 C21.48983843832341 33.59000722848017, 23.846950003587626 32.04419956426209, 26.324099999999998 31.657041714791426 M26.324099999999998 31.657041714791426 C23.517402542012388 32.557893723697134, 20.88984973741007 32.92840477699042, 20.018888671875004 34.65109354140729 M26.324099999999998 31.657041714791426 C24.587487350961947 32.05632582722815, 22.384752044388883 33.45938742109761, 20.018888671875004 34.65109354140729 M20.018888671875004 34.65109354140729 C18.829791725800582 35.559747664579845, 16.118256292937467 37.066457000128835, 14.559225 39.190604046979765 M20.018888671875004 34.65109354140729 C18.44019335892926 35.895690894318136, 17.198998097280114 36.18536099943143, 14.559225 39.190604046979765 M14.559225 39.190604046979765 C14.263792347205078 40.4516858856765, 12.459835101420287 41.715274505301046, 10.758289453125 44.91220239211304 M14.559225 39.190604046979765 C13.533207488943795 40.64934368281697, 12.398830655023312 42.77462990519496, 10.758289453125 44.91220239211304 M10.758289453125 44.91220239211304 C9.532485064383103 47.20316682149081, 10.561625360947268 47.44393047590466, 8.786700000000002 51.21304393478033 M10.758289453125 44.91220239211304 C9.665824942369008 47.532695130925454, 9.5644175837695 49.62687018816163, 8.786700000000002 51.21304393478033 M8.786700000000002 51.21304393478033 C9.135465125363588 50.71480332997384, 11.584100314197926 50.71489354451522, 15.0875736328125 49.24147723011384 M8.786700000000002 51.21304393478033 C10.51919936976887 51.0333865988928, 12.92046808783778 49.50510013866164, 15.0875736328125 49.24147723011384 M15.0875736328125 49.24147723011384 C16.225081605330274 47.23554167584116, 17.89857970024036 47.20417489788662, 20.8092375 45.44069779651101 M15.0875736328125 49.24147723011384 C16.983402658906112 48.44216380412784, 18.46026446271961 46.72652532353589, 20.8092375 45.44069779651101 M20.8092375 45.44069779651101 C21.70036155948813 44.059132069475304, 22.38068861551423 42.16685430823259, 25.3489341796875 39.98119853150733 M20.8092375 45.44069779651101 C22.7138192512355 43.70656595309323, 24.271375180040796 41.20121516756139, 25.3489341796875 39.98119853150733 M25.3489341796875 39.98119853150733 C26.914259651115977 38.00173302186177, 26.220018762610277 36.7304232007324, 28.625100000000003 33.632531837340814 M25.3489341796875 39.98119853150733 C26.08526914924951 38.222013649320054, 26.974045855960217 35.66561049549585, 28.625100000000003 33.632531837340814 M28.625100000000003 33.632531837340814 C28.793426909276466 36.83092882023542, 27.8787522561756 37.803275262665764, 26.231231249999997 40.346592602974475 M28.625100000000003 33.632531837340814 C27.594526226050654 36.21854273448517, 26.975795998961836 37.64594072140199, 26.231231249999997 40.346592602974475 M26.231231249999997 40.346592602974475 C26.42427743864382 41.53368620018752, 25.112840755830348 43.37534614448123, 25.5807 47.417050414747926 M26.231231249999997 40.346592602974475 C26.301616020780457 42.34122180527619, 25.93413282327985 43.49480869702316, 25.5807 47.417050414747926 M25.5807 47.417050414747926 C25.870780202115753 49.029400731228044, 25.782944254853778 52.71708011292407, 26.93896875 54.150473974192636 M25.5807 47.417050414747926 C26.316319370317935 50.15015874710778, 26.19369795560514 52.91485414612389, 26.93896875 54.150473974192636 M26.93896875 54.150473974192636 C27.05702841843665 55.67399415945361, 28.646228742676552 57.59818304511455, 30 60 M26.93896875 54.150473974192636 C27.373929470928925 55.32475224254531, 27.70081125486011 56.067993663112766, 30 60 M30 60 C31.044174089721288 58.47107360576772, 32.05918715144005 57.5157155238767, 33.06131894531249 54.150486278818605 M30 60 C31.111478992547383 58.22850667613487, 31.830807463376853 56.128315530597376, 33.06131894531249 54.150486278818605 M33.06131894531249 54.150486278818605 C33.72292395129422 53.29215300589067, 33.39121355913423 50.89671201228028, 34.4194875 47.417162914185425 M33.06131894531249 54.150486278818605 C33.58446634393215 51.136122195074165, 33.85376168940127 49.02700063304768, 34.4194875 47.417162914185425 M34.4194875 47.417162914185425 C33.91998393865636 46.53541261314221, 33.61585763957998 44.30519717552429, 33.768982617187504 40.34667873535632 M34.4194875 47.417162914185425 C34.58611278558886 45.27505056458981, 33.56474273946503 42.025416990115296, 33.768982617187504 40.34667873535632 M33.768982617187504 40.34667873535632 C33.86980270792768 38.58048187415294, 32.516176361842994 37.013196908727906, 31.3749 33.6322318388408 M33.768982617187504 40.34667873535632 C32.543147526764386 38.336261286319036, 32.431753877545 35.71936520709839, 31.3749 33.6322318388408 M31.3749 33.6322318388408 C31.274032014788023 34.42773895660577, 32.443590455035476 36.36992358052575, 34.651266796875 39.98098525132374 M31.3749 33.6322318388408 C32.82371654264902 35.93580566974316, 33.677827922310925 38.15067507439873, 34.651266796875 39.98098525132374 M34.651266796875 39.98098525132374 C35.25012971002142 41.86837491287679, 38.293552018389384 44.268757306080765, 39.190799999999996 45.44054779726101 M34.651266796875 39.98098525132374 C36.38436362446384 41.8997780287945, 36.89547261189019 43.38683863650545, 39.190799999999996 45.44054779726101 M39.190799999999996 45.44054779726101 C40.46540390463688 46.39322720176397, 40.8004773313539 46.88968875594203, 44.912426953125006 49.24139051179744 M39.190799999999996 45.44054779726101 C40.13672203475675 46.62612113815402, 41.7387866747832 46.52118125175705, 44.912426953125006 49.24139051179744 M44.912426953125006 49.24139051179744 C47.47901742482231 51.05482512892783, 50.69594637037743 50.89528703300689, 51.213300000000004 51.21304393478033 M44.912426953125006 49.24139051179744 C46.8553143577437 49.79942074868783, 49.57747025771331 50.26130820717753, 51.213300000000004 51.21304393478033 M51.213300000000004 51.21304393478033 C50.190390288887215 49.39657972485508, 49.04052083427995 46.889502068266545, 49.24172343749999 44.912201806178466 M51.213300000000004 51.21304393478033 C50.294566890813186 48.881449990895476, 50.2126783416903 47.08104641799606, 49.24172343749999 44.912201806178466 M49.24172343749999 44.912201806178466 C48.643539280377944 44.27952793138282, 46.53570708507589 41.752016227342466, 45.44092499999999 39.19056654716726 M49.24172343749999 44.912201806178466 C47.73069190593995 43.59010356966958, 47.0267400728078 41.15158335921481, 45.44092499999999 39.19056654716726 M45.44092499999999 39.19056654716726 C42.65346868539692 36.596753206979805, 41.38792814053712 36.668355210196026, 39.98139843749999 34.650892565849674 M45.44092499999999 39.19056654716726 C43.996119397450464 37.669110132561165, 42.333659680756355 36.83899107554775, 39.98139843749999 34.650892565849674 M39.98139843749999 34.650892565849674 C37.86515323409953 33.23088158175076, 35.157778253642405 32.755490429727736, 33.6759 31.657041714791426 M39.98139843749999 34.650892565849674 C38.42311132012005 34.128035696435845, 35.57815297424022 33.3288967208365, 33.6759 31.657041714791426 M33.6759 31.657041714791426 C35.561074131693594 32.43244873400745, 36.63442891799316 32.69192144837897, 38.1699 33.092234538827306 M33.6759 31.657041714791426 C34.8321622110818 32.08602454933734, 35.52074840172807 32.339292454894746, 38.1699 33.092234538827306 M38.1699 33.092234538827306 C38.1699 33.092234538827306, 38.1699 33.092234538827306, 38.1699 33.092234538827306 M38.1699 33.092234538827306 C38.1699 33.092234538827306, 38.1699 33.092234538827306, 38.1699 33.092234538827306" stroke="#000000" stroke-linecap="round" stroke-linejoin="round"></path>
    </g>
  </svg>