<svg xmlns="http://www.w3.org/2000/svg" width="100%" height="100%" viewBox="0 0 60 60">
    <g>
      <path d="M27.64179088665514 -1.8775203630660025 L57.18989369261167 15.374465180934369 L58.142154710505764 44.68541258218656 L29.009174947246926 58.41337031722763 L0.572830193105416 46.83992670355739 L-2.8192761572608336 12.508984562278517 L31.603483730977917 1.677299140462795"></path>
      <path d="M30 0 C38.63724053165858 3.594169509129017, 48.2507288057982 11.151411359711297, 60 15.00000000000001 M30 0 C41.7052342881063 5.194960910431907, 51.030947193064094 9.979216992983714, 60 15.00000000000001 M60 15.00000000000001 C59.28036461378645 28.278342997334914, 62.47104753666136 33.4727737865674, 60 44.99999999999999 M60 15.00000000000001 C59.05351806678597 23.691390902194055, 58.49238684193456 32.10681289469987, 60 44.99999999999999 M60 44.99999999999999 C48.18118259690929 49.276445308763336, 39.16547503511062 56.25730719994112, 30 60 M60 44.99999999999999 C51.43433811777685 48.99467906634254, 42.452108703580855 55.33477799641275, 30 60 M30 60 C23.029537885684597 54.493606054731416, 12.554774458588756 49.937828041849684, 0 44.99999999999999 M30 60 C20.931171707239837 54.24972547386371, 10.337691520208953 50.44970886714729, 0 44.99999999999999 M0 44.99999999999999 C0.5095098990636655 36.04641442796572, 2.2171772409319823 25.673126552803943, 0 15.00000000000001 M0 44.99999999999999 C-1.011030950904891 38.30611401267448, -1.1295047600349921 28.746347562799986, 0 15.00000000000001 M0 15.00000000000001 C6.9727487271807655 9.489316691804332, 18.90987258060592 6.135849387784667, 30 0 M0 15.00000000000001 C4.610268759783432 11.79546444112586, 12.181681012191252 9.145048071306853, 30 0 M30 0 C30 0, 30 0, 30 0 M30 0 C30 0, 30 0, 30 0" stroke="#000000" stroke-linecap="round" stroke-linejoin="round"></path>
    </g>
  </svg>