<svg xmlns="http://www.w3.org/2000/svg" width="100%" height="100%" viewBox="0 0 60 60">
    <g>
      <path d="M27.532686974204275 0.1543910245107325 L57.13184418365151 24.328641850303548 L46.360258124840286 61.03651675659058 L13.380982971818428 61.11512165333901 L-1.9895002943916764 25.62219828796055 L31.98324296336762 -1.2929592765309466"></path>
      <path d="M30.000904022901892 0 C38.62777547274768 6.8452796147519965, 50.30134637681142 12.889495094814954, 60 22.917900144485472 M30.000904022901892 0 C38.66146177173595 6.578398195911026, 46.36676743350149 11.74868689285949, 60 22.917900144485472 M60 22.917900144485472 C58.504817577330044 33.57201976596995, 55.92325965788746 48.563016496830734, 48.54060569534426 60 M60 22.917900144485472 C55.55843198635715 34.254507916978405, 52.76778820691247 46.874476305387574, 48.54060569534426 60 M48.54060569534426 60 C41.6955719316632 59.103948369466885, 29.9529523627231 62.15821243496922, 11.4593943046557 60 M48.54060569534426 60 C33.79867678974894 60.850540415985165, 21.60865565811148 59.16468071173059, 11.4593943046557 60 M11.4593943046557 60 C7.387792174207361 49.706604754097754, 8.482236447408717 47.61722976986114, 0 22.917900144485472 M11.4593943046557 60 C7.602496939121767 45.37544476902051, 3.535949102637446 29.67089985695362, 0 22.917900144485472 M0 22.917900144485472 C9.58570897890609 17.479940218212572, 15.65355019487277 9.487983546666747, 30.000904022901892 0 M0 22.917900144485472 C8.837671715190925 16.24036173831494, 13.983382002552283 10.046114822280359, 30.000904022901892 0 M30.000904022901892 0 C30.000904022901892 0, 30.000904022901892 0, 30.000904022901892 0 M30.000904022901892 0 C30.000904022901892 0, 30.000904022901892 0, 30.000904022901892 0" stroke="#000000" stroke-linecap="round" stroke-linejoin="round"></path>
    </g>
  </svg>