<svg xmlns="http://www.w3.org/2000/svg" width="100%" height="100%" viewBox="0 0 60 60">
    <g>
      <path d="M57.43317293200519 59.09467754409106 L44.54455711624947 58.611695070856065 L43.06376907688883 49.39817912044313 L41.83707182996011 38.470914650854034 L37.424521055856246 34.75199896947452 L30.643054414773633 36.38866260715144 L26.080330403078793 33.50525727414801 L17.944633266952643 38.49025735977238 L19.579372746358292 49.592966335637186 L14.200702751924283 61.7314033069041 L-1.2922642582088921 57.43075480038521 L0.3693698153952778 49.921625832673236 L5.259309570652796 39.38124965216667 L3.904436135111636 24.98813664719778 L7.640651995272204 20.526483447020546 L14.477026875010898 8.760897805165673 L15.758714264984693 4.888458644586562 L25.97422564192004 -1.431672483028417 L31.537966819821058 -2.2916250695771927 L34.28871924939637 2.734555679588614 L43.73742883477439 1.782028596168609 L48.426827871772616 9.02368069003593 L48.9285216672872 19.239453569392914 L52.9777411805848 29.139834139407895 L55.610581210261856 39.16637616265676 L61.36183154662322 46.375226232384755 L57.56088511267733 60.540348357741536"></path>
      <path d="M60 60 C55.174081792122294 57.429243040586414, 50.032340230695326 61.72932393709352, 43.125 60 M60 60 C54.60250970351015 60.69295967201191, 51.58255514522712 59.775618317925186, 43.125 60 M43.125 60 C42.42269108012049 58.15188111997758, 42.45036747738546 53.59001046661559, 42.093553125 49.78243125 M43.125 60 C42.573936502417936 57.60700913121773, 42.46409317044304 53.64207501310368, 42.093553125 49.78243125 M42.093553125 49.78243125 C40.73650504545567 46.386262740905416, 39.389422775941625 45.13395824825751, 39.280725000000004 41.43855 M42.093553125 49.78243125 C42.050683317130506 47.47744874240842, 40.64867152292402 46.468945628265914, 39.280725000000004 41.43855 M39.280725000000004 41.43855 C37.836203482471696 40.13805830952802, 36.48373779634173 37.508358658466236, 35.108784375 35.81289374999999 M39.280725000000004 41.43855 C37.484919204787815 39.84053650581879, 36.69308189362361 37.082265804502796, 35.108784375 35.81289374999999 M35.108784375 35.81289374999999 C34.3351848049838 35.23639511827107, 32.06899287575416 34.69186093863583, 30 33.75 M35.108784375 35.81289374999999 C34.3599425452091 35.221912354060265, 32.796835454394284 34.93053858899755, 30 33.75 M30 33.75 C28.23402210592219 34.24311387465769, 26.140076819151822 35.52134968615075, 24.891215624999997 35.81289374999999 M30 33.75 C28.882335598732396 34.39953157275075, 28.069107587752576 34.25018339265394, 24.891215624999997 35.81289374999999 M24.891215624999997 35.81289374999999 C23.21714913571665 38.03758945844512, 22.800976992238677 39.56199495658043, 20.719275000000003 41.43855 M24.891215624999997 35.81289374999999 C24.077449738622335 36.73721515000068, 23.354275780582054 38.71307256984743, 20.719275000000003 41.43855 M20.719275000000003 41.43855 C21.047409976432686 44.44412811717765, 18.968126815523714 44.148829801757074, 17.906446875 49.78243125 M20.719275000000003 41.43855 C19.927102662215983 45.244243958724844, 19.081113655796813 48.387929490700465, 17.906446875 49.78243125 M17.906446875 49.78243125 C18.41740024582369 51.500616908863556, 17.823343219572397 55.33608342878118, 16.875 60 M17.906446875 49.78243125 C17.967009704735872 51.46707065374594, 17.121210914094785 54.69770269852077, 16.875 60 M16.875 60 C10.875242084116705 58.19201166349135, 2.9790942772249087 61.16813099425897, 0 60 M16.875 60 C10.634312046674818 61.23332798045922, 2.989840737532853 58.80188585244648, 0 60 M0 60 C0.34076204732009063 54.75163243026727, 1.070864090432663 51.155896219907454, 0.6094992187499997 47.9079890625 M0 60 C0.06412863580105019 55.16124273783318, -0.26332591122476123 52.64543642779652, 0.6094992187499997 47.9079890625 M0.6094992187499997 47.9079890625 C0.10936942440040198 44.78217768953523, 1.643832080403731 43.560156011783434, 2.3575687500000013 36.64541249999999 M0.6094992187499997 47.9079890625 C0.8867856600416866 45.32038133105834, 1.5636276356565832 43.12721060082324, 2.3575687500000013 36.64541249999999 M2.3575687500000013 36.64541249999999 C3.0265302587234952 35.04280762984088, 5.162184707823666 29.667534937486753, 5.123566406250001 26.453554687499995 M2.3575687500000013 36.64541249999999 C3.0402158494066103 34.16751183316182, 3.8595731563496964 29.582427993124305, 5.123566406250001 26.453554687499995 M5.123566406250001 26.453554687499995 C6.445675704178376 24.353492292833238, 7.955285184472752 23.5184219349193, 8.786850000000003 17.573700000000006 M5.123566406250001 26.453554687499995 C6.894653894475222 23.273368850188824, 8.132967191781175 20.22568900439376, 8.786850000000003 17.573700000000006 M8.786850000000003 17.573700000000006 C8.595832481043672 16.89858563491913, 10.01874057527842 14.824184342559702, 13.226777343749998 10.247132812500002 M8.786850000000003 17.573700000000006 C10.712585574570433 15.75109200222525, 11.24914520746779 12.201690394443325, 13.226777343749998 10.247132812500002 M13.226777343749998 10.247132812500002 C14.45318213353158 8.028967661775946, 16.05038520458193 7.721308372879275, 18.32270625 4.715137499999999 M13.226777343749998 10.247132812500002 C14.032052551265215 9.133576816972198, 15.166630615308671 7.41926457294414, 18.32270625 4.715137499999999 M18.32270625 4.715137499999999 C20.53858807685851 3.2868927004351507, 21.561690601594883 2.3798149142140135, 23.95399453125 1.2189984374999994 M18.32270625 4.715137499999999 C20.548480790207503 3.2124610491735117, 22.305752305508996 1.7682573914220856, 23.95399453125 1.2189984374999994 M23.95399453125 1.2189984374999994 C24.844919652928976 1.4989503944228233, 28.047015222628815 1.4154818916089489, 30 0 M23.95399453125 1.2189984374999994 C26.189371628723435 1.079514434825792, 27.799954812520202 0.20778612843241237, 30 0 M30 0 C31.72972912607732 -0.1896799476945661, 34.327994865069236 1.3823332017151224, 36.046005468749996 1.2189984374999994 M30 0 C31.49620955542666 -0.003699727494785865, 34.03246916015006 0.6664933396100543, 36.046005468749996 1.2189984374999994 M36.046005468749996 1.2189984374999994 C37.09018009704797 3.023071441145201, 39.754663300113094 3.898995987100804, 41.67729375 4.715137499999999 M36.046005468749996 1.2189984374999994 C37.93603149103532 2.9921459850414234, 39.90205355854434 3.719778749740995, 41.67729375 4.715137499999999 M41.67729375 4.715137499999999 C43.311453289826765 5.563330273917751, 44.98484614819159 7.029682711137714, 46.77322265625 10.247132812500002 M41.67729375 4.715137499999999 C43.62198158581845 6.357357055817451, 45.4679336924442 8.040637971649497, 46.77322265625 10.247132812500002 M46.77322265625 10.247132812500002 C47.50544532936541 12.43249343176513, 48.3092361325671 12.477436297927477, 51.21315000000001 17.573700000000006 M46.77322265625 10.247132812500002 C48.389508763019556 12.211749865391125, 50.04361406077326 15.301438797055976, 51.21315000000001 17.573700000000006 M51.21315000000001 17.573700000000006 C52.46920635110996 20.921636164496743, 52.406263076235014 22.537042891600606, 54.87643359375 26.453554687499995 M51.21315000000001 17.573700000000006 C52.79925606496389 21.04406891654178, 53.82629705819274 24.26559565270473, 54.87643359375 26.453554687499995 M54.87643359375 26.453554687499995 C57.42318706046297 29.61244170517067, 55.49301376793199 32.25708679213862, 57.642431249999994 36.64541249999999 M54.87643359375 26.453554687499995 C56.23703265003867 30.53655686820323, 57.25430701330394 33.13145477990718, 57.642431249999994 36.64541249999999 M57.642431249999994 36.64541249999999 C57.8092011717264 39.795651609483336, 59.05085331483411 44.657993508186266, 59.390500781250005 47.9079890625 M57.642431249999994 36.64541249999999 C57.70741290175971 39.663305632505796, 58.52341178310965 41.38029814674191, 59.390500781250005 47.9079890625 M59.390500781250005 47.9079890625 C61.2404959287433 53.323237661898716, 61.279205473497974 58.39406112990009, 60 60 M59.390500781250005 47.9079890625 C60.228158490689566 52.72001676787377, 60.36364410519789 57.528507484007854, 60 60 M60 60 C60 60, 60 60, 60 60 M60 60 C60 60, 60 60, 60 60" stroke="#000000" stroke-linecap="round" stroke-linejoin="round"></path>
    </g>
  </svg>