<svg xmlns="http://www.w3.org/2000/svg" width="100%" height="100%" viewBox="0 0 60 60">
    <g>
      <path d="M62.29320835397158 9.370371482639982 L57.68654276141028 32.00540661440774 L56.95755873860248 32.923001128893816 L54.815989826372515 37.9116862958838 L51.583804220623946 41.53951585111851 L53.91842569344925 44.40804424723564 L26.71754872562899 43.18969905524563 L13.112030606177717 59.83177135589763 L18.97500387967296 42.95003323621028 L8.721635318179823 43.51730852092006 L7.848252081073907 41.26817218606557 L0.17270509496314235 39.219201473977236 L-0.16031371160553576 33.04485450247016 L1.0964429418904127 32.88760334688621 L1.2414737201655972 8.454722470928349 L0.16679671502945959 6.07929813899696 L5.948774645713883 1.3480170450071776 L7.462037614738837 3.445629985138063 L9.584692505888405 -2.8560094462338492 L51.4814837456609 -1.7629672849683458 L54.17952495377429 1.7599162315751995 L57.1453715093063 6.885176676142243 L58.47425375622713 7.7182560916450935 L58.53617992475615 10.913321958124223"></path>
      <path d="M60 10.497619269909432 C63.069419659082556 17.98577688074667, 59.48284652346431 26.91169974737497, 59.7865106829016 33.616242574806286 M60 10.497619269909432 C58.480942307013386 20.107794542495167, 58.30473279439486 28.620712810454492, 59.7865106829016 33.616242574806286 M59.7865106829016 33.616242574806286 C59.599111926968284 34.06831644249846, 59.80244899944318 34.27417197301834, 59.17428637068518 35.58670700681545 M59.7865106829016 33.616242574806286 C59.715040098033455 34.14388840663726, 59.53497232937929 34.393846512974, 59.17428637068518 35.58670700681545 M59.17428637068518 35.58670700681545 C58.411485373101286 37.15383593652572, 57.50230487393 37.72988571883616, 56.92309459537074 38.924586873307675 M59.17428637068518 35.58670700681545 C58.362765536792956 36.99895710343193, 57.63525646491256 37.68772469963859, 56.92309459537074 38.924586873307675 M56.92309459537074 38.924586873307675 C56.75776536925646 38.85525474743579, 55.74625222830689 39.52784909957032, 53.58534834300155 41.175908528615395 M56.92309459537074 38.924586873307675 C56.207171441854435 39.36283192931178, 55.09418668455693 40.13863569806363, 53.58534834300155 41.175908528615395 M53.58534834300155 41.175908528615395 C52.591639862908295 41.48054336514306, 52.13682377244045 41.81758042535743, 51.61493093446672 41.78817519664358 M53.58534834300155 41.175908528615395 C52.81727778838682 41.357719452263396, 52.47087731050776 41.7195016991463, 51.61493093446672 41.78817519664358 M51.61493093446672 41.78817519664358 C49.309941127232335 44.5707703086273, 42.33853692354192 42.34111045015004, 28.49991384756762 42.001680515358004 M51.61493093446672 41.78817519664358 C43.64355589824637 41.75037644826699, 38.498715286812384 40.43782211643005, 28.49991384756762 42.001680515358004 M28.49991384756762 42.001680515358004 C24.555279275145026 49.250998696504965, 16.298568539414237 52.67802688008541, 12.00000000000001 60 M28.49991384756762 42.001680515358004 C21.595544380824336 50.07366455172961, 15.684966733650482 55.96816563608715, 12.00000000000001 60 M12.00000000000001 60 C16.44173845629612 57.303633551208044, 18.230392023608047 49.85255944046362, 19.499856412612722 42.001680515358004 M12.00000000000001 60 C13.321781506423008 54.139185200885954, 16.792779317323816 49.05468827440995, 19.499856412612722 42.001680515358004 M19.499856412612722 42.001680515358004 C16.647598739357964 40.838376717164564, 13.838743615382803 43.27439745635962, 10.500028717477468 42.001680515358004 M19.499856412612722 42.001680515358004 C15.625394089400007 42.38918437058873, 12.010934025749979 41.96553690992599, 10.500028717477468 42.001680515358004 M10.500028717477468 42.001680515358004 C9.83145099787369 42.00757940237382, 8.759944689441872 41.89487861134146, 6.414554735512053 41.175908528615395 M10.500028717477468 42.001680515358004 C8.98136882662082 41.60375717685614, 7.623116052251627 41.50671248170167, 6.414554735512053 41.175908528615395 M6.414554735512053 41.175908528615395 C5.038141524043815 40.07414363281575, 4.103834369635787 39.755827757797995, 3.0768192521969016 38.924586873307675 M6.414554735512053 41.175908528615395 C5.123037016459982 40.666660889054214, 3.9457829428587137 39.84263307492659, 3.0768192521969016 38.924586873307675 M3.0768192521969016 38.924586873307675 C2.0740759418996078 38.487790934727535, 2.264752702299687 37.63267123785758, 0.8256813221526598 35.58670700681545 M3.0768192521969016 38.924586873307675 C2.2570221857932964 38.03349876827885, 1.7540910608980382 36.89179164835005, 0.8256813221526598 35.58670700681545 M0.8256813221526598 35.58670700681545 C0.4017598315299913 34.14202895606184, 0.6737415958163901 33.56445340026146, 0 31.501260386518567 M0.8256813221526598 35.58670700681545 C0.22588207361262985 34.06799247259274, 0.02562726308083746 32.423923564495226, 0 31.501260386518567 M0 31.501260386518567 C1.2635317213232602 26.59706775353251, -2.406760879123361 20.149721901914067, 0 10.497619269909432 M0 31.501260386518567 C-0.4385734296776475 26.356318995703333, -1.3384749593027065 17.799626191286798, 0 10.497619269909432 M0 10.497619269909432 C-0.202622201404364 9.410564839100024, -0.22675490153675593 8.895270039876198, 0.8256813221526598 6.4126102838204 M0 10.497619269909432 C0.19045359391824396 9.396161450199052, 0.3521396285604533 7.5285464966468965, 0.8256813221526598 6.4126102838204 M0.8256813221526598 6.4126102838204 C2.0488999854028274 4.686395936122398, 2.336473656560845 3.750864691942774, 3.0768192521969016 3.0756932125851386 M0.8256813221526598 6.4126102838204 C1.2479506643002298 6.054646274448095, 1.5056259735618864 5.081627576958594, 3.0768192521969016 3.0756932125851386 M3.0768192521969016 3.0756932125851386 C3.5574022054512726 2.577295498958787, 3.9921011985101877 1.773135560918841, 6.414554735512053 0.8253343525347611 M3.0768192521969016 3.0756932125851386 C4.120191090251445 2.405500862861225, 5.0633358512866105 1.8423962452711211, 6.414554735512053 0.8253343525347611 M6.414554735512053 0.8253343525347611 C7.225090839005645 -0.01755139550185003, 8.837545419505158 -0.0648984946364462, 10.500028717477468 0 M6.414554735512053 0.8253343525347611 C7.581529359880047 0.5999873988966208, 9.271618384731457 0.1900756017507244, 10.500028717477468 0 M10.500028717477468 0 C25.038658114556462 -1.1097976305334207, 39.73828183816767 1.8303020252570974, 51.61493093446672 0.21338496930728965 M10.500028717477468 0 C19.18408667068465 -0.5528182456364129, 30.06027547590388 -1.1902692067035459, 51.61493093446672 0.21338496930728965 M51.61493093446672 0.21338496930728965 C53.59577113143659 1.1469387979263628, 54.84370681038808 1.8296093662324462, 55.36885804950894 1.7935398626411365 M51.61493093446672 0.21338496930728965 C52.8250549113686 0.6276227805931054, 53.62978680519636 1.1361307752533354, 55.36885804950894 1.7935398626411365 M55.36885804950894 1.7935398626411365 C56.287083442595154 2.3491112889343855, 56.57138575097956 3.6970364873556183, 58.205692521968864 4.629486115325362 M55.36885804950894 1.7935398626411365 C56.72938098862493 2.7157554714486634, 57.312065507843414 4.0331355526969626, 58.205692521968864 4.629486115325362 M58.205692521968864 4.629486115325362 C58.791063133829354 5.896888217851783, 59.58417909180643 6.8478044473470385, 59.7865106829016 8.382757431028722 M58.205692521968864 4.629486115325362 C58.66803956201582 5.443871903873604, 59.06659105658849 6.361987232695041, 59.7865106829016 8.382757431028722 M59.7865106829016 8.382757431028722 C59.79678943995252 8.913374896629549, 60.02400171592961 9.534070157044733, 60 10.497619269909432 M59.7865106829016 8.382757431028722 C59.834059156216256 9.249356108961535, 60.017188480035024 9.72330684759173, 60 10.497619269909432 M60 10.497619269909432 C60 10.497619269909432, 60 10.497619269909432, 60 10.497619269909432 M60 10.497619269909432 C60 10.497619269909432, 60 10.497619269909432, 60 10.497619269909432" stroke="#000000" stroke-linecap="round" stroke-linejoin="round"></path>
    </g>
  </svg>