<svg xmlns="http://www.w3.org/2000/svg" width="100%" height="100%" viewBox="0 0 60 60">
    <g>
      <path d="M29.76080695489917 0.033905615588142646 L31.02871179439707 -2.517649536707518 L28.120019481637776 -0.8021229900737556 L34.966749889452146 4.9061069996151145 L43.210384791538225 4.795893188406504 L46.00900894346913 4.429654766416068 L47.092396545606796 6.361861262175124 L48.80907897881376 7.213754668114737 L51.8910563632072 11.224672296488409 L51.60487639806601 10.3521683594782 L53.033021714514526 19.28309954649923 L55.322107281325714 19.45320702152511 L55.87893312637166 20.89323974691136 L58.931028041585876 30.27203299788335 L57.34777484152147 34.27771876502218 L61.2749368914901 31.59510396776904 L58.466189002041766 36.132263579145615 L57.146384908994264 38.088873590258096 L57.90351432967439 44.01191572396075 L54.21197952406189 43.51025920344775 L55.12620114409762 48.45918800545674 L50.38571648753838 50.92346154415364 L49.752248486582864 53.09906684529636 L46.67558716909707 52.62179458294779 L43.29842418163803 57.53021481560352 L42.88749593983644 56.25811350064123 L41.028218349097656 61.501870610514956 L34.86017012829401 58.66953422184322 L33.862729962601364 57.88011464088587 L27.07918996059692 57.00647071607287 L23.930024933813137 61.85755729651208 L25.523855019318773 60.63689982367295 L19.173905237780644 61.49073599702073 L18.64485078183303 56.96240239587971 L13.330812297234317 52.48308517222249 L9.606628714853738 52.17495866894656 L11.87455134877909 50.60282601061506 L11.69246685257039 46.72275073117423 L5.012933131360374 46.80702272649164 L4.251654673490503 45.77667837679199 L4.640924805777363 43.12825885416343 L2.7585631706517466 36.21926549768764 L0.8045486190225806 33.0183531580627 L-2.039446660265301 34.75527721641882 L-0.0750683556393133 30.332360085586657 L5.183174440308953 26.904824437388992 L2.8436627645289905 22.527493429870276 L1.0522458428886947 19.98671118487841 L-0.2165813761853954 16.596172268705935 L5.808857223400663 14.184254465867362 L8.097868932963184 9.044281684486396 L6.584271712124488 9.431379126994837 L9.60224597359473 6.558008165803207 L14.015920774403398 5.106501556931571 L13.915510161875382 2.504861278539904 L20.038283769260648 3.134410398048054 L17.37546998064913 3.6543324924357217 L24.347909006232683 5.061795789754534 L27.715263299414435 -1.5813172682858094"></path>
      <path d="M28.048562088223825 0.5208521909346059 C28.151299513885398 0.4441321992813718, 28.440286777918896 0.387109774488867, 28.976662639767486 0 M28.048562088223825 0.5208521909346059 C28.3707134677234 0.4376130798438375, 28.51052165998392 0.1760392508832806, 28.976662639767486 0 M28.976662639767486 0 C29.54938887590836 0.06359779694867594, 29.890813494624457 0.13781614392321956, 31.023337360232503 0 M28.976662639767486 0 C29.77201119291156 -0.013252506122544805, 30.58927701535627 -0.03524071751043743, 31.023337360232503 0 M31.023337360232503 0 C32.80331153284029 0.4368177969454558, 33.077711292306596 0.8484085341892214, 35.70861203206594 3.1539816120840993 M31.023337360232503 0 C32.477962511755834 1.5447368469893261, 34.563413249011475 2.5768806091057797, 35.70861203206594 3.1539816120840993 M35.70861203206594 3.1539816120840993 C37.876309436533994 2.7569852721085883, 40.276519349702774 2.3770254322336206, 41.259354821279 2.193780791336749 M35.70861203206594 3.1539816120840993 C37.81736138106747 2.4957028582445435, 39.879908901548276 2.537515418868154, 41.259354821279 2.193780791336749 M41.259354821279 2.193780791336749 C41.5033801647745 2.4564685074366053, 42.39324000131454 2.8381019398374256, 43.12644013107362 3.0286816249597046 M41.259354821279 2.193780791336749 C41.63640323196219 2.454572845680469, 42.28355217670282 2.6447758211876753, 43.12644013107362 3.0286816249597046 M43.12644013107362 3.0286816249597046 C44.4401129921482 3.785018386075464, 44.32904836700392 5.49857244461216, 46.13738030267358 7.840470259767792 M43.12644013107362 3.0286816249597046 C44.193179106078055 4.831723279851085, 44.827570364706965 6.0770269481016514, 46.13738030267358 7.840470259767792 M46.13738030267358 7.840470259767792 C48.38848074773214 7.987888578138604, 50.20613904779175 8.94460524828646, 50.60032961391942 8.894140243436103 M46.13738030267358 7.840470259767792 C47.30591477736696 7.9114987866852715, 48.01797661350774 8.128114969876954, 50.60032961391942 8.894140243436103 M50.60032961391942 8.894140243436103 C51.218601353633225 8.88779026237114, 51.731705928759254 9.782302370680988, 52.41108336453214 9.883954960545463 M50.60032961391942 8.894140243436103 C51.338352264912366 9.349177400837283, 51.865484120306384 9.793179774968195, 52.41108336453214 9.883954960545463 M52.41108336453214 9.883954960545463 C52.53736461101541 10.299763439488158, 52.91158589750849 11.060927787305909, 53.200805894454064 11.795004845294258 M52.41108336453214 9.883954960545463 C52.74249258050136 10.66686381536616, 53.06215294509261 11.16400073558871, 53.200805894454064 11.795004845294258 M53.200805894454064 11.795004845294258 C53.45574725913509 13.322949736768258, 53.23401445434636 13.54132435071472, 53.773191658529235 16.400057698209327 M53.200805894454064 11.795004845294258 C53.500543213663846 13.148126040658683, 53.4409546155597 13.740081103337241, 53.773191658529235 16.400057698209327 M53.773191658529235 16.400057698209327 C55.28473762045174 17.494629600366626, 57.59235367059715 18.382860734965828, 58.211159399593186 19.922794761854515 M53.773191658529235 16.400057698209327 C55.202776166036706 17.68962436038005, 57.420728970571474 18.939819181060138, 58.211159399593186 19.922794761854515 M58.211159399593186 19.922794761854515 C58.05433241670962 20.143355793344252, 58.4024124975763 20.876495723627052, 58.83864163556433 21.862751836710206 M58.211159399593186 19.922794761854515 C58.342796030256515 20.589551654157184, 58.63885980307052 21.438306413784954, 58.83864163556433 21.862751836710206 M58.83864163556433 21.862751836710206 C58.73412821195314 23.60723689412121, 57.41537543456938 24.175006521464404, 57.29836235145179 27.3507518676891 M58.83864163556433 21.862751836710206 C57.764247702490856 24.220181662178035, 57.368084260453394 26.248817239697935, 57.29836235145179 27.3507518676891 M57.29836235145179 27.3507518676891 C57.96136837071118 28.308035692466138, 58.31076225010567 31.188996146391645, 59.52414402661612 31.4204505300781 M57.29836235145179 27.3507518676891 C58.22957673628649 28.690778669678675, 58.51284553365177 29.53434342109757, 59.52414402661612 31.4204505300781 M59.52414402661612 31.4204505300781 C59.66445822815233 32.04594423898063, 60.00841314670551 32.43513762546262, 59.99999999999999 33.42664437476343 M59.52414402661612 31.4204505300781 C59.69564506515678 32.1889157246069, 60.01720575046146 32.795283982220774, 59.99999999999999 33.42664437476343 M59.99999999999999 33.42664437476343 C59.717243723518905 34.40017040029158, 59.55095102443992 35.00239488123478, 59.11903539682967 35.28971568142457 M59.99999999999999 33.42664437476343 C59.861001632901356 33.99701919739724, 59.66939861791 34.49193964538358, 59.11903539682967 35.28971568142457 M59.11903539682967 35.28971568142457 C58.33180257492689 36.19664247249311, 56.487808011879025 38.05371581317915, 56.10615575222603 38.80129065860183 M59.11903539682967 35.28971568142457 C57.96097152730871 36.01355856497032, 57.38603939642362 37.16890246820892, 56.10615575222603 38.80129065860183 M56.10615575222603 38.80129065860183 C56.12127107894 39.48673721283722, 56.71735657747121 40.46509184142593, 56.49725386061267 43.43066195141928 M56.10615575222603 38.80129065860183 C56.294060334765895 39.9041056921984, 56.27725539044592 41.653057360815275, 56.49725386061267 43.43066195141928 M56.49725386061267 43.43066195141928 C56.27462878250271 44.066964229619785, 56.33505155943449 45.11511312211588, 56.11993469475975 45.461329130528654 M56.49725386061267 43.43066195141928 C56.430566291700224 44.07334833384818, 56.361156310049324 44.44494733152642, 56.11993469475975 45.461329130528654 M56.11993469475975 45.461329130528654 C55.64954551183146 46.0448655635184, 54.90022704003849 46.214709781695916, 54.556931734409915 46.80612336767796 M56.11993469475975 45.461329130528654 C55.90057178730712 45.722495399356276, 55.41434129942029 46.241551270266264, 54.556931734409915 46.80612336767796 M54.556931734409915 46.80612336767796 C53.11710623875866 46.982461169185136, 52.56385310566083 48.06493347311695, 50.40128757849557 48.77436805455385 M54.556931734409915 46.80612336767796 C53.499118333134234 47.32727743248412, 51.854707636553215 48.069217354640465, 50.40128757849557 48.77436805455385 M50.40128757849557 48.77436805455385 C50.513759368363026 49.72927054978888, 50.07217338886131 50.9867631428271, 48.893130212936754 53.15153234246017 M50.40128757849557 48.77436805455385 C49.749948694354465 50.1506146716499, 49.20003416026369 52.088612101833306, 48.893130212936754 53.15153234246017 M48.893130212936754 53.15153234246017 C48.81479391825413 53.462767931810724, 48.30931247678808 53.987366637109936, 47.72369553554542 54.85947678566761 M48.893130212936754 53.15153234246017 C48.631930781358186 53.68693779462901, 48.040152620791254 54.1225991948234, 47.72369553554542 54.85947678566761 M47.72369553554542 54.85947678566761 C47.51868295745708 54.84683915292173, 47.12776558968 54.871138112483656, 45.74396640562581 55.44985725501738 M47.72369553554542 54.85947678566761 C47.013665346208505 55.108962454900016, 46.442094133914814 55.42278224235514, 45.74396640562581 55.44985725501738 M45.74396640562581 55.44985725501738 C44.15737685633672 55.16108050295182, 43.64821209032646 56.09866419185967, 41.167504853507054 55.54577568756227 M45.74396640562581 55.44985725501738 C44.75423963535987 55.4270265527874, 44.18374331256071 55.54995323064354, 41.167504853507054 55.54577568756227 M41.167504853507054 55.54577568756227 C40.0614097699938 56.117000963261475, 39.444201363806 57.317213292689786, 38.03239016407362 58.91360854862866 M41.167504853507054 55.54577568756227 C40.49382545189468 56.31961452649497, 39.604747348285514 56.94715407215166, 38.03239016407362 58.91360854862866 M38.03239016407362 58.91360854862866 C37.80631590427742 59.07849235548654, 37.10429943203837 59.79018523561539, 36.26806797611649 60 M38.03239016407362 58.91360854862866 C37.39480756904262 59.34410182933395, 36.75683215963707 59.902085006112046, 36.26806797611649 60 M36.26806797611649 60 C35.76577700775977 60.1750551976427, 34.917042540408836 59.65447770225009, 34.21566167871519 59.72835373261915 M36.26806797611649 60 C35.63526815633635 60.01536845737809, 34.746968865407915 59.879334066514886, 34.21566167871519 59.72835373261915 M34.21566167871519 59.72835373261915 C32.54351550507497 58.89885629048232, 32.15624134968578 59.14279486984937, 29.999999999999993 57.94164542514191 M34.21566167871519 59.72835373261915 C33.16995120903551 59.13071952339539, 32.427530619981994 59.05920945136404, 29.999999999999993 57.94164542514191 M29.999999999999993 57.94164542514191 C28.357220122888865 58.924028910503594, 27.511656539028216 59.671444314685054, 25.784029549463312 59.72835373261915 M29.999999999999993 57.94164542514191 C28.416757390471876 58.56275092251852, 27.264803515169774 59.401837511972715, 25.784029549463312 59.72835373261915 M25.784029549463312 59.72835373261915 C25.520317224098356 60.062360952669366, 24.795114202168918 59.535229426181964, 23.731893427405808 60 M25.784029549463312 59.72835373261915 C25.078576517009477 59.90212086944644, 24.436969588974893 59.94298771568527, 23.731893427405808 60 M23.731893427405808 60 C23.244295624278354 59.35724244071787, 22.728662249234315 59.231180075009945, 21.967609835926368 58.91360854862866 M23.731893427405808 60 C23.342491655337323 59.562733609519704, 22.601558804128512 59.42954742427159, 21.967609835926368 58.91360854862866 M21.967609835926368 58.91360854862866 C20.496430331480987 57.822466859669966, 20.603026247305344 56.772006376702784, 18.832495146492924 55.54577568756227 M21.967609835926368 58.91360854862866 C21.293652385573782 57.80326248772801, 20.3961978121373 56.963099954332236, 18.832495146492924 55.54577568756227 M18.832495146492924 55.54577568756227 C17.05886441653869 55.90982463592652, 15.649644683900782 54.856561617734954, 14.256033594374177 55.44985725501738 M18.832495146492924 55.54577568756227 C17.366509025433174 55.18921145957791, 16.069910024610937 55.68942938644105, 14.256033594374177 55.44985725501738 M14.256033594374177 55.44985725501738 C13.70966004243 55.52437454161213, 13.313163152965757 55.1345104183967, 12.276150078543832 54.85959295655886 M14.256033594374177 55.44985725501738 C13.659203553728311 55.23580688231173, 13.154585428112915 55.084472186140935, 12.276150078543832 54.85959295655886 M12.276150078543832 54.85959295655886 C12.107092409072703 54.73475264510832, 11.673145072762594 54.125091530433956, 11.106561015241747 53.15153234246017 M12.276150078543832 54.85959295655886 C11.939744645945664 54.233924732696984, 11.613654884967548 53.98408827718648, 11.106561015241747 53.15153234246017 M11.106561015241747 53.15153234246017 C10.142555964806952 50.89170446954465, 9.861757980661155 49.437555350078526, 9.598712421504413 48.77436805455385 M11.106561015241747 53.15153234246017 C10.64860999441494 52.002655668114386, 10.405085910854599 50.62699365746162, 9.598712421504413 48.77436805455385 M9.598712421504413 48.77436805455385 C7.612001379496505 48.243003331276654, 6.13420668431238 47.08861299603531, 5.443068265590084 46.80612336767796 M9.598712421504413 48.77436805455385 C8.396637212887098 48.4447970423024, 7.656946069942203 47.57730545474306, 5.443068265590084 46.80612336767796 M5.443068265590084 46.80612336767796 C4.652231192408347 46.43131562152322, 4.432177037242878 46.12586690550909, 3.8799495158071897 45.46156147231116 M5.443068265590084 46.80612336767796 C4.832767231363721 46.44978296878536, 4.511662070659686 46.00836417908103, 3.8799495158071897 45.46156147231116 M3.8799495158071897 45.46156147231116 C3.475018883362553 44.3971881548993, 3.7389722152269127 43.944971876537714, 3.50274613938732 43.43066195141928 M3.8799495158071897 45.46156147231116 C3.960218692127287 45.087299230797605, 3.666652249700667 44.55334266147663, 3.50274613938732 43.43066195141928 M3.50274613938732 43.43066195141928 C4.0395398015142945 42.84854344103061, 3.409455271768789 41.54838590539542, 3.893844247773946 38.80129065860183 M3.50274613938732 43.43066195141928 C3.417046616518795 42.009223160807124, 3.55167057174948 40.42122492776555, 3.893844247773946 38.80129065860183 M3.893844247773946 38.80129065860183 C2.7206968640009985 38.023440675249255, 2.2234531133606827 36.75467285476202, 0.8809646031703162 35.28971568142457 M3.893844247773946 38.80129065860183 C3.1050788432271954 37.87013504678013, 2.1562440357254835 36.40309378011147, 0.8809646031703162 35.28971568142457 M0.8809646031703162 35.28971568142457 C0.8624248041110205 34.549830886441775, 0.4380783262316844 34.50126394901882, 0 33.42664437476343 M0.8809646031703162 35.28971568142457 C0.6790063698321213 34.91259503847282, 0.5042722875842369 34.43335984428604, 0 33.42664437476343 M0 33.42664437476343 C-0.17704354534689037 32.73961395844604, 0.29129816477550785 32.417015827064326, 0.47585597338387137 31.4204505300781 M0 33.42664437476343 C0.16940650578942487 32.96707497980016, 0.14992913492446416 32.495146899463315, 0.47585597338387137 31.4204505300781 M0.47585597338387137 31.4204505300781 C1.5690205216805937 31.06679588257203, 2.0604273904653736 28.777935027549507, 2.7016376485481954 27.3507518676891 M0.47585597338387137 31.4204505300781 C1.4640988671520738 30.223039842913654, 1.9842525043034702 28.86768000603586, 2.7016376485481954 27.3507518676891 M2.7016376485481954 27.3507518676891 C1.8116383917438057 25.469567120154665, 1.917031644367274 24.26113885369692, 1.3635749601491391 22.902490994335704 M2.7016376485481954 27.3507518676891 C2.3834892817749704 25.6905548282875, 1.5805078154533359 23.986904036658707, 1.3635749601491391 22.902490994335704 M1.3635749601491391 22.902490994335704 C1.501833859540755 22.536100987293477, 1.3290306966279708 21.752423123625697, 1.3127048025597168 20.839915543762064 M1.3635749601491391 22.902490994335704 C1.3690472803581242 22.282387539337932, 1.3129669679140257 21.33733273161647, 1.3127048025597168 20.839915543762064 M1.3127048025597168 20.839915543762064 C1.7280388133502655 20.513648917821417, 1.7249733268915093 19.754965093742182, 2.5609920838624287 19.200202137350782 M1.3127048025597168 20.839915543762064 C1.4907879155901251 20.440377525729673, 2.0147377050020316 20.214254535934202, 2.5609920838624287 19.200202137350782 M2.5609920838624287 19.200202137350782 C3.067335557030325 18.861926853828376, 4.734825374662192 17.88619372074055, 6.226808341470757 16.400057698209327 M2.5609920838624287 19.200202137350782 C4.062820304861652 17.98194231706054, 5.522855135520523 17.412063773318543, 6.226808341470757 16.400057698209327 M6.226808341470757 16.400057698209327 C6.632794907635846 14.67894960645885, 6.942358959512139 13.26279140208062, 6.799194105545928 11.795004845294258 M6.226808341470757 16.400057698209327 C6.174829997618756 15.02265766172106, 6.996051994428169 13.439261079582565, 6.799194105545928 11.795004845294258 M6.799194105545928 11.795004845294258 C7.253402687735998 11.060914397042955, 7.736060285787879 10.06890139098735, 7.5889166354678474 9.883954960545463 M6.799194105545928 11.795004845294258 C6.989687956934454 11.289482735948896, 7.313647573534228 10.66658321342833, 7.5889166354678474 9.883954960545463 M7.5889166354678474 9.883954960545463 C8.120213664905581 9.549912499815665, 8.184446688995418 9.122063403725065, 9.399670386080565 8.894140243436103 M7.5889166354678474 9.883954960545463 C8.186568453526656 9.620262803583222, 8.555135792970997 9.519292255938618, 9.399670386080565 8.894140243436103 M9.399670386080565 8.894140243436103 C10.840021502320834 8.75281011575168, 13.038715193909725 7.856533775299708, 13.86261969732642 7.840470259767792 M9.399670386080565 8.894140243436103 C10.145198229583217 8.5520174369611, 11.207160182912004 8.487060467976631, 13.86261969732642 7.840470259767792 M13.86261969732642 7.840470259767792 C14.8271084735614 7.088145874793269, 15.832193761613325 4.909520761426625, 16.237422372834253 3.882063311199551 M13.86261969732642 7.840470259767792 C14.60993713448763 6.685924786495054, 14.888242690073541 6.414046063604844, 16.237422372834253 3.882063311199551 M16.237422372834253 3.882063311199551 C16.605282814035267 3.322114516923777, 17.00501628901063 3.3962011564965024, 17.736818337958475 2.4530064542610996 M16.237422372834253 3.882063311199551 C16.738136598417064 3.39419077871036, 17.200058764986267 3.0064917861051907, 17.736818337958475 2.4530064542610996 M17.736818337958475 2.4530064542610996 C18.4097232493327 2.236298127902979, 19.13834327066272 2.2943498837279326, 19.79848779000428 2.289747628419659 M17.736818337958475 2.4530064542610996 C18.412766806009575 2.334112508368459, 18.994066128627967 2.478768146466911, 19.79848779000428 2.289747628419659 M19.79848779000428 2.289747628419659 C20.908570167057412 2.4873271897641724, 23.021000419900147 3.2247322649409798, 24.291387967934043 3.1539816120840993 M19.79848779000428 2.289747628419659 C21.16027717052627 2.5907079883869963, 21.662263752468377 2.828917604039795, 24.291387967934043 3.1539816120840993 M24.291387967934043 3.1539816120840993 C25.968630377389573 3.009561045511621, 26.746376828295347 1.4168649928337116, 28.048562088223825 0.5208521909346059 M24.291387967934043 3.1539816120840993 C25.456710316221947 2.4838284227512917, 26.377722064419082 1.5804962141855823, 28.048562088223825 0.5208521909346059 M28.048562088223825 0.5208521909346059 C28.048562088223825 0.5208521909346059, 28.048562088223825 0.5208521909346059, 28.048562088223825 0.5208521909346059 M28.048562088223825 0.5208521909346059 C28.048562088223825 0.5208521909346059, 28.048562088223825 0.5208521909346059, 28.048562088223825 0.5208521909346059" stroke="#000000" stroke-linecap="round" stroke-linejoin="round"></path>
    </g>
  </svg>