<svg xmlns="http://www.w3.org/2000/svg" width="100%" height="100%" viewBox="0 0 60 60">
    <g>
      <path d="M30.26645921895401 2.6051856895843084 L59.345979188589034 57.61506865044418 L-0.8798745273214419 60.349688842751284 L32.72672394950609 2.7140475362967065"></path>
      <path d="M29.99999999999997 0 C34.015389682263816 13.595507647922009, 43.792911643350735 31.08055040683639, 60 60 M29.99999999999997 0 C35.73167213972428 13.115567171237133, 42.802754785010706 25.053895165826283, 60 60 M60 60 C41.118804326888096 61.09976074626402, 23.909997234103404 56.960028421085866, 0 60 M60 60 C42.86490777687528 60.37600798668041, 26.29073969150941 60.639923550366845, 0 60 M0 60 C8.848579553846005 44.748175345435016, 14.92624279382468 30.94103805805705, 29.99999999999997 0 M0 60 C10.3621229382305 38.09551889054384, 21.013865766009562 16.598697539469043, 29.99999999999997 0 M29.99999999999997 0 C29.99999999999997 0, 29.99999999999997 0, 29.99999999999997 0 M29.99999999999997 0 C29.99999999999997 0, 29.99999999999997 0, 29.99999999999997 0" stroke="#000000" stroke-linecap="round" stroke-linejoin="round"></path>
    </g>
  </svg>