<svg xmlns="http://www.w3.org/2000/svg" width="100%" height="100%" viewBox="0 0 60 60">
    <g>
      <path d="M46.49429301169361 16.045185741349144 L48.654622164061585 15.705677936307874 L46.56540601875934 11.075372368163405 L46.463056623275534 11.76420313783307 L42.00023947071754 8.119490763957547 L42.873868445622 1.4464140405174848 L39.92504775679052 -0.44944663294493614 L33.6853724769825 2.039954414372828 L32.73524129066388 1.2212536420974793 L31.20190842131815 2.0840201593908656 L29.379042597033862 3.8202446601514923 L25.75890532506246 4.387495302864924 L25.49029676164151 12.529398142190967 L19.34795898302643 11.761458079475155 L16.1030375018501 10.13292206656158 L14.853412182314003 13.237413925553469 L10.662296581029326 12.616366089006883 L10.901437359611684 14.70440778197427 L9.839398351670553 11.620893380375422 L5.2044421905473675 16.83827211939423 L4.557892017739247 18.82476781082064 L1.3997349140352005 21.729104755070708 L3.38109348724488 20.245881139776976 L2.299059568900698 26.606199840131787 L-0.6496937230772777 29.19038926678206 L-2.0484657455991515 34.24082051358271 L0.2545332277377499 36.81901968923674 L0.7152836514455447 41.062176978169816 L1.604713526722459 40.415930545189305 L-0.5201527318268457 42.88122174177496 L4.658890103892842 50.854835549309804 L2.314694104254092 50.23708927771745 L4.832462230909801 55.98418650181358 L7.489524073914554 57.06504456507456 L9.685355702010682 56.318858171981404 L9.191942938921612 56.24489646789029 L15.447603018974126 59.536325570201726 L12.192598646611138 57.479491538907894 L46.52945911213863 57.5451182826477 L51.170190999997345 60.02132935217532 L50.07626409617841 60.08462038415688 L54.994812888746935 54.94914341319812 L54.36600883207777 54.4157112622606 L54.746640465345514 50.115509099890154 L57.14590092527617 51.682048611808405 L56.44347146991506 42.801298072212234 L57.58853971942852 40.226547516984766 L60.61981067557599 40.228080859487505 L62.56337142921659 37.70236913770758 L57.91482671103987 30.463501536945778 L56.578876567371196 28.109396739856894 L59.752496202900026 26.884035256061104 L57.18585418959299 25.257121630184383 L53.099797881463324 18.510710692913847 L52.869671601756494 16.379203452785948 L48.5025938872878 16.557530385407965 L49.87931580244315 18.244451417565077"></path>
      <path d="M46.981771157736134 18.225129752989915 C46.96125008757402 18.23884085878508, 46.91765695177115 18.21191752179538, 46.7974065571631 18.225129752989915 M46.981771157736134 18.225129752989915 C46.91415701717911 18.223841726196166, 46.843399728910974 18.217160139396306, 46.7974065571631 18.225129752989915 M46.7974065571631 18.225129752989915 C46.24958101734801 16.41905875313455, 46.544250283208 16.13734862111943, 45.88035149344854 12.709490583398237 M46.7974065571631 18.225129752989915 C46.32043837244882 17.24941602356856, 46.56199455343019 15.667183954670683, 45.88035149344854 12.709490583398237 M45.88035149344854 12.709490583398237 C45.392141462941865 11.284786087252561, 45.734113323483186 10.768823518366071, 44.78924763552066 9.415005367183706 M45.88035149344854 12.709490583398237 C45.562739076066244 11.747454465211577, 45.323107836838865 11.3836063727438, 44.78924763552066 9.415005367183706 M44.78924763552066 9.415005367183706 C43.520042511532125 8.473875108577301, 43.670696520575305 6.793091979130306, 42.53603651700389 5.213181553560742 M44.78924763552066 9.415005367183706 C44.10026076932974 8.18446186882512, 43.6462035008572 7.196230353163737, 42.53603651700389 5.213181553560742 M42.53603651700389 5.213181553560742 C41.67932869240333 4.066785187472046, 40.97543899851296 3.7870076889963196, 40.682968695314955 3.0020640731115424 M42.53603651700389 5.213181553560742 C41.608163779817964 4.534090064612326, 41.14047760672971 3.431238881714877, 40.682968695314955 3.0020640731115424 M40.682968695314955 3.0020640731115424 C39.43169439424777 2.4490892269038875, 38.33200306235675 1.191179102658117, 37.48002174031722 0.7365281108158325 M40.682968695314955 3.0020640731115424 C39.84090548375455 2.71181620715871, 38.92838520175806 1.6663092506879602, 37.48002174031722 0.7365281108158325 M37.48002174031722 0.7365281108158325 C36.18732114583607 0.2821390856214594, 35.46728671125835 0.0005232941285224779, 35.12260343374805 0.02376002970431651 M37.48002174031722 0.7365281108158325 C36.40730824253562 0.5777471040266887, 35.738023294713976 0.07312464131902219, 35.12260343374805 0.02376002970431651 M35.12260343374805 0.02376002970431651 C34.40776939982628 -0.05292438433913072, 33.01716899471358 0.00595407575683066, 32.83184619558004 0 M35.12260343374805 0.02376002970431651 C34.2453218204121 0.09538665695728918, 33.481773310156974 -0.07478731336006662, 32.83184619558004 0 M32.83184619558004 0 C31.72770403583859 -0.1918736738297605, 31.36912155108853 0.5761989245431184, 29.803702937495178 0.9845981960936012 M32.83184619558004 0 C31.988728700930686 0.3861530889894492, 31.509502298550114 0.6750610255540817, 29.803702937495178 0.9845981960936012 M29.803702937495178 0.9845981960936012 C29.44674896463285 1.59726608470897, 27.671589579884834 2.5442766073889422, 27.076183061103773 3.0274929058347473 M29.803702937495178 0.9845981960936012 C29.116571840289108 1.6522955442259941, 28.062018361262417 2.0708636515361016, 27.076183061103773 3.0274929058347473 M27.076183061103773 3.0274929058347473 C26.7508440407903 4.220890332706954, 25.337438384623464 4.87058887846911, 24.737909183157456 5.986505681148702 M27.076183061103773 3.0274929058347473 C26.59946751885283 3.622428355230074, 26.081050178045036 4.547067505472762, 24.737909183157456 5.986505681148702 M24.737909183157456 5.986505681148702 C23.801825644813174 7.5805093731855075, 23.701457509834633 7.751924414327412, 22.877503920407868 9.719458073960727 M24.737909183157456 5.986505681148702 C24.49522136014604 7.138278966532123, 23.772403743664924 7.7708818983038865, 22.877503920407868 9.719458073960727 M22.877503920407868 9.719458073960727 C21.82920807193962 11.011450817425883, 22.178544245134923 12.791931592736967, 21.583589889606653 14.084171636196084 M22.877503920407868 9.719458073960727 C22.480827825602585 10.818229691451311, 22.459979906428014 12.280324410896366, 21.583589889606653 14.084171636196084 M21.583589889606653 14.084171636196084 C20.66111997706308 13.939311494926377, 19.798564262917075 13.239410032129962, 18.446054965327832 12.298081261558014 M21.583589889606653 14.084171636196084 C20.458720128124302 13.177620586660302, 19.35639580859505 12.888114727981867, 18.446054965327832 12.298081261558014 M18.446054965327832 12.298081261558014 C17.982670032361384 11.928007926273814, 17.35168394791946 11.783929848261224, 16.769561674348527 11.831654791228127 M18.446054965327832 12.298081261558014 C17.8353995964433 12.06209416005536, 17.332236640994267 11.971162965613347, 16.769561674348527 11.831654791228127 M16.769561674348527 11.831654791228127 C15.699610873298132 11.933046196867743, 14.670587845686386 11.829713132904555, 13.493614936051866 11.796991146778236 M16.769561674348527 11.831654791228127 C15.969015237491229 11.850427128191797, 15.555461332444452 11.650012047863019, 13.493614936051866 11.796991146778236 M13.493614936051866 11.796991146778236 C12.907011908702673 11.677981747275023, 12.499288976995858 11.86557443834629, 12.000089488830161 12.162805836759349 M13.493614936051866 11.796991146778236 C12.965398174519905 11.810301309025979, 12.400057737156782 12.051427152671108, 12.000089488830161 12.162805836759349 M12.000089488830161 12.162805836759349 C11.40566747354563 12.73027975404335, 10.551703132321581 12.946750140659834, 9.177349714377238 13.569674864798268 M12.000089488830161 12.162805836759349 C11.067800936875544 12.450048663197462, 10.037710907039974 13.087483155292135, 9.177349714377238 13.569674864798268 M9.177349714377238 13.569674864798268 C8.704615142943885 13.747162263388605, 8.155090995617265 13.918748186132657, 7.8631752803489015 14.58653158231865 M9.177349714377238 13.569674864798268 C8.789044390173649 13.78397716494895, 8.442072357220026 14.181690862097552, 7.8631752803489015 14.58653158231865 M7.8631752803489015 14.58653158231865 C6.693153718302703 15.55501936180237, 6.279997916912283 15.568726700399147, 5.466817051695719 17.186595373017735 M7.8631752803489015 14.58653158231865 C7.125345028542886 14.968043610596997, 7.014014034233393 15.415289098582894, 5.466817051695719 17.186595373017735 M5.466817051695719 17.186595373017735 C4.854729576494837 17.998865511710065, 4.209318261486532 18.62569527226471, 3.4299126529234827 20.461134236136502 M5.466817051695719 17.186595373017735 C4.871891310484449 18.287537142667226, 4.485797881050698 18.771144494662668, 3.4299126529234827 20.461134236136502 M3.4299126529234827 20.461134236136502 C3.512922781969095 20.840832369734766, 2.8897737594373987 21.383385903408822, 2.56505550624633 22.321084794181505 M3.4299126529234827 20.461134236136502 C3.2153133646364402 21.11567248066006, 2.928458433758329 21.611456455583024, 2.56505550624633 22.321084794181505 M2.56505550624633 22.321084794181505 C1.902281749597585 23.40563677083745, 1.7144223308087374 24.83325870481525, 1.1801310513171865 26.425854111899188 M2.56505550624633 22.321084794181505 C2.385552408042858 23.56953578095374, 1.639274309307851 25.308832486046263, 1.1801310513171865 26.425854111899188 M1.1801310513171865 26.425854111899188 C1.3044853178639542 26.801374222219987, 0.8292190630253148 27.164097159588888, 0.6751036362680853 28.64647525103446 M1.1801310513171865 26.425854111899188 C1.0661729050179154 27.06107172202672, 0.8811965295019961 27.932077048358604, 0.6751036362680853 28.64647525103446 M0.6751036362680853 28.64647525103446 C0.9188175638529446 28.97643768363467, 0.9137507568451384 30.85395846911625, 0.07751816400804568 33.36369643851432 M0.6751036362680853 28.64647525103446 C0.7821176491356419 29.610935573756674, 0.016144462345946797 30.9934200784345, 0.07751816400804568 33.36369643851432 M0.07751816400804568 33.36369643851432 C0.10290395177626097 33.82437454789288, -0.008489842289655679 34.652073019652974, 0 35.83609886632148 M0.07751816400804568 33.36369643851432 C0.009487248164382636 33.83444160963729, -0.04959305695797317 34.460901125760714, 0 35.83609886632148 M0 35.83609886632148 C0.3200904388304107 36.2254220717457, 0.008549871800387375 37.21065770298974, 0.07199610420040425 38.21325915668868 M0 35.83609886632148 C-0.035838848837107334 36.191063394543654, -0.05645193614786667 36.76508123443864, 0.07199610420040425 38.21325915668868 M0.07199610420040425 38.21325915668868 C0.11813730903268804 39.39700707215611, 0.8516548976327842 40.52050806225783, 0.6277110805616342 42.7609346233494 M0.07199610420040425 38.21325915668868 C0.3926451037345453 39.44047668967348, 0.11388766167973524 40.474186092313914, 0.6277110805616342 42.7609346233494 M0.6277110805616342 42.7609346233494 C0.4522538415661312 43.03040366677399, 1.021209427397392 43.6702203040529, 1.0979273812277934 44.90971767070254 M0.6277110805616342 42.7609346233494 C0.8788127287329488 43.48664971875116, 0.9658744765313068 43.856535480226704, 1.0979273812277934 44.90971767070254 M1.0979273812277934 44.90971767070254 C1.566127954720869 45.23791486683464, 2.2502943645329476 46.539001569296346, 2.389321178794511 48.902844071103495 M1.0979273812277934 44.90971767070254 C1.343418703848486 46.73776564067967, 2.0979885711841404 47.7789487961695, 2.389321178794511 48.902844071103495 M2.389321178794511 48.902844071103495 C2.578219977290572 49.74070114570047, 3.009061069418935 50.11061071299138, 3.196996104200406 50.72545529521093 M2.389321178794511 48.902844071103495 C2.5235454646375683 49.526557795139766, 2.89091183999889 50.184000088448066, 3.196996104200406 50.72545529521093 M3.196996104200406 50.72545529521093 C3.1969475995211387 51.83812039788996, 4.415451351321529 52.35604350190273, 5.102545579520581 53.96844346888878 M3.196996104200406 50.72545529521093 C3.44507202792291 51.31504837965975, 4.142255984701659 51.85294121093235, 5.102545579520581 53.96844346888878 M5.102545579520581 53.96844346888878 C5.615141091811835 54.50959141524744, 6.371140915446872 55.21791510394741, 7.350019315869714 56.60267884671608 M5.102545579520581 53.96844346888878 C5.806836428777527 54.939605854153946, 6.579350175752722 55.87884357678001, 7.350019315869714 56.60267884671608 M7.350019315869714 56.60267884671608 C7.621188888453735 57.16869683414826, 8.153399659683682 57.539291430810984, 8.585099567561798 57.66434907601031 M7.350019315869714 56.60267884671608 C7.67321814071616 56.99292556696815, 8.137818831773192 57.127820764859955, 8.585099567561798 57.66434907601031 M8.585099567561798 57.66434907601031 C9.036861932939637 57.821726476814135, 10.152477182745656 58.72012083647123, 11.244190409244332 59.22246429300899 M8.585099567561798 57.66434907601031 C9.15118498189417 58.02181068442748, 9.939076279294072 58.47157303757699, 11.244190409244332 59.22246429300899 M11.244190409244332 59.22246429300899 C11.816685418580482 59.59544335898555, 12.337359343428323 59.36232585258714, 12.654698427740113 59.6971771517731 M11.244190409244332 59.22246429300899 C11.551273926341533 59.33161334884348, 11.962292089222972 59.35497174492709, 12.654698427740113 59.6971771517731 M12.654698427740113 59.6971771517731 C12.977925429589726 59.80922342499096, 13.45944883587556 59.74181804217703, 14.110179797009117 60 M12.654698427740113 59.6971771517731 C13.104547067563644 59.87047380373276, 13.492836144069585 59.80966607645567, 14.110179797009117 60 M14.110179797009117 60 C29.56203132220209 61.763461490326485, 41.62472093564227 57.68596704582834, 47.081071782369094 60 M14.110179797009117 60 C26.260978613528405 61.54291214585474, 36.45957652751093 61.50363685314909, 47.081071782369094 60 M47.081071782369094 60 C47.40322490156135 59.933321215965, 48.24768438080995 59.94883902516711, 48.40399156561983 59.88043169739174 M47.081071782369094 60 C47.310254221695665 59.87944520007138, 47.71296549430066 60.01104479283837, 48.40399156561983 59.88043169739174 M48.40399156561983 59.88043169739174 C49.46803644523055 59.66525544914729, 50.19579024607836 59.3866858662536, 50.927350073537475 59.03174816376772 M48.40399156561983 59.88043169739174 C49.269819275110656 59.646665631064316, 49.861226651396834 59.301565323897364, 50.927350073537475 59.03174816376772 M50.927350073537475 59.03174816376772 C51.78921961531848 58.70372560218235, 52.70044338777884 57.7379134909493, 53.244470426791736 57.439663982414004 M50.927350073537475 59.03174816376772 C51.65866259078892 58.45995376951132, 51.95948778906476 58.06214774622531, 53.244470426791736 57.439663982414004 M53.244470426791736 57.439663982414004 C54.310793835221126 56.900198120527996, 54.61880378910039 56.17477933036994, 55.30383653352063 55.18737346150692 M53.244470426791736 57.439663982414004 C53.841384507711645 56.91585427970113, 54.53626755605122 56.28419907266019, 55.30383653352063 55.18737346150692 M55.30383653352063 55.18737346150692 C56.054762885141244 53.571392947918746, 57.09380404113534 53.35994945236574, 57.053932301862176 52.35807090922284 M55.30383653352063 55.18737346150692 C55.40063646207505 54.364445763059734, 56.11645567353647 54.07193601476861, 57.053932301862176 52.35807090922284 M57.053932301862176 52.35807090922284 C57.109390154689926 51.149850372441826, 57.75888801022799 49.929324987617704, 58.44324163995441 49.03495063373809 M57.053932301862176 52.35807090922284 C57.32610757870914 51.364676015033936, 57.69081367778948 50.30696244022099, 58.44324163995441 49.03495063373809 M58.44324163995441 49.03495063373809 C58.301451332500065 47.520396410221494, 59.13706044654009 47.24066908374029, 59.42024845593535 45.30120694322903 M58.44324163995441 49.03495063373809 C58.87557671151135 48.35605340900161, 58.713124187349464 47.126001272372626, 59.42024845593535 45.30120694322903 M59.42024845593535 45.30120694322903 C59.842765720812025 44.62769039448343, 59.31403950260981 43.85515380755368, 59.93343665794301 41.240034145872 M59.42024845593535 45.30120694322903 C59.44397774565735 44.09586474649213, 59.655690381659575 42.69241159135977, 59.93343665794301 41.240034145872 M59.93343665794301 41.240034145872 C59.760734253689016 40.680368132856096, 59.780562681044664 39.72210727222675, 59.99999999999999 39.11266005343063 M59.93343665794301 41.240034145872 C59.88630758747469 40.91179360676671, 59.993243541651296 40.29037092338203, 59.99999999999999 39.11266005343063 M59.99999999999999 39.11266005343063 C59.871889875485344 38.26492075926092, 59.96270600605204 37.08070035635109, 59.731427383452264 34.90305073858663 M59.99999999999999 39.11266005343063 C59.90775673961953 38.12176358326791, 60.027258466417 36.90008071511902, 59.731427383452264 34.90305073858663 M59.731427383452264 34.90305073858663 C59.56874414800508 34.150419439589584, 59.68347122904875 33.576840614754296, 59.40943750083418 32.901291333135504 M59.731427383452264 34.90305073858663 C59.572435360793875 34.34545000777177, 59.64983620571782 34.023015467109104, 59.40943750083418 32.901291333135504 M59.40943750083418 32.901291333135504 C58.934538808401655 31.63570598116357, 59.054165333634984 30.41934282093281, 58.422456688981875 29.156355801633318 M59.40943750083418 32.901291333135504 C59.03256348518008 31.44396976158251, 58.39540981324787 29.811525160204045, 58.422456688981875 29.156355801633318 M58.422456688981875 29.156355801633318 C57.831319005997464 28.067401974555196, 57.26319261893149 26.59314655895086, 57.021349284404494 25.82618834327561 M58.422456688981875 29.156355801633318 C57.768256143858096 28.128656096691202, 57.21019152044025 26.50638165465412, 57.021349284404494 25.82618834327561 M57.021349284404494 25.82618834327561 C56.99789397786628 24.770067473576784, 56.35686823904725 24.8404905259663, 55.25796505041775 22.99477739879565 M57.021349284404494 25.82618834327561 C56.5714530373903 24.835875727624686, 56.32104627409581 24.223394645135844, 55.25796505041775 22.99477739879565 M55.25796505041775 22.99477739879565 C55.02247499405404 22.573623927795296, 54.20655703669973 21.792731227537704, 53.18415375033738 20.74611140892674 M55.25796505041775 22.99477739879565 C54.701681963857865 22.28404897775246, 53.97196118586308 21.40429975772915, 53.18415375033738 20.74611140892674 M53.18415375033738 20.74611140892674 C52.791735898293446 20.630510343509425, 52.294913607827546 19.75309787183221, 50.85176514747908 19.164178814402153 M53.18415375033738 20.74611140892674 C52.81128310729776 20.19839298068753, 52.268937571426726 19.865783298291664, 50.85176514747908 19.164178814402153 M50.85176514747908 19.164178814402153 C50.248956690615636 18.619882173051078, 49.08986396429292 18.72852756662949, 48.31264900515856 18.332968055955163 M50.85176514747908 19.164178814402153 C50.125764710634186 18.786525156381188, 49.09249603012656 18.67324346941288, 48.31264900515856 18.332968055955163 M48.31264900515856 18.332968055955163 C47.83202947082923 18.13206153923745, 47.71111855044168 18.4793802236789, 46.981771157736134 18.225129752989915 M48.31264900515856 18.332968055955163 C47.78595366633613 18.253831445115555, 47.34415242731962 18.315075383028947, 46.981771157736134 18.225129752989915 M46.981771157736134 18.225129752989915 C46.981771157736134 18.225129752989915, 46.981771157736134 18.225129752989915, 46.981771157736134 18.225129752989915 M46.981771157736134 18.225129752989915 C46.981771157736134 18.225129752989915, 46.981771157736134 18.225129752989915, 46.981771157736134 18.225129752989915" stroke="#000000" stroke-linecap="round" stroke-linejoin="round"></path>
    </g>
  </svg>