<svg xmlns="http://www.w3.org/2000/svg" width="100%" height="100%" viewBox="0 0 60 60">
    <g>
      <path d="M29.448805771344652 62.24004729908999 L27.33676992129164 56.41263750577053 L25.499465510472568 48.62861796218092 L24.15094592417835 45.699353358831836 L19.43485527448914 43.765507308274344 L13.643408933634365 39.63113066980748 L8.741338774391362 33.635010499180304 L2.18623398042552 35.50687543407822 L3.3590745773243786 29.815638577026142 L-0.5187520105278454 32.218962954288635 L-0.7641920832598007 31.05317527780691 L12.67060171132933 25.34161077794551 L14.668289494499236 23.215861685181697 L20.156812538317972 17.914168007600296 L23.207574296899672 17.107124703453906 L24.195126591006392 10.718928445946428 L30.416926528441028 2.4071427077489322 L29.40096897787261 2.857390472888646 L30.593499500506155 -1.0218105972246827 L36.33642117809035 6.5954099974781 L42.001222800214066 15.818226590164567 L48.35996951916954 24.034901462783846 L52.785176999849234 25.81412305801439 L60.78664234608475 30.75524199621956 L60.96975471547044 31.531525477629387 L61.3237788987395 32.538159072305824 L51.82063402905057 36.64462778291521 L46.43984399578885 38.73531162808587 L39.631036808683774 45.543990786191365 L40.14309442640997 44.877583918799225 L32.25123325820862 50.31552844359052 L30.236774231995106 59.8957066110568 L32.92464764580826 59.52018700167022"></path>
      <path d="M30.0762 60 C29.588268548807093 59.68209334207706, 28.76609458402383 59.59865473642478, 28.373259374999996 59.034581249999995 M30.0762 60 C29.33236138201373 59.60166929911822, 28.91066767299231 59.30291999655102, 28.373259374999996 59.034581249999995 M28.373259374999996 59.034581249999995 C28.843581581774863 57.64070802212932, 28.05191113753679 55.53232947006736, 25.330462500000003 51.500409375 M28.373259374999996 59.034581249999995 C27.24374095196025 57.762388695080716, 27.12339974721577 55.48181560956361, 25.330462500000003 51.500409375 M25.330462500000003 51.500409375 C23.607065878245038 49.839825379613224, 24.0463822560088 48.27322274222142, 21.874846875 46.14749062500001 M25.330462500000003 51.500409375 C24.73160088015791 49.76611248793361, 22.851135054802477 48.051229268612246, 21.874846875 46.14749062500001 M21.874846875 46.14749062500001 C21.030640526708098 45.63382473769987, 20.540400205573384 44.0822515788027, 19.453050000000005 43.339875 M21.874846875 46.14749062500001 C21.243775712513813 45.34424991065234, 20.37019107288207 43.923264665640964, 19.453050000000005 43.339875 M19.453050000000005 43.339875 C18.085475077653914 42.26895413743173, 17.347152434723736 41.41164983491978, 16.640653125 40.639696875 M19.453050000000005 43.339875 C18.5857637868447 42.89253799351084, 18.09957585570276 42.160642505371385, 16.640653125 40.639696875 M16.640653125 40.639696875 C14.426692252921931 39.21778899350505, 12.83955829978863 38.88788388701299, 10.481779687500001 35.99051718749999 M16.640653125 40.639696875 C15.518874180934468 39.89927289033994, 13.65071119653017 38.031869436703275, 10.481779687500001 35.99051718749999 M10.481779687500001 35.99051718749999 C7.548094017112703 34.49421967490938, 5.638881371406928 33.06954105192803, 4.570251562500001 32.943689062500006 M10.481779687500001 35.99051718749999 C8.682498154408718 34.632272833275984, 6.375869669777314 33.95400314509195, 4.570251562500001 32.943689062500006 M4.570251562500001 32.943689062500006 C3.042301397273661 31.998440379600936, 1.9086329883454747 32.723694293794054, 0.9684562500000014 31.660560937500005 M4.570251562500001 32.943689062500006 C3.102292476791115 32.43571744342087, 2.1440902673069404 31.8649831336266, 0.9684562500000014 31.660560937500005 M0.9684562500000014 31.660560937500005 C0.9196185215283013 31.3702760015822, 0.7345348059432519 30.771317442012126, 0 29.901300000000003 M0.9684562500000014 31.660560937500005 C0.6268469241951242 31.374810938051073, 0.5110064480704002 31.08380803288869, 0 29.901300000000003 M0 29.901300000000003 C0.4517309059091423 29.450349141734673, 0.6390712395196569 28.684032443987427, 0.9375749999999982 28.16655 M0 29.901300000000003 C0.20255022551864932 29.417521152622598, 0.5080372692453113 28.866681390893874, 0.9375749999999982 28.16655 M0.9375749999999982 28.16655 C2.8665348852194206 27.02445779621197, 4.903308683149304 27.018254813183574, 10.022296875 24.230240625 M0.9375749999999982 28.16655 C3.3935007695791506 26.558181785517387, 5.4258981954136445 26.471179829788266, 10.022296875 24.230240625 M10.022296875 24.230240625 C10.206737234377501 22.55085961227199, 13.13991397234816 21.713521892070876, 15.6933234375 20.244089062499995 M10.022296875 24.230240625 C12.30541549912916 22.325654686280526, 13.627093317503114 21.586375821723355, 15.6933234375 20.244089062499995 M15.6933234375 20.244089062499995 C16.904339281439537 19.383105689267385, 18.099877590933517 17.805502183035276, 18.3983625 17.7733875 M15.6933234375 20.244089062499995 C16.31497539468748 19.64153480962583, 16.875778263895526 19.186138640976807, 18.3983625 17.7733875 M18.3983625 17.7733875 C19.26393713454487 17.19933164432738, 20.067003456394538 15.902115917880447, 20.8495453125 15.087867187499999 M18.3983625 17.7733875 C19.098521964623185 16.761238146177114, 20.024860737563984 15.514009675822734, 20.8495453125 15.087867187499999 M20.8495453125 15.087867187499999 C21.62661174108936 13.510923976751494, 22.033037674595946 12.999530459891828, 24.734845312500003 9.515390624999998 M20.8495453125 15.087867187499999 C22.378226818938003 13.450885348753767, 23.18187348217719 11.879370890052977, 24.734845312500003 9.515390624999998 M24.734845312500003 9.515390624999998 C26.635573216939775 7.580650534821988, 25.888870694522808 3.842453584475855, 28.3545421875 0.9533953124999982 M24.734845312500003 9.515390624999998 C25.762474189891197 7.900988450785222, 26.518051455971907 4.902316104621913, 28.3545421875 0.9533953124999982 M28.3545421875 0.9533953124999982 C29.11476823260408 0.4907043215957487, 29.1239237280063 0.43167783965737694, 30.066300000000002 0 M28.3545421875 0.9533953124999982 C28.855232512524548 0.7211924972560371, 29.57108213255361 0.4108157986578674, 30.066300000000002 0 M30.066300000000002 0 C30.190778508604 0.26719896808342464, 30.791937923739745 0.6184500569967677, 31.790671874999997 0.9711140625000012 M30.066300000000002 0 C30.69828443888775 0.3739421247684017, 31.353504171752608 0.7773392663159803, 31.790671874999997 0.9711140625000012 M31.790671874999997 0.9711140625000012 C33.19555916367265 2.911570274208284, 32.9988490428221 5.929398280731625, 34.5312 8.046899999999997 M31.790671874999997 0.9711140625000012 C33.24319475728277 3.657004230736384, 33.848251667358305 6.441720829420237, 34.5312 8.046899999999997 M34.5312 8.046899999999997 C36.21037017921506 9.404004111354629, 37.93220163760472 13.10201122563324, 39.92190000000001 15.859500000000002 M34.5312 8.046899999999997 C36.43636262453193 11.412110416935825, 37.81774634349946 12.914275201693316, 39.92190000000001 15.859500000000002 M39.92190000000001 15.859500000000002 C41.75040035552195 16.131732428784026, 42.607557268804186 17.525379683601187, 47.42190000000001 22.5 M39.92190000000001 15.859500000000002 C41.831007777415294 17.033586114937226, 43.781809115189475 19.95149987666163, 47.42190000000001 22.5 M47.42190000000001 22.5 C49.34212759383339 23.263427534254998, 49.591324607203205 23.21430944618658, 52.87755 25.764975000000003 M47.42190000000001 22.5 C48.50721426537872 23.563928382617647, 49.36688905861796 24.35286104881193, 52.87755 25.764975000000003 M52.87755 25.764975000000003 C54.780365571316594 27.518519022159175, 57.885657673383236 27.55731041731512, 59.055337500000014 28.1781 M52.87755 25.764975000000003 C55.6890767845679 26.98422518724496, 57.92083363605744 27.886026640662916, 59.055337500000014 28.1781 M59.055337500000014 28.1781 C59.34715517576292 28.395456814257944, 59.456301791328606 29.088244122303664, 60 29.906100000000002 M59.055337500000014 28.1781 C59.31412666856375 28.84620922662241, 59.82766419638954 29.469059546248445, 60 29.906100000000002 M60 29.906100000000002 C59.553602906111514 30.26079837170687, 59.11905078682467 30.96601889492774, 59.03230312499999 31.65435 M60 29.906100000000002 C59.66229678461065 30.308651999058796, 59.31333720549697 31.030415081635216, 59.03230312499999 31.65435 M59.03230312499999 31.65435 C57.55815670776471 31.770056078355285, 55.754543585666305 33.18790291755667, 52.956384375000006 34.071740625 M59.03230312499999 31.65435 C57.534630286465536 31.961998871098267, 55.8946304997588 33.37212698858097, 52.956384375000006 34.071740625 M52.956384375000006 34.071740625 C49.87229334829975 36.34722446378915, 48.898969094626 36.98779049648179, 46.718737499999996 37.98828749999999 M52.956384375000006 34.071740625 C50.7927361738089 35.63431836206906, 49.57636663784931 36.66679193738718, 46.718737499999996 37.98828749999999 M46.718737499999996 37.98828749999999 C45.88071009170092 40.208198516740296, 43.48761060508126 40.16509579916495, 40.7909625 43.227562500000005 M46.718737499999996 37.98828749999999 C44.471042080450644 39.33900587025645, 42.215579959896814 42.258414741204874, 40.7909625 43.227562500000005 M40.7909625 43.227562500000005 C39.903519127765925 44.23008941898723, 38.56713320180316 45.42154090674223, 37.5878625 47.016562500000006 M40.7909625 43.227562500000005 C39.4208744445348 44.16514658467124, 38.60463513704055 45.2478368991685, 37.5878625 47.016562500000006 M37.5878625 47.016562500000006 C37.20611714725149 48.192941123857615, 37.14345158786858 49.615459799584094, 34.823071875 51.43050937500001 M37.5878625 47.016562500000006 C36.47983815676057 48.571744319056315, 35.43004459102058 50.24242823665894, 34.823071875 51.43050937500001 M34.823071875 51.43050937500001 C35.18203437276482 53.13900002819233, 32.76586764339897 56.275528215158594, 31.780364062500006 59.03141718749999 M34.823071875 51.43050937500001 C33.709474589600944 52.93884643328717, 33.0032176517327 55.14329924193883, 31.780364062500006 59.03141718749999 M31.780364062500006 59.03141718749999 C30.90340634799394 59.536408715283436, 30.663622430585313 59.98199461518268, 30.0762 60 M31.780364062500006 59.03141718749999 C31.25310532607963 59.290681579620504, 30.35748073440008 59.82215630733953, 30.0762 60 M30.0762 60 C30.0762 60, 30.0762 60, 30.0762 60 M30.0762 60 C30.0762 60, 30.0762 60, 30.0762 60" stroke="#000000" stroke-linecap="round" stroke-linejoin="round"></path>
    </g>
  </svg>