<svg xmlns="http://www.w3.org/2000/svg" width="100%" height="100%" viewBox="0 0 60 60">
    <g>
      <path d="M55.88556435533354 6.402115746676756 L51.81451236758294 3.848042150091506 L49.4302745068862 0.7515882426350389 L47.49951447613924 0.6623823511174763 L46.76914483732624 -0.7156427452461585 L45.64911489292975 2.732292859847686 L43.00031976198705 1.6234876010466244 L35.2653441329912 -0.3826095315041196 L34.232740879581186 1.9721660417364666 L34.151291674789995 6.777341948779399 L29.093024941272276 6.224866601181425 L27.335759009466084 7.956736201422602 L26.447765192583436 1.289413153541215 L24.70526931348376 5.027028913591862 L17.951692102202838 -0.007731280536078078 L20.690630835571554 -2.0124811849225375 L15.720790893905525 -1.455368880597133 L10.626035766724993 0.4273797062965431 L9.660597795201125 2.6953394746295447 L9.957629441092532 5.461283300423586 L3.4451086991906523 6.080230339396309 L1.2559748506943598 8.502131794523697 L-1.4463559414476832 11.658254688048494 L2.2619109640444788 18.722774146111647 L0.023516025920116368 19.05986897423836 L2.9507581368619413 26.444039167368203 L0.2781368527793704 31.303431817719865 L5.479188527441713 33.82522091973192 L8.736110359612185 36.30847607134148 L7.536169148625974 40.58812005039336 L15.15409321411706 41.44334577946596 L25.254714310225694 61.35916033562315 L31.624266050459212 59.094657562807676 L31.154356653016222 60.5650396997817 L31.788856021471144 60.56428851226394 L45.33672691332472 46.270696555040516 L48.51297335701915 44.00176079941631 L55.483112015324025 38.55202073350054 L58.68471643327725 35.36917233235819 L60.12037053660734 28.311314594506968 L58.61495737930314 30.056356882716187 L60.77165407990261 26.205490810752305 L58.2409089411601 22.93890805498895 L59.207458945058434 16.394673802086217 L60.87515555213873 16.34367953661542 L57.00437090135669 8.251112569914199 L54.339292440611125 6.8336972978593575 L56.009298012080656 4.6598247500319685"></path>
      <path d="M55.31268750326799 5.878034527834635 C54.936840751800034 5.158953858421689, 54.64994372088037 4.644896244981379, 54.09371574120023 4.53719350685742 M55.31268750326799 5.878034527834635 C54.804422958760306 5.4293767038798695, 54.406760413838136 4.883818056758696, 54.09371574120023 4.53719350685742 M54.09371574120023 4.53719350685742 C53.53407127418137 3.340013722806775, 51.667141204019615 3.1779388506571733, 51.367074150453 2.352469464196669 M54.09371574120023 4.53719350685742 C53.42910939801963 3.713580490185997, 52.43021002108458 3.281188392793935, 51.367074150453 2.352469464196669 M51.367074150453 2.352469464196669 C50.041314433178094 2.1921431331031527, 49.586930976085974 1.9083235062906057, 48.31684012811636 0.8604159415335065 M51.367074150453 2.352469464196669 C50.6891523776545 1.9657585037458758, 49.66205137737423 1.560446072196312, 48.31684012811636 0.8604159415335065 M48.31684012811636 0.8604159415335065 C47.10091997792219 0.5487359889319939, 46.39455300506946 0.8083879487660939, 45.016619662861764 0.09710476399513503 M48.31684012811636 0.8604159415335065 C46.98590288638704 0.3755601345981704, 46.2800053621328 0.4006696792315144, 45.016619662861764 0.09710476399513503 M45.016619662861764 0.09710476399513503 C44.281047421862844 -0.18165921357553227, 43.4728903360807 0.24610740826950023, 43.29576638560004 0 M45.016619662861764 0.09710476399513503 C44.50205506549677 -0.058833635964078465, 44.12572669256794 -0.05199557542558554, 43.29576638560004 0 M43.29576638560004 0 C42.547988600895216 -0.31117647762762735, 42.1099053845626 -0.1665952853143576, 40.75088323859444 0.2304781122732728 M43.29576638560004 0 C42.29159984485672 0.02350986939496614, 41.335785314660065 0.03977869740970798, 40.75088323859444 0.2304781122732728 M40.75088323859444 0.2304781122732728 C38.8731147691704 0.7326542371567423, 38.1752450372603 1.0061246104203667, 37.156914906142795 1.4354275768239744 M40.75088323859444 0.2304781122732728 C39.80214315866303 0.6744542004074298, 38.76259344578988 0.8115625183392914, 37.156914906142795 1.4354275768239744 M37.156914906142795 1.4354275768239744 C35.942938895897825 1.859591183504988, 35.124313737789464 2.885049683087212, 34.92184025651569 2.8068255007265934 M37.156914906142795 1.4354275768239744 C36.45952220784766 1.9461011413400924, 35.55623822788456 2.501476599609693, 34.92184025651569 2.8068255007265934 M34.92184025651569 2.8068255007265934 C34.37385973604078 3.0043640808998124, 33.25049412932205 4.373432002207879, 32.822678901792656 4.632514046465978 M34.92184025651569 2.8068255007265934 C34.35776669628222 3.4350931132068787, 33.78122172574335 3.7087099830436956, 32.822678901792656 4.632514046465978 M32.822678901792656 4.632514046465978 C32.57016624301325 4.988333232724225, 31.414381297072325 6.720321219834396, 30.039369262015402 8.1396893401057 M32.822678901792656 4.632514046465978 C31.461619757853125 6.013696902937216, 30.993193593389307 7.358353930047611, 30.039369262015402 8.1396893401057 M30.039369262015402 8.1396893401057 C29.931565706426223 7.489484302630857, 28.964102937745874 6.709521981934945, 28.237696486350785 5.704062348617042 M30.039369262015402 8.1396893401057 C29.51616013695383 7.2144925309825645, 28.611050524235488 6.342031883477839, 28.237696486350785 5.704062348617042 M28.237696486350785 5.704062348617042 C27.536064970825045 5.633097913598746, 27.838363549740535 5.091070064929112, 26.222609246446748 3.661739396966391 M28.237696486350785 5.704062348617042 C27.67710614339728 5.339966353965611, 27.401239434925127 4.792674064777861, 26.222609246446748 3.661739396966391 M26.222609246446748 3.661739396966391 C25.35302324278227 2.8702720638892645, 24.64650134825975 2.101759865923451, 24.05593906628964 2.0645866106822144 M26.222609246446748 3.661739396966391 C25.7738203040575 3.1537603088798916, 25.004033911210495 2.8061997367900733, 24.05593906628964 2.0645866106822144 M24.05593906628964 2.0645866106822144 C23.60492630012004 1.5669410786717823, 22.607323661307806 0.7873205693228413, 20.556629399361928 0.5179684776287854 M24.05593906628964 2.0645866106822144 C22.67702127133244 1.301848298376422, 21.881464391119874 0.9086540949077214, 20.556629399361928 0.5179684776287854 M20.556629399361928 0.5179684776287854 C19.78426814330158 0.31644574885532717, 19.22714256121383 0.4148665486440988, 18.069617507934105 0.057687003066772824 M20.556629399361928 0.5179684776287854 C19.734925929206263 0.5160958521780314, 18.991531690949643 0.4080496482818782, 18.069617507934105 0.057687003066772824 M18.069617507934105 0.057687003066772824 C17.13509483669016 0.2637249183475598, 15.729899758684502 0.5103869131821518, 15.062098693135487 0.09710476399513503 M18.069617507934105 0.057687003066772824 C17.118657597967132 0.20767445176912053, 16.206558319941003 -0.10299962086329024, 15.062098693135487 0.09710476399513503 M15.062098693135487 0.09710476399513503 C14.377138232252879 0.11035147875305057, 14.084926289157538 0.38731516793418785, 13.385287359165103 0.3854130705532711 M15.062098693135487 0.09710476399513503 C14.48099688948457 0.10336479061892856, 14.144121927214698 0.2575982410416381, 13.385287359165103 0.3854130705532711 M13.385287359165103 0.3854130705532711 C12.702806803443707 0.7282300088225808, 11.721067534671512 1.392207597957826, 10.200698022517049 1.5176043987949397 M13.385287359165103 0.3854130705532711 C12.186861505347325 0.833482234188536, 11.424199454531761 1.1947692351305665, 10.200698022517049 1.5176043987949397 M10.200698022517049 1.5176043987949397 C9.682540573467548 1.5869745650463247, 8.161901260520967 2.7953234267034084, 7.302898123122688 3.360502159597796 M10.200698022517049 1.5176043987949397 C9.124265328284494 2.2437441319848337, 7.853584678746083 2.7269161157235877, 7.302898123122688 3.360502159597796 M7.302898123122688 3.360502159597796 C6.696165970520161 4.194178143418137, 4.981376843574463 5.5107367634761735, 4.765581655618092 5.878034527834635 M7.302898123122688 3.360502159597796 C6.330594810474426 4.191124944112717, 5.431527829375165 4.847094520973267, 4.765581655618092 5.878034527834635 M4.765581655618092 5.878034527834635 C4.34640638092188 7.070150647207079, 2.961335947628303 8.229809620698534, 2.724615161738633 8.930108984579832 M4.765581655618092 5.878034527834635 C3.9549005510564403 6.951263316276319, 3.5047284143644175 8.431072769400973, 2.724615161738633 8.930108984579832 M2.724615161738633 8.930108984579832 C2.7833149844127534 9.26314488619927, 2.330080737968638 10.21749223853148, 1.2304847298631525 12.408246335373835 M2.724615161738633 8.930108984579832 C2.1058845299992766 9.813075882373745, 1.9428951231489517 11.367480193097471, 1.2304847298631525 12.408246335373835 M1.2304847298631525 12.408246335373835 C1.3075562476731946 14.156658287387012, 0.07931527648948067 15.346772800757856, 0.3125073469606166 16.22410893033349 M1.2304847298631525 12.408246335373835 C1.2210067203723158 13.859223329451325, 0.8335237808658775 14.552262357882334, 0.3125073469606166 16.22410893033349 M0.3125073469606166 16.22410893033349 C0.571562539581039 17.132623885481568, 0.5059940421767073 18.460689945503827, 0 20.289359119575643 M0.3125073469606166 16.22410893033349 C0.3168838094286478 17.144545216676505, 0.31214086481671266 18.466282771887535, 0 20.289359119575643 M0 20.289359119575643 C0.14434439628826654 21.67328426072834, -0.2916235047063346 22.525841376150876, 0.3593833573318276 24.49296705068396 M0 20.289359119575643 C-0.027455790484127024 21.56234832788205, 0.4207387499027474 23.71139262143473, 0.3593833573318276 24.49296705068396 M0.3593833573318276 24.49296705068396 C0.4822785032000135 25.56176334949673, 0.38908342062640244 26.251859273632384, 1.4549146073426913 28.58754362551331 M0.3593833573318276 24.49296705068396 C0.4111006609143389 25.378870700660926, 1.139289951178835 26.220551181808705, 1.4549146073426913 28.58754362551331 M1.4549146073426913 28.58754362551331 C1.4547614773898223 29.746432888763238, 2.137572039647631 31.014975079153437, 3.3126655170556494 32.64513359966391 M1.4549146073426913 28.58754362551331 C2.103445774906236 29.484208406812396, 2.835756065966842 30.908461262106435, 3.3126655170556494 32.64513359966391 M3.3126655170556494 32.64513359966391 C4.050438621344869 34.177778357991414, 5.303779945882221 36.40751181230053, 5.958707853493767 36.737781728735946 M3.3126655170556494 32.64513359966391 C3.834839138473879 33.38746714624953, 4.785990933461642 34.343109611778445, 5.958707853493767 36.737781728735946 M5.958707853493767 36.737781728735946 C6.507832783512747 37.87086666401359, 7.847344002239158 38.74269929304942, 8.972391440278612 40.461128374671596 M5.958707853493767 36.737781728735946 C6.761308375470517 37.63280246023308, 7.190281874433124 38.53394804229397, 8.972391440278612 40.461128374671596 M8.972391440278612 40.461128374671596 C9.34230689644526 41.55858200743016, 10.780970304326372 42.72714314112026, 12.510722585233879 44.27958695430456 M8.972391440278612 40.461128374671596 C9.420313683141309 41.628327586296656, 10.246155671073868 42.38825494833611, 12.510722585233879 44.27958695430456 M12.510722585233879 44.27958695430456 C20.004770094495928 49.670025909122884, 22.381535597258342 52.926170693446046, 27.716833184659652 59.08335849888033 M12.510722585233879 44.27958695430456 C17.39173543460207 49.55162092433064, 22.056049438381088 54.12848578688005, 27.716833184659652 59.08335849888033 M27.716833184659652 59.08335849888033 C28.203091652982593 59.299796574657144, 28.351334546127124 59.66732685958543, 29.406406773202235 60 M27.716833184659652 59.08335849888033 C28.33741178892219 59.450312446047874, 28.71101960673986 59.666112178707415, 29.406406773202235 60 M29.406406773202235 60 C30.38784224590866 60.07866749527008, 30.857101999023175 59.96333354516005, 31.279398553290754 59.8113546850196 M29.406406773202235 60 C30.14332141777672 59.97063718723202, 30.66842036160507 59.86547176737498, 31.279398553290754 59.8113546850196 M31.279398553290754 59.8113546850196 C31.634922573174297 59.49613429725787, 31.653821042612368 59.41199687936998, 32.36096660908171 59.08441337519202 M31.279398553290754 59.8113546850196 C31.58522789666709 59.576354896716744, 31.935321714151197 59.217026560729664, 32.36096660908171 59.08441337519202 M32.36096660908171 59.08441337519202 C34.28161355512589 55.18470152256595, 41.952891239971045 53.3497053732149, 43.57747347839607 48.25932829283535 M32.36096660908171 59.08441337519202 C37.348255924004846 54.70227677396512, 41.63100407095119 50.33864669976881, 43.57747347839607 48.25932829283535 M43.57747347839607 48.25932829283535 C44.408894539275295 46.12284785843846, 45.25245862418172 46.528020385839135, 49.398746267180606 42.35388732641148 M43.57747347839607 48.25932829283535 C44.54800453561463 46.57616250670671, 45.84389414645453 45.401391562631986, 49.398746267180606 42.35388732641148 M49.398746267180606 42.35388732641148 C50.18612080952741 40.80641852996226, 51.09439284691843 39.66476758130104, 54.120500035681765 36.7372542905801 M49.398746267180606 42.35388732641148 C50.46739143588167 40.07847431065513, 51.912142632395785 39.057793863625356, 54.120500035681765 36.7372542905801 M54.120500035681765 36.7372542905801 C54.009592271270876 35.12624512657305, 55.66840094758727 35.16221817984063, 56.766469033816016 32.64497701646139 M54.120500035681765 36.7372542905801 C54.97740336663985 35.71564516627712, 55.124446076816504 34.31700781990658, 56.766469033816016 32.64497701646139 M56.766469033816016 32.64497701646139 C57.31324760867532 31.844182575783954, 57.69198075478701 31.106820347685836, 57.79217625981274 30.616395270984256 M56.766469033816016 32.64497701646139 C57.0185404642012 32.05110683010567, 57.3633165974702 31.35844037100114, 57.79217625981274 30.616395270984256 M57.79217625981274 30.616395270984256 C58.045310729413195 29.883467354073005, 58.06381783705103 29.67598262865905, 58.62405859926047 28.58751066062857 M57.79217625981274 30.616395270984256 C58.07005253292038 30.026866766243966, 58.1300887963177 29.43121607616431, 58.62405859926047 28.58751066062857 M58.62405859926047 28.58751066062857 C58.434202498396196 27.384325384883606, 59.4089020313323 25.50185747136447, 59.71942850500284 24.492810467481434 M58.62405859926047 28.58751066062857 C58.9739510770442 27.56166770503608, 59.48030994827387 26.131891149019076, 59.71942850500284 24.492810467481434 M59.71942850500284 24.492810467481434 C59.90061163164102 23.98615492126459, 59.969321245491436 23.53585963928481, 59.98945601454439 22.40898369578994 M59.71942850500284 24.492810467481434 C59.77359794358525 23.77095664515672, 59.955507376476014 23.349018901768545, 59.98945601454439 22.40898369578994 M59.98945601454439 22.40898369578994 C60.42727732708134 20.86935396003331, 60.603256756945974 20.4245916903058, 60 18.23072833642864 M59.98945601454439 22.40898369578994 C59.702258666797746 21.52484733390514, 60.233438210495464 20.489631006258662, 60 18.23072833642864 M60 18.23072833642864 C59.555590904424974 16.717084767747398, 59.93345902417101 16.18941980852249, 59.38106917674855 14.279354311369636 M60 18.23072833642864 C59.65619667160723 17.01410511034211, 59.683036724555905 15.60127054407973, 59.38106917674855 14.279354311369636 M59.38106917674855 14.279354311369636 C58.677883727754946 13.912073094155009, 58.6050810158505 13.294036379469537, 58.171260806566174 10.62141308721693 M59.38106917674855 14.279354311369636 C59.08320370388188 13.094513992373724, 58.467620652735874 11.657179516191878, 58.171260806566174 10.62141308721693 M58.171260806566174 10.62141308721693 C57.583755554697326 9.907273045973895, 57.238627884945984 8.637486891458945, 56.39984787343957 7.345291761180785 M58.171260806566174 10.62141308721693 C57.59169195720281 9.698056045419142, 56.87788828010544 8.480452558867993, 56.39984787343957 7.345291761180785 M56.39984787343957 7.345291761180785 C55.880094728816964 7.1873781985989105, 56.04794251140691 6.700300897047919, 55.31268750326799 5.878034527834635 M56.39984787343957 7.345291761180785 C56.10890719911619 7.028890385957551, 55.65713079997483 6.593963389470085, 55.31268750326799 5.878034527834635 M55.31268750326799 5.878034527834635 C55.31268750326799 5.878034527834635, 55.31268750326799 5.878034527834635, 55.31268750326799 5.878034527834635 M55.31268750326799 5.878034527834635 C55.31268750326799 5.878034527834635, 55.31268750326799 5.878034527834635, 55.31268750326799 5.878034527834635" stroke="#000000" stroke-linecap="round" stroke-linejoin="round"></path>
    </g>
  </svg>