<svg xmlns="http://www.w3.org/2000/svg" width="100%" height="100%" viewBox="0 0 60 60">
    <g>
      <path d="M39.567628546610585 25.33325825861914 L58.480774499972945 8.995943494879063 L35.214794453118145 19.370964903511027 L36.263483917016906 1.2710906149575947 L32.14029784262495 20.86872984444891 L19.810075978634554 8.750681443378415 L22.814530495463462 20.88326599498975 L-1.7506674044883372 20.803540600525558 L18.835147683819372 29.568975943173342 L11.012949713701582 46.035398333879584 L26.49676578793089 41.70517444068912 L22.54322617839392 60.99895748089909 L33.65515725736565 42.63445349986009 L38.28964438316137 49.51305010828884 L38.41132168197697 35.37090844309831 L58.9855981301133 41.56521936553072 L42.473998020390425 29.861295720016297"></path>
      <path d="M41.77325581395348 27.153284671532848 C48.94680510511204 23.662264211053323, 53.000836993160696 17.276778365289704, 60 10.83941605839416 M41.77325581395348 27.153284671532848 C48.309656723611276 22.523373228900994, 52.07343018070579 17.74133112642565, 60 10.83941605839416 M60 10.83941605839416 C54.01541158472769 10.41787389394211, 51.40511380444005 15.257007875843955, 37.587209302325576 19.379562043795623 M60 10.83941605839416 C52.562391384227894 12.934496753396298, 46.86389240543816 16.455797257205486, 37.587209302325576 19.379562043795623 M37.587209302325576 19.379562043795623 C37.83744310730016 12.477521840562844, 38.40967440584248 8.714587997287698, 39.06976744186046 0 M37.587209302325576 19.379562043795623 C37.57015986012872 15.773247930870905, 39.222600707723146 9.126347090016939, 39.06976744186046 0 M39.06976744186046 0 C37.422404434506056 8.32108810486574, 32.69637797606948 12.084628998328576, 29.999999999999993 19.16058394160584 M39.06976744186046 0 C36.45097850719741 5.7266654773617285, 34.345697017990794 11.749032729651422, 29.999999999999993 19.16058394160584 M29.999999999999993 19.16058394160584 C27.263390104452565 16.245037328616277, 24.679663734880528 11.896324717742447, 22.76162790697674 10.401459854014595 M29.999999999999993 19.16058394160584 C28.802584413165437 16.45304739704634, 25.56428997551132 13.47683103296801, 22.76162790697674 10.401459854014595 M22.76162790697674 10.401459854014595 C24.23952406901561 15.483467589509706, 22.712857408122062 18.533067856078965, 23.023255813953487 23.540145985401463 M22.76162790697674 10.401459854014595 C22.47953719026378 14.613381331128334, 22.502109206603325 20.016946925612984, 23.023255813953487 23.540145985401463 M23.023255813953487 23.540145985401463 C15.848951344608505 24.455693017420646, 4.265521228494172 21.10263242669839, 0 19.48905109489051 M23.023255813953487 23.540145985401463 C14.963249530801939 23.04996228905485, 6.906133149499153 20.416773052062652, 0 19.48905109489051 M0 19.48905109489051 C3.2455093295811865 19.625917055245026, 5.9893412466175775 23.047513055034415, 20.232558139534884 31.204379562043798 M0 19.48905109489051 C5.536951105898248 20.891375893297766, 7.828115020193085 25.647319268185953, 20.232558139534884 31.204379562043798 M20.232558139534884 31.204379562043798 C16.91597926456995 34.916316029989765, 14.673059505108561 40.642248831285244, 9.244186046511627 44.78102189781022 M20.232558139534884 31.204379562043798 C16.73166060246781 36.48498365893749, 12.904684886121547 38.32141832200701, 9.244186046511627 44.78102189781022 M9.244186046511627 44.78102189781022 C13.281173629734642 45.56340187511863, 20.316881797249696 41.17349572476443, 24.593023255813954 39.197080291970806 M9.244186046511627 44.78102189781022 C15.187684127818189 44.25936229249221, 18.337111065896444 41.52062889769476, 24.593023255813954 39.197080291970806 M24.593023255813954 39.197080291970806 C25.381213445284722 44.42169655494234, 22.554830053827917 52.96409780821809, 25.11627906976744 60 M24.593023255813954 39.197080291970806 C24.0927254741838 43.60811544696778, 25.688646594312495 49.787538151658936, 25.11627906976744 60 M25.11627906976744 60 C29.927855878459894 54.96484701076541, 27.169458411648247 47.039353124903656, 31.831395348837205 40.72992700729927 M25.11627906976744 60 C28.66674230794313 52.72185538448012, 29.732059466863216 47.69017744486027, 31.831395348837205 40.72992700729927 M31.831395348837205 40.72992700729927 C33.90771818991883 41.72696602710008, 36.64652215052971 43.7528014466025, 39.68023255813953 49.92700729927008 M31.831395348837205 40.72992700729927 C34.51905648147864 44.74796567486809, 38.21741953784614 48.160584689193925, 39.68023255813953 49.92700729927008 M39.68023255813953 49.92700729927008 C40.46172553499023 47.48814287720954, 37.250831202151474 40.10007592552713, 37.325581395348834 37.11678832116789 M39.68023255813953 49.92700729927008 C39.648518274737526 46.5865249889317, 38.39362555159268 42.65376492702161, 37.325581395348834 37.11678832116789 M37.325581395348834 37.11678832116789 C42.810717339442775 35.705779104767764, 51.40585393640739 36.9391934915376, 59.82558139534882 40.072992700729934 M37.325581395348834 37.11678832116789 C43.13407220150856 36.4601855621097, 49.09620513525005 39.088173709841975, 59.82558139534882 40.072992700729934 M59.82558139534882 40.072992700729934 C54.6850064716951 35.679460749285305, 46.91929080284203 29.14712304796644, 41.77325581395348 27.153284671532848 M59.82558139534882 40.072992700729934 C55.883879753599516 38.166699932833275, 53.37706286389795 36.09611871720577, 41.77325581395348 27.153284671532848 M41.77325581395348 27.153284671532848 C41.77325581395348 27.153284671532848, 41.77325581395348 27.153284671532848, 41.77325581395348 27.153284671532848 M41.77325581395348 27.153284671532848 C41.77325581395348 27.153284671532848, 41.77325581395348 27.153284671532848, 41.77325581395348 27.153284671532848" stroke="#000000" stroke-linecap="round" stroke-linejoin="round"></path>
    </g>
  </svg>