<svg xmlns="http://www.w3.org/2000/svg" width="100%" height="100%" viewBox="0 0 60 60">
    <g>
      <path d="M1.0321787745615494 -1.0516814081325812 L57.67704379600508 0.9592596151206649 L60.98841108624728 58.08115227545224 L2.5200682338996434 61.32172378301839 L0.22565908560332315 2.0919212156186067"></path>
      <path d="M0 0 C12.286953136904815 -0.3550918566111565, 30.415508296623095 1.5382313753372625, 60 0 M0 0 C18.336174507151966 -0.03664496587525373, 36.44443303075301 -0.359340569021163, 60 0 M60 0 C60.644549908063674 16.920330576452915, 57.68052315020441 30.745324407706008, 60 60 M60 0 C60.21846743248658 23.258212062596176, 59.865674446318714 44.60738086171668, 60 60 M60 60 C41.684044033500534 59.10449912288307, 22.858904020091096 61.63339781507648, 0 60 M60 60 C40.504180870921125 58.162554840661166, 23.736559485119326 57.99054779443137, 0 60 M0 60 C2.3521349112339824 45.75646550524135, -1.4153903850074767 28.59074809849642, 0 0 M0 60 C-0.5590756679766586 39.24383673834044, 0.7148419735443383 19.23836899276554, 0 0 M0 0 C0 0, 0 0, 0 0 M0 0 C0 0, 0 0, 0 0" stroke="#000000" stroke-linecap="round" stroke-linejoin="round"></path>
    </g>
  </svg>